<svg width="700" height="396" viewBox="0 0 700 396" fill="none" xmlns="http://www.w3.org/2000/svg">
<g id="Blast5 1" clip-path="url(#clip0)">
<g id="Layer 2">
<g id="NEW DNA" opacity="0.9">
<path id="Vector" opacity="0.9" d="M67.5717 142.7C88.5016 189.084 118.048 230.496 167.878 252.253C169.653 253.024 171.379 253.901 173.048 254.881C224.662 285.22 305.512 278.835 343.994 232.072C345.346 230.467 346.8 228.951 348.345 227.531C363.45 213.374 363.244 200.079 393.368 183.319C449.264 152.213 504.117 173.979 552.526 206.498C588.612 230.737 627.654 263.592 683.689 269.4C713.028 272.441 695.752 256.673 686.523 253.829C563.667 215.916 557.334 182.673 516.853 166.336C445.283 137.444 375.54 148.241 334.076 210.651C332.454 213.086 330.62 215.372 328.596 217.484C266.892 281.765 186.49 262.808 129.75 209.04C127.992 207.362 126.362 205.556 124.872 203.637C103.934 176.926 79.8418 139.297 72.6814 107.269C67.6148 84.6242 53.113 82.3235 55.2844 103.822C55.6872 107.457 56.5083 111.034 57.7315 114.481C59.8684 120.728 64.1164 133.153 65.8656 138.254C66.3482 139.759 66.9168 141.241 67.5717 142.7Z" fill="#FCC695"/>
<path id="Vector_2" opacity="0.6" d="M20.5025 195.889L20.5542 195.947C22.4017 198.01 25.5721 198.185 27.6356 196.338L78.6898 150.626C80.7533 148.778 80.9283 145.608 79.0808 143.544L79.0291 143.487C77.1816 141.423 74.0111 141.248 71.9477 143.096L20.8934 188.808C18.83 190.655 18.655 193.826 20.5025 195.889Z" fill="#FCEE21"/>
<path id="Vector_3" opacity="0.6" d="M36.4273 209.036L36.479 209.093C38.3265 211.157 41.4969 211.332 43.5604 209.484L89.2544 168.572C91.3178 166.724 91.4928 163.554 89.6453 161.49L89.5936 161.433C87.7461 159.369 84.5757 159.194 82.5122 161.042L36.8182 201.954C34.7548 203.802 34.5798 206.972 36.4273 209.036Z" fill="#FCEE21"/>
<path id="Vector_4" opacity="0.6" d="M61.9021 214.448L61.9581 214.502C63.9578 216.418 67.1323 216.351 69.0486 214.351L97.3492 184.819C99.2655 182.819 99.1979 179.644 97.1982 177.728L97.1422 177.675C95.1425 175.758 91.968 175.826 90.0517 177.826L61.7511 207.358C59.8348 209.357 59.9024 212.532 61.9021 214.448Z" fill="#FCEE21"/>
<path id="Vector_5" opacity="0.6" d="M82.4539 223.617L82.5141 223.666C84.6644 225.411 87.8227 225.083 89.5683 222.933L108.544 199.559C110.289 197.409 109.961 194.25 107.811 192.505L107.751 192.456C105.6 190.71 102.442 191.038 100.697 193.189L81.7212 216.563C79.9756 218.713 80.3037 221.871 82.4539 223.617Z" fill="#FCEE21"/>
<path id="Vector_6" opacity="0.6" d="M153.872 234.052L153.949 234.054C156.718 234.112 159.011 231.916 159.07 229.147L159.287 218.964C159.346 216.195 157.149 213.902 154.38 213.843L154.302 213.842C151.533 213.783 149.241 215.98 149.182 218.749L148.965 228.931C148.906 231.7 151.103 233.993 153.872 234.052Z" fill="#FCEE21"/>
<path id="Vector_7" opacity="0.6" d="M225.61 260.404H225.687C228.457 260.404 230.702 258.159 230.702 255.389V187.679C230.702 184.91 228.457 182.665 225.687 182.665H225.61C222.84 182.665 220.595 184.91 220.595 187.679V255.389C220.595 258.159 222.84 260.404 225.61 260.404Z" fill="#FCEE21"/>
<path id="Vector_8" opacity="0.6" d="M253.126 266.382L253.203 266.375C255.961 266.126 257.996 263.689 257.747 260.93L250.794 183.779C250.545 181.021 248.108 178.986 245.349 179.235L245.272 179.241C242.513 179.49 240.479 181.928 240.727 184.686L247.681 261.837C247.929 264.596 250.367 266.63 253.126 266.382Z" fill="#FCEE21"/>
<path id="Vector_9" opacity="0.9" d="M270.523 265.829L270.601 265.822C273.359 265.574 275.394 263.136 275.145 260.377L268.192 183.226C267.943 180.468 265.505 178.433 262.747 178.682L262.67 178.689C259.911 178.938 257.876 181.375 258.125 184.134L265.079 261.285C265.327 264.043 267.765 266.078 270.523 265.829Z" fill="#FCED65"/>
<path id="Vector_10" opacity="0.9" d="M289.041 255.147L291.023 254.968C293.256 254.767 294.902 252.794 294.701 250.562L289.736 195.475C289.535 193.242 287.562 191.596 285.33 191.797L283.347 191.976C281.115 192.177 279.468 194.15 279.67 196.382L284.634 251.469C284.836 253.701 286.808 255.348 289.041 255.147Z" fill="#FCED65"/>
<path id="Vector_11" opacity="0.6" d="M598.151 226.685L598.228 226.671C600.953 226.174 602.759 223.563 602.263 220.838L596.817 190.931C596.321 188.206 593.71 186.399 590.985 186.895L590.909 186.909C588.184 187.405 586.377 190.017 586.873 192.741L592.319 222.649C592.815 225.374 595.427 227.181 598.151 226.685Z" fill="#FCEE21"/>
<path id="Vector_12" opacity="0.6" d="M615.709 234.908L615.785 234.895C618.51 234.398 620.317 231.787 619.821 229.062L610.244 176.469C609.748 173.745 607.137 171.938 604.412 172.434L604.335 172.448C601.611 172.944 599.804 175.555 600.3 178.28L609.877 230.873C610.373 233.598 612.984 235.405 615.709 234.908Z" fill="#FCEE21"/>
<path id="Vector_13" opacity="0.6" d="M670.672 254.701L670.749 254.687C673.473 254.191 675.28 251.58 674.784 248.855L654.331 136.531C653.835 133.806 651.224 131.999 648.499 132.496L648.422 132.51C645.698 133.006 643.891 135.617 644.387 138.342L664.84 250.665C665.336 253.39 667.948 255.197 670.672 254.701Z" fill="#FCEE21"/>
<path id="Vector_14" opacity="0.9" d="M9.62474 199.906C47.9689 235.105 104.83 242.283 149.852 219.639C184.259 202.328 195.865 188.015 237.139 185.698C300.041 182.156 302.918 242.826 410.48 264.893C468.212 276.733 586.019 218.363 636.185 153.738C648.49 137.875 665.335 118.41 676.321 101.177C677.065 100.015 677.43 98.6502 677.366 97.2718C677.301 95.8934 676.809 94.5692 675.959 93.4821L675.839 93.327C675.207 92.5255 674.399 91.8805 673.477 91.4422C672.556 91.0039 671.545 90.7841 670.525 90.8C669.504 90.8158 668.501 91.0668 667.594 91.5335C666.686 92.0002 665.898 92.67 665.292 93.4907L639.563 128.44C598.453 179.192 558.445 200.604 495.828 232.96C474.64 243.903 410.877 253.321 389.895 242.266C286.909 187.981 272.502 167.568 239.758 170.179C151.653 177.245 148.586 235.562 58.0245 208.868C57.6572 208.761 57.2997 208.622 56.956 208.454L31.6058 196.038C31.1925 195.837 30.8024 195.591 30.4426 195.305C1.44753 172.505 -8.93554 182.957 9.62474 199.906Z" fill="#FCC695"/>
<path id="Vector_15" opacity="0.7" d="M366.122 232.02L368.091 231.733C370.309 231.41 371.846 229.35 371.522 227.132L369.778 215.161C369.455 212.943 367.395 211.407 365.177 211.73L363.207 212.017C360.989 212.34 359.453 214.4 359.776 216.618L361.521 228.589C361.844 230.807 363.904 232.344 366.122 232.02Z" fill="#FCEE21"/>
<path id="Vector_16" opacity="0.9" d="M409.888 254.471L411.857 254.184C414.075 253.861 415.612 251.801 415.288 249.583L404.647 176.553C404.324 174.335 402.264 172.799 400.046 173.122L398.077 173.409C395.859 173.732 394.322 175.792 394.646 178.01L405.287 251.041C405.61 253.259 407.67 254.795 409.888 254.471Z" fill="#FCED60"/>
<path id="Vector_17" opacity="0.6" d="M457.738 254.344L457.815 254.33C460.539 253.834 462.346 251.223 461.85 248.498L446.191 162.504C445.695 159.78 443.084 157.973 440.359 158.469L440.283 158.483C437.558 158.979 435.751 161.59 436.247 164.315L451.906 250.308C452.402 253.033 455.013 254.84 457.738 254.344Z" fill="#FCEE21"/>
<path id="Vector_18" opacity="0.9" d="M431.637 250.689L433.606 250.402C435.824 250.079 437.36 248.019 437.037 245.801L426.548 173.811C426.225 171.593 424.165 170.057 421.947 170.38L419.977 170.667C417.759 170.99 416.223 173.05 416.546 175.268L427.035 247.258C427.359 249.476 429.419 251.012 431.637 250.689Z" fill="#FCED60"/>
<path id="Vector_19" opacity="0.6" d="M475.992 250.081L476.068 250.066C478.786 249.535 480.559 246.9 480.027 244.182L463.539 159.906C463.007 157.188 460.372 155.416 457.654 155.948L457.578 155.962C454.86 156.494 453.087 159.129 453.619 161.847L470.108 246.123C470.64 248.841 473.274 250.613 475.992 250.081Z" fill="#FCEE21"/>
<path id="Vector_20" opacity="0.6" d="M493.701 244.431L493.777 244.417C496.502 243.921 498.308 241.31 497.812 238.585L485.491 170.92C484.995 168.195 482.384 166.388 479.659 166.884L479.583 166.898C476.858 167.394 475.051 170.005 475.547 172.73L487.868 240.396C488.365 243.121 490.976 244.927 493.701 244.431Z" fill="#FCEE21"/>
<path id="Vector_21" opacity="0.6" d="M511.778 233.809L511.855 233.798C514.596 233.399 516.494 230.853 516.094 228.112L508.939 179.008C508.54 176.267 505.995 174.369 503.254 174.768L503.177 174.779C500.436 175.179 498.538 177.724 498.938 180.465L506.093 229.57C506.492 232.31 509.037 234.209 511.778 233.809Z" fill="#FCEE21"/>
<path id="Vector_22" opacity="0.6" d="M530.528 224.763L530.605 224.752C533.346 224.353 535.244 221.807 534.844 219.066L530.461 188.984C530.062 186.244 527.516 184.346 524.776 184.745L524.699 184.756C521.958 185.155 520.06 187.701 520.459 190.442L524.843 220.524C525.242 223.264 527.787 225.162 530.528 224.763Z" fill="#FCEE21"/>
<path id="Vector_23" opacity="0.9" d="M389.691 248.361L391.649 248.004C393.854 247.602 395.316 245.489 394.915 243.284L384.648 186.902C384.246 184.697 382.133 183.235 379.928 183.636L377.97 183.993C375.765 184.394 374.303 186.507 374.704 188.713L384.971 245.095C385.372 247.3 387.485 248.762 389.691 248.361Z" fill="#FCED60"/>
</g>
<g id="background" opacity="0.8">
<path id="Vector_24" opacity="0.2" d="M262.553 320.939L262.546 320.934C260.483 319.354 257.53 319.746 255.951 321.809L244.442 336.84C242.862 338.903 243.254 341.856 245.317 343.435L245.324 343.441C247.387 345.02 250.34 344.628 251.92 342.565L263.428 327.534C265.008 325.471 264.616 322.518 262.553 320.939Z" fill="#0000FF"/>
<path id="Vector_25" opacity="0.2" d="M600.177 271.699C598.509 272.86 598.097 275.151 599.257 276.817C600.416 278.483 602.708 278.892 604.376 277.731L624.609 263.648C626.277 262.487 626.689 260.196 625.53 258.53C624.37 256.864 622.078 256.455 620.41 257.615L600.177 271.699Z" fill="#0000FF"/>
<path id="Vector_26" opacity="0.2" d="M621.128 74.4091C623.372 75.0275 625.691 73.7119 626.309 71.4708C626.927 69.2297 625.609 66.9116 623.365 66.2933L596.144 58.7901C593.9 58.1717 591.581 59.4872 590.963 61.7283C590.345 63.9695 591.663 66.2875 593.907 66.9059L621.128 74.4091Z" fill="#0000FF"/>
<path id="Vector_27" opacity="0.2" d="M640.262 56.7043C638.555 58.2857 638.451 60.9502 640.031 62.6557C641.611 64.3611 644.276 64.4616 645.983 62.8802L666.698 43.6914C668.405 42.11 668.508 39.4454 666.928 37.74C665.348 36.0346 662.684 35.9341 660.977 37.5155L640.262 56.7043Z" fill="#0000FF"/>
<path id="Vector_28" opacity="0.2" d="M635.219 100.208C635.732 102.478 637.987 103.902 640.254 103.389C642.522 102.876 643.943 100.62 643.43 98.3499L637.198 70.8094C636.684 68.5397 634.43 67.1157 632.163 67.6287C629.895 68.1418 628.473 70.3976 628.987 72.6673L635.219 100.208Z" fill="#0000FF"/>
<path id="Vector_29" opacity="0.2" d="M580.158 57.4097C581.442 59.3507 584.055 59.8845 585.994 58.6021C587.933 57.3197 588.464 54.7067 587.18 52.7657L571.603 29.214C570.32 27.273 567.707 26.7392 565.768 28.0216C563.829 29.304 563.298 31.9171 564.582 33.858L580.158 57.4097Z" fill="#0000FF"/>
<path id="Vector_30" opacity="0.2" d="M546.865 137.203C545.983 135.05 543.524 134.018 541.373 134.899C539.222 135.78 538.192 138.24 539.074 140.394L549.775 166.524C550.657 168.678 553.116 169.709 555.267 168.828C557.419 167.947 558.448 165.487 557.566 163.334L546.865 137.203Z" fill="#0000FF"/>
<path id="Vector_31" opacity="0.2" d="M570.989 103.203C572.696 101.622 572.8 98.9572 571.22 97.2518C569.64 95.5463 566.975 95.4458 565.268 97.0272L544.553 116.216C542.846 117.797 542.743 120.462 544.323 122.167C545.903 123.873 548.567 123.973 550.274 122.392L570.989 103.203Z" fill="#0000FF"/>
<path id="Vector_32" opacity="0.8" d="M221.707 280.981C229.44 280.981 235.709 274.712 235.709 266.979C235.709 259.245 229.44 252.976 221.707 252.976C213.973 252.976 207.704 259.245 207.704 266.979C207.704 274.712 213.973 280.981 221.707 280.981Z" fill="#F9EE9D"/>
<path id="Vector_33" opacity="0.8" d="M77.3431 266.039C83.068 266.039 87.709 261.398 87.709 255.673C87.709 249.949 83.068 245.308 77.3431 245.308C71.6182 245.308 66.9773 249.949 66.9773 255.673C66.9773 261.398 71.6182 266.039 77.3431 266.039Z" fill="#F9EE9D"/>
<path id="Vector_34" opacity="0.8" d="M265.617 328.717C273.35 328.717 279.619 322.448 279.619 314.715C279.619 306.982 273.35 300.713 265.617 300.713C257.884 300.713 251.615 306.982 251.615 314.715C251.615 322.448 257.884 328.717 265.617 328.717Z" fill="#F9EE9D"/>
<path id="Vector_35" opacity="0.8" d="M141.037 284.617C149.013 284.617 155.479 278.151 155.479 270.175C155.479 262.199 149.013 255.734 141.037 255.734C133.062 255.734 126.596 262.199 126.596 270.175C126.596 278.151 133.062 284.617 141.037 284.617Z" fill="#F9EE9D"/>
<path id="Vector_36" opacity="0.8" d="M209.9 267.012L193.359 276.219C191.088 277.482 190.272 280.347 191.536 282.618L191.54 282.625C192.804 284.896 195.669 285.712 197.939 284.448L214.48 275.241C216.751 273.978 217.567 271.113 216.303 268.842L216.299 268.835C215.035 266.565 212.17 265.748 209.9 267.012Z" fill="#DCDCF9"/>
<path id="Vector_37" opacity="0.8" d="M148.988 275.364L148.986 275.372C148.388 277.892 149.947 280.42 152.467 281.018L170.83 285.372C173.351 285.969 175.878 284.41 176.476 281.89L176.478 281.882C177.076 279.361 175.517 276.834 172.997 276.236L154.634 271.882C152.113 271.284 149.586 272.843 148.988 275.364Z" fill="#DCDCF9"/>
<path id="Vector_38" opacity="0.8" d="M129.826 270.511L113.848 277.283C111.653 278.214 110.627 280.747 111.558 282.942C112.488 285.138 115.022 286.163 117.217 285.232L133.195 278.46C135.39 277.53 136.415 274.996 135.485 272.801C134.555 270.606 132.021 269.58 129.826 270.511Z" fill="#DCDCF9"/>
<path id="Vector_39" opacity="0.8" d="M85.5198 259.897C83.9819 258.075 81.2582 257.845 79.4364 259.383C77.6146 260.921 77.3844 263.644 78.9224 265.466L90.1167 278.727C91.6546 280.549 94.3782 280.779 96.2001 279.241C98.0219 277.703 98.252 274.98 96.7141 273.158L85.5198 259.897Z" fill="#DCDCF9"/>
<path id="Vector_40" opacity="0.8" d="M202.446 340.223L202.443 340.231C201.64 342.702 202.992 345.356 205.463 346.16L223.466 352.013C225.937 352.816 228.591 351.464 229.395 348.993L229.397 348.985C230.201 346.514 228.849 343.86 226.378 343.056L208.375 337.203C205.904 336.4 203.249 337.752 202.446 340.223Z" fill="#DCDCF9"/>
<path id="Vector_41" opacity="0.8" d="M179.58 342.969L166.701 356.844C164.933 358.748 165.044 361.725 166.948 363.492L166.955 363.498C168.859 365.266 171.836 365.155 173.604 363.251L186.483 349.377C188.251 347.472 188.14 344.495 186.236 342.728L186.229 342.722C184.325 340.954 181.348 341.065 179.58 342.969Z" fill="#DCDCF9"/>
<path id="Vector_42" opacity="0.8" d="M184.374 295.108L184.365 295.11C181.822 295.643 180.193 298.136 180.726 300.679L184.61 319.207C185.144 321.751 187.637 323.38 190.18 322.847L190.189 322.845C192.732 322.312 194.361 319.818 193.828 317.275L189.944 298.747C189.411 296.204 186.917 294.575 184.374 295.108Z" fill="#DCDCF9"/>
<path id="Vector_43" opacity="0.8" d="M238.707 365.553C246.44 365.553 252.709 359.284 252.709 351.551C252.709 343.818 246.44 337.549 238.707 337.549C230.974 337.549 224.705 343.818 224.705 351.551C224.705 359.284 230.974 365.553 238.707 365.553Z" fill="#F9EE9D"/>
<path id="Vector_44" opacity="0.2" d="M582.61 120.668C580.644 118.703 577.458 118.703 575.493 120.668C573.528 122.633 573.528 125.819 575.493 127.784L589.379 141.67C591.344 143.635 594.53 143.635 596.495 141.67C598.46 139.705 598.46 136.519 596.495 134.554L582.61 120.668Z" fill="#0000FF"/>
<path id="Vector_45" opacity="0.2" d="M561.41 238.25C561.964 237.033 561.428 235.598 560.213 235.045C558.998 234.492 557.564 235.03 557.01 236.247L550.29 251.006C549.736 252.223 550.272 253.658 551.487 254.211C552.702 254.764 554.136 254.226 554.69 253.009L561.41 238.25Z" fill="#0000FF"/>
<path id="Vector_46" opacity="0.8" d="M192.272 350.844C200.971 350.844 208.023 343.792 208.023 335.093C208.023 326.394 200.971 319.342 192.272 319.342C183.573 319.342 176.521 326.394 176.521 335.093C176.521 343.792 183.573 350.844 192.272 350.844Z" fill="#F9EE9D"/>
<path id="Vector_47" opacity="0.8" d="M183.138 299.618C191.838 299.618 198.89 292.566 198.89 283.867C198.89 275.168 191.838 268.116 183.138 268.116C174.439 268.116 167.387 275.168 167.387 283.867C167.387 292.566 174.439 299.618 183.138 299.618Z" fill="#F9EE9D"/>
<path id="Vector_48" opacity="0.8" d="M557.498 185.077C564.436 185.077 570.061 179.452 570.061 172.514C570.061 165.576 564.436 159.951 557.498 159.951C550.559 159.951 544.935 165.576 544.935 172.514C544.935 179.452 550.559 185.077 557.498 185.077Z" fill="#F9EE9D"/>
<path id="Vector_49" opacity="0.8" d="M563.977 34.8458C569.764 34.8458 574.455 30.1547 574.455 24.3679C574.455 18.5811 569.764 13.89 563.977 13.89C558.191 13.89 553.5 18.5811 553.5 24.3679C553.5 30.1547 558.191 34.8458 563.977 34.8458Z" fill="#F9EE9D"/>
<path id="Vector_50" opacity="0.8" d="M552.285 262.308C556.839 262.308 560.531 258.616 560.531 254.062C560.531 249.508 556.839 245.816 552.285 245.816C547.731 245.816 544.039 249.508 544.039 254.062C544.039 258.616 547.731 262.308 552.285 262.308Z" fill="#F9EE9D"/>
<path id="Vector_51" opacity="0.8" d="M629.593 119.449L620.343 132.967C619.072 134.825 619.548 137.362 621.405 138.633C623.263 139.904 625.8 139.428 627.071 137.57L636.32 124.052C637.591 122.194 637.116 119.657 635.258 118.386C633.4 117.115 630.864 117.591 629.593 119.449Z" fill="#D7D7F4"/>
<path id="Vector_52" opacity="0.9" d="M632.256 80.7208C639.694 80.7208 645.724 74.6911 645.724 67.253C645.724 59.8149 639.694 53.7852 632.256 53.7852C624.818 53.7852 618.788 59.8149 618.788 67.253C618.788 74.6911 624.818 80.7208 632.256 80.7208Z" fill="#F9EE9D"/>
<path id="Vector_53" opacity="0.8" d="M586.424 70.7859C592.211 70.7859 596.902 66.0948 596.902 60.308C596.902 54.5212 592.211 49.8301 586.424 49.8301C580.637 49.8301 575.946 54.5212 575.946 60.308C575.946 66.0948 580.637 70.7859 586.424 70.7859Z" fill="#F9EE9D"/>
<path id="Vector_54" opacity="0.8" d="M597.548 158.073C605.476 158.073 611.903 151.645 611.903 143.717C611.903 135.789 605.476 129.362 597.548 129.362C589.62 129.362 583.193 135.789 583.193 143.717C583.193 151.645 589.62 158.073 597.548 158.073Z" fill="#F9EE9D"/>
<path id="Vector_55" opacity="0.8" d="M672.022 43.9794C679.46 43.9794 685.49 37.9496 685.49 30.5116C685.49 23.0735 679.46 17.0437 672.022 17.0437C664.584 17.0437 658.554 23.0735 658.554 30.5116C658.554 37.9496 664.584 43.9794 672.022 43.9794Z" fill="#F9EE9D"/>
<path id="Vector_56" opacity="0.8" d="M639.951 124.519C647.389 124.519 653.418 118.49 653.418 111.051C653.418 103.613 647.389 97.5836 639.951 97.5836C632.512 97.5836 626.483 103.613 626.483 111.051C626.483 118.49 632.512 124.519 639.951 124.519Z" fill="#F9EE9D"/>
<path id="Vector_57" opacity="0.8" d="M102.142 298.119C110.118 298.119 116.583 291.653 116.583 283.678C116.583 275.702 110.118 269.236 102.142 269.236C94.166 269.236 87.7003 275.702 87.7003 283.678C87.7003 291.653 94.166 298.119 102.142 298.119Z" fill="#F9EE9D"/>
<path id="Vector_58" opacity="0.8" d="M537.3 145.432C546.218 145.432 553.448 138.202 553.448 129.284C553.448 120.366 546.218 113.137 537.3 113.137C528.382 113.137 521.153 120.366 521.153 129.284C521.153 138.202 528.382 145.432 537.3 145.432Z" fill="#F9EE9D"/>
<g id="circles" opacity="0.8">
<path id="Vector_59" opacity="0.8" d="M508.331 52.2256C512.343 52.2256 515.595 48.9734 515.595 44.9617C515.595 40.95 512.343 37.6979 508.331 37.6979C504.319 37.6979 501.067 40.95 501.067 44.9617C501.067 48.9734 504.319 52.2256 508.331 52.2256Z" fill="#F7D2D2"/>
<path id="Vector_60" opacity="0.8" d="M143.941 331.758C148.381 331.758 151.981 328.159 151.981 323.719C151.981 319.279 148.381 315.68 143.941 315.68C139.501 315.68 135.902 319.279 135.902 323.719C135.902 328.159 139.501 331.758 143.941 331.758Z" fill="#F7D2D2"/>
<path id="Vector_61" opacity="0.8" d="M463.869 314.758C465.977 314.758 467.686 313.049 467.686 310.941C467.686 308.833 465.977 307.124 463.869 307.124C461.761 307.124 460.052 308.833 460.052 310.941C460.052 313.049 461.761 314.758 463.869 314.758Z" fill="#F7D2D2"/>
<path id="Vector_62" opacity="0.8" d="M148.448 155.229C155.386 155.229 161.011 149.604 161.011 142.666C161.011 135.728 155.386 130.103 148.448 130.103C141.509 130.103 135.885 135.728 135.885 142.666C135.885 149.604 141.509 155.229 148.448 155.229Z" fill="#F7D2D2"/>
<path id="Vector_63" opacity="0.8" d="M585.648 31.6317C588.432 31.6317 590.689 29.3749 590.689 26.591C590.689 23.8071 588.432 21.5503 585.648 21.5503C582.864 21.5503 580.608 23.8071 580.608 26.591C580.608 29.3749 582.864 31.6317 585.648 31.6317Z" fill="#F7D2D2"/>
<path id="Vector_64" opacity="0.8" d="M682.93 162.993C688.07 162.993 692.236 158.826 692.236 153.687C692.236 148.547 688.07 144.381 682.93 144.381C677.791 144.381 673.624 148.547 673.624 153.687C673.624 158.826 677.791 162.993 682.93 162.993Z" fill="#F7D2D2"/>
<path id="Vector_65" opacity="0.8" d="M537.076 320.893C540.165 320.893 542.668 318.389 542.668 315.301C542.668 312.212 540.165 309.708 537.076 309.708C533.988 309.708 531.484 312.212 531.484 315.301C531.484 318.389 533.988 320.893 537.076 320.893Z" fill="#F7D2D2"/>
<path id="Vector_66" opacity="0.8" d="M574.981 185.93C577.27 185.93 579.125 184.075 579.125 181.786C579.125 179.497 577.27 177.641 574.981 177.641C572.692 177.641 570.836 179.497 570.836 181.786C570.836 184.075 572.692 185.93 574.981 185.93Z" fill="#F7D2D2"/>
<path id="Vector_67" opacity="0.8" d="M492.985 157.995C494.936 157.995 496.518 156.413 496.518 154.462C496.518 152.511 494.936 150.929 492.985 150.929C491.034 150.929 489.452 152.511 489.452 154.462C489.452 156.413 491.034 157.995 492.985 157.995Z" fill="#F7D2D2"/>
<path id="Vector_68" opacity="0.8" d="M613.437 103.96C615.393 103.96 616.979 102.374 616.979 100.419C616.979 98.4626 615.393 96.8771 613.437 96.8771C611.481 96.8771 609.896 98.4626 609.896 100.419C609.896 102.374 611.481 103.96 613.437 103.96Z" fill="#F7D2D2"/>
</g>
<g id="circles_2" opacity="0.3">
<path id="Vector_69" opacity="0.3" d="M30.9942 154.083C39.3126 154.083 46.0561 147.34 46.0561 139.021C46.0561 130.703 39.3126 123.959 30.9942 123.959C22.6757 123.959 15.9323 130.703 15.9323 139.021C15.9323 147.34 22.6757 154.083 30.9942 154.083Z" fill="#7474CE"/>
<path id="Vector_70" opacity="0.3" d="M35.9659 268.917C42.3094 268.917 47.4519 263.775 47.4519 257.431C47.4519 251.088 42.3094 245.945 35.9659 245.945C29.6223 245.945 24.4799 251.088 24.4799 257.431C24.4799 263.775 29.6223 268.917 35.9659 268.917Z" fill="#7474CE"/>
<path id="Vector_71" opacity="0.3" d="M117.497 367.888C124.435 367.888 130.06 362.263 130.06 355.325C130.06 348.387 124.435 342.762 117.497 342.762C110.558 342.762 104.934 348.387 104.934 355.325C104.934 362.263 110.558 367.888 117.497 367.888Z" fill="#F59188"/>
<path id="Vector_72" opacity="0.3" d="M203.233 395.78C205.821 395.78 207.92 393.682 207.92 391.093C207.92 388.504 205.821 386.405 203.233 386.405C200.644 386.405 198.545 388.504 198.545 391.093C198.545 393.682 200.644 395.78 203.233 395.78Z" fill="#7474CE"/>
<path id="Vector_73" opacity="0.3" d="M208.919 191.29C211.703 191.29 213.96 189.033 213.96 186.249C213.96 183.465 211.703 181.208 208.919 181.208C206.135 181.208 203.879 183.465 203.879 186.249C203.879 189.033 206.135 191.29 208.919 191.29Z" fill="#7474CE"/>
<path id="Vector_74" opacity="0.3" d="M192.47 167.465C195.849 167.465 198.588 164.726 198.588 161.347C198.588 157.968 195.849 155.229 192.47 155.229C189.091 155.229 186.352 157.968 186.352 161.347C186.352 164.726 189.091 167.465 192.47 167.465Z" fill="#F59188"/>
<path id="Vector_75" opacity="0.3" d="M220.431 332.043C223.072 332.043 225.214 329.902 225.214 327.261C225.214 324.619 223.072 322.478 220.431 322.478C217.79 322.478 215.649 324.619 215.649 327.261C215.649 329.902 217.79 332.043 220.431 332.043Z" fill="#F59188"/>
<path id="Vector_76" opacity="0.3" d="M265.772 395.289C270.783 395.289 274.846 391.227 274.846 386.216C274.846 381.205 270.783 377.142 265.772 377.142C260.761 377.142 256.699 381.205 256.699 386.216C256.699 391.227 260.761 395.289 265.772 395.289Z" fill="#F59188"/>
<path id="Vector_77" opacity="0.3" d="M74.6978 330.501C78.9093 330.501 82.3235 327.086 82.3235 322.875C82.3235 318.663 78.9093 315.249 74.6978 315.249C70.4862 315.249 67.072 318.663 67.072 322.875C67.072 327.086 70.4862 330.501 74.6978 330.501Z" fill="#7474CE"/>
<path id="Vector_78" opacity="0.3" d="M5.73008 244.101C8.89471 244.101 11.4602 241.536 11.4602 238.371C11.4602 235.207 8.89471 232.641 5.73008 232.641C2.56544 232.641 0 235.207 0 238.371C0 241.536 2.56544 244.101 5.73008 244.101Z" fill="#F59188"/>
<path id="Vector_79" opacity="0.3" d="M117.152 262.765C120.183 262.765 122.641 260.308 122.641 257.276C122.641 254.245 120.183 251.787 117.152 251.787C114.121 251.787 111.663 254.245 111.663 257.276C111.663 260.308 114.121 262.765 117.152 262.765Z" fill="#7474CE"/>
</g>
<g id="spirale 1" opacity="0.8">
<path id="Vector_80" opacity="0.8" d="M555.197 268.65C556.053 268.784 556.929 268.617 557.675 268.177C558.421 267.737 558.992 267.052 559.289 266.238C559.586 265.424 559.591 264.532 559.304 263.715C559.016 262.898 558.454 262.206 557.713 261.757C538.808 250.098 507.685 245.945 489.59 251.882C475.803 256.389 442.095 290.847 433.538 303.944C405.776 346.39 375.583 373.101 331.13 337.842C326.382 334.085 323.624 319.178 317.877 321.72C317.31 321.99 316.804 322.372 316.39 322.843C315.975 323.313 315.66 323.864 315.465 324.46C315.269 325.056 315.196 325.686 315.251 326.311C315.306 326.936 315.487 327.543 315.783 328.096C318.299 332.982 326.123 342.081 326.244 342.193C344.942 359.022 368.982 368.043 392.308 358.393C412.686 349.983 425.715 329.225 435.753 313.922C435.831 313.826 435.915 313.734 436.003 313.646C451.246 294.965 468.806 268.435 491.804 260.309C521.222 249.883 544.004 266.815 555.197 268.65Z" fill="#F7D2D2"/>
<path id="Vector_81" opacity="0.9" d="M320.923 340.586C323.14 339.251 323.856 336.372 322.522 334.156C321.187 331.941 318.308 331.227 316.09 332.563L307.72 337.604C305.502 338.94 304.786 341.819 306.121 344.034C307.455 346.25 310.335 346.963 312.552 345.628L320.923 340.586Z" fill="#B6F2B6"/>
<path id="Vector_82" opacity="0.9" d="M442.479 307.886C440.325 306.45 437.416 307.031 435.981 309.183C434.547 311.336 435.131 314.244 437.285 315.68L445.416 321.099C447.57 322.534 450.479 321.953 451.914 319.801C453.348 317.649 452.764 314.74 450.61 313.304L442.479 307.886Z" fill="#B6F2B6"/>
<path id="Vector_83" opacity="0.9" d="M480.555 267.205C478.803 265.299 475.839 265.172 473.935 266.921C472.03 268.671 471.905 271.635 473.657 273.541L480.267 280.738C482.018 282.644 484.982 282.771 486.887 281.021C488.792 279.272 488.916 276.308 487.165 274.401L480.555 267.205Z" fill="#B6F2B6"/>
<path id="Vector_84" opacity="0.9" d="M504.937 257.878C504.322 255.364 501.787 253.823 499.274 254.438C496.762 255.053 495.224 257.59 495.84 260.104L498.162 269.596C498.777 272.11 501.313 273.65 503.825 273.036C506.337 272.421 507.875 269.884 507.26 267.369L504.937 257.878Z" fill="#B6F2B6"/>
<path id="Vector_85" opacity="0.9" d="M526.915 260.056C527.425 257.518 525.784 255.047 523.249 254.537C520.713 254.027 518.243 255.67 517.733 258.208L515.805 267.787C515.294 270.325 516.935 272.796 519.471 273.307C522.006 273.817 524.476 272.173 524.987 269.635L526.915 260.056Z" fill="#B6F2B6"/>
<path id="Vector_86" opacity="0.9" d="M551.103 267.786C552.132 265.41 551.042 262.651 548.668 261.623C546.295 260.595 543.537 261.687 542.508 264.063L538.624 273.029C537.595 275.405 538.685 278.164 541.058 279.192C543.432 280.22 546.19 279.127 547.219 276.752L551.103 267.786Z" fill="#B6F2B6"/>
<path id="Vector_87" opacity="0.9" d="M337.787 353.476C339.09 351.24 338.335 348.371 336.1 347.069C333.866 345.766 330.997 346.524 329.694 348.761L324.774 357.203C323.471 359.44 324.226 362.309 326.461 363.611C328.695 364.913 331.564 364.156 332.867 361.919L337.787 353.476Z" fill="#B6F2B6"/>
<path id="Vector_88" opacity="0.9" d="M357.621 362.796C358.372 360.319 356.974 357.702 354.499 356.952C352.024 356.202 349.409 357.602 348.658 360.08L345.824 369.431C345.073 371.908 346.471 374.525 348.946 375.275C351.421 376.025 354.037 374.625 354.787 372.147L357.621 362.796Z" fill="#B6F2B6"/>
<path id="Vector_89" opacity="0.9" d="M380.574 364.941C380.938 362.378 379.158 360.006 376.597 359.642C374.036 359.278 371.665 361.06 371.301 363.623L369.926 373.297C369.561 375.86 371.342 378.233 373.902 378.597C376.463 378.961 378.834 377.179 379.199 374.616L380.574 364.941Z" fill="#B6F2B6"/>
<path id="Vector_90" opacity="0.9" d="M401.901 357.327C401.181 354.84 398.584 353.407 396.1 354.125C393.615 354.844 392.184 357.442 392.903 359.929L395.618 369.316C396.337 371.803 398.934 373.236 401.419 372.518C403.903 371.799 405.335 369.201 404.615 366.714L401.901 357.327Z" fill="#B6F2B6"/>
<path id="Vector_91" opacity="0.9" d="M420.379 341.446C418.764 339.422 415.816 339.09 413.795 340.704C411.773 342.318 411.444 345.266 413.059 347.289L419.155 354.925C420.77 356.949 423.718 357.281 425.739 355.667C427.761 354.053 428.09 351.105 426.475 349.082L420.379 341.446Z" fill="#B6F2B6"/>
<path id="Vector_92" opacity="0.9" d="M432.452 324.213C430.42 322.61 427.473 322.956 425.871 324.987C424.269 327.017 424.618 329.963 426.651 331.567L434.322 337.619C436.355 339.222 439.301 338.876 440.903 336.845C442.505 334.815 442.156 331.869 440.124 330.265L432.452 324.213Z" fill="#B6F2B6"/>
</g>
<g id="spirale2" opacity="0.8">
<path id="Vector_93" opacity="0.8" d="M91.8794 108.182C86.1924 135.902 95.7827 165.13 135.307 178.787C163.673 188.584 292.398 164.268 286.487 265.815C285.194 288.02 278.464 313.129 270.503 333.456C270.289 334.14 270.336 334.878 270.635 335.529C270.934 336.18 271.464 336.697 272.123 336.98L274.389 338.057C274.693 338.231 275.031 338.337 275.38 338.37C275.729 338.404 276.081 338.362 276.412 338.249C276.744 338.136 277.048 337.953 277.303 337.714C277.559 337.474 277.761 337.183 277.896 336.86C277.896 336.86 286.581 312.802 286.599 312.733C319.014 197.451 254.26 167.68 145.699 172.281C145.406 172.281 137.375 170.153 137.082 170.058C110.621 161.131 100.935 140.529 99.0915 118.048C98.1351 106.416 102.538 105.184 93.1633 106.614C92.4222 106.726 92.0259 107.476 91.8794 108.182Z" fill="#D7D7F4"/>
<path id="Vector_94" opacity="0.9" d="M98.2951 106.35C96.1184 106.582 94.5421 108.535 94.7743 110.711C95.0066 112.888 96.9594 114.465 99.1361 114.232L108.073 113.279C110.249 113.047 111.826 111.094 111.593 108.917C111.361 106.74 109.408 105.164 107.232 105.396L98.2951 106.35Z" fill="#B6F2B6"/>
<path id="Vector_95" opacity="0.9" d="M98.8632 127.432C96.7858 128.122 95.6613 130.366 96.3515 132.443C97.0418 134.521 99.2854 135.645 101.363 134.955L109.891 132.121C111.969 131.431 113.093 129.187 112.403 127.11C111.713 125.033 109.469 123.908 107.392 124.598L98.8632 127.432Z" fill="#B6F2B6"/>
<path id="Vector_96" opacity="0.9" d="M105.85 143.423C104.005 144.602 103.465 147.053 104.644 148.897C105.823 150.742 108.274 151.282 110.118 150.103L117.691 145.264C119.536 144.085 120.076 141.634 118.897 139.789C117.718 137.945 115.267 137.405 113.423 138.584L105.85 143.423Z" fill="#B6F2B6"/>
<path id="Vector_97" opacity="0.9" d="M127.324 165.996C126.097 167.809 126.572 170.273 128.385 171.5C130.198 172.727 132.662 172.252 133.889 170.44L138.926 162.997C140.153 161.184 139.678 158.72 137.865 157.493C136.052 156.266 133.588 156.741 132.361 158.553L127.324 165.996Z" fill="#B6F2B6"/>
<path id="Vector_98" opacity="0.9" d="M154.254 171.87C154.098 174.054 155.741 175.95 157.925 176.107C160.108 176.263 162.005 174.619 162.161 172.436L162.802 163.471C162.958 161.288 161.314 159.391 159.131 159.235C156.948 159.079 155.051 160.723 154.895 162.906L154.254 171.87Z" fill="#B6F2B6"/>
<path id="Vector_99" opacity="0.9" d="M176.399 172.171C176.243 174.354 177.886 176.251 180.07 176.407C182.253 176.563 184.15 174.92 184.306 172.736L184.947 163.772C185.103 161.588 183.46 159.692 181.276 159.536C179.093 159.379 177.196 161.023 177.04 163.206L176.399 172.171Z" fill="#B6F2B6"/>
<path id="Vector_100" opacity="0.9" d="M198.385 173.648C198.229 175.832 199.873 177.728 202.056 177.885C204.24 178.041 206.136 176.397 206.292 174.214L206.933 165.249C207.09 163.066 205.446 161.169 203.263 161.013C201.079 160.857 199.182 162.501 199.026 164.684L198.385 173.648Z" fill="#B6F2B6"/>
<path id="Vector_101" opacity="0.9" d="M284.233 218.018C282.264 218.974 281.443 221.346 282.4 223.315C283.356 225.284 285.728 226.105 287.697 225.148L295.781 221.221C297.75 220.264 298.571 217.893 297.614 215.924C296.658 213.955 294.286 213.134 292.317 214.091L284.233 218.018Z" fill="#B6F2B6"/>
<path id="Vector_102" opacity="0.9" d="M289.633 231.036C287.553 231.737 286.435 233.991 287.136 236.07C287.836 238.15 290.09 239.268 292.169 238.567L300.707 235.691C302.787 234.991 303.905 232.737 303.204 230.658C302.504 228.578 300.25 227.46 298.17 228.161L289.633 231.036Z" fill="#B6F2B6"/>
<path id="Vector_103" opacity="0.9" d="M292.03 248.047C289.952 248.737 288.828 250.981 289.518 253.058C290.208 255.136 292.452 256.26 294.529 255.57L303.058 252.736C305.135 252.046 306.26 249.802 305.57 247.725C304.879 245.647 302.636 244.523 300.558 245.213L292.03 248.047Z" fill="#B6F2B6"/>
<path id="Vector_104" opacity="0.9" d="M287.986 295.049C285.802 294.893 283.905 296.536 283.749 298.72C283.593 300.903 285.237 302.8 287.42 302.956L296.384 303.597C298.568 303.753 300.465 302.11 300.621 299.926C300.777 297.743 299.133 295.846 296.95 295.69L287.986 295.049Z" fill="#B6F2B6"/>
<path id="Vector_105" opacity="0.9" d="M293.548 265.86C291.369 266.074 289.777 268.014 289.991 270.193C290.206 272.371 292.145 273.964 294.324 273.749L303.268 272.869C305.447 272.655 307.039 270.715 306.824 268.536C306.61 266.358 304.67 264.766 302.492 264.98L293.548 265.86Z" fill="#B6F2B6"/>
<path id="Vector_106" opacity="0.9" d="M285.416 314.363C283.253 314.027 281.227 315.509 280.891 317.672C280.555 319.835 282.036 321.861 284.199 322.197L293.08 323.576C295.243 323.912 297.269 322.431 297.605 320.268C297.941 318.105 296.46 316.079 294.296 315.743L285.416 314.363Z" fill="#B6F2B6"/>
<path id="Vector_107" opacity="0.9" d="M271.286 334.12L271.285 334.128C270.937 336.371 272.472 338.472 274.716 338.82L283.307 340.155C285.55 340.503 287.651 338.968 287.999 336.724L288 336.716C288.349 334.473 286.813 332.372 284.57 332.024L275.979 330.689C273.736 330.341 271.635 331.876 271.286 334.12Z" fill="#B6F2B6"/>
</g>
<path id="Vector_108" opacity="0.2" d="M585.396 231.777C586.729 231.885 587.897 230.895 588.005 229.564C588.113 228.234 587.121 227.067 585.788 226.959L569.625 225.644C568.292 225.536 567.124 226.526 567.015 227.857C566.907 229.187 567.9 230.354 569.233 230.462L585.396 231.777Z" fill="#0000FF"/>
<path id="Vector_109" opacity="0.8" d="M562.461 237.699C567.239 237.699 571.112 233.826 571.112 229.048C571.112 224.27 567.239 220.397 562.461 220.397C557.683 220.397 553.81 224.27 553.81 229.048C553.81 233.826 557.683 237.699 562.461 237.699Z" fill="#F9EE9D"/>
<path id="Vector_110" opacity="0.8" d="M598.84 234.498C601.922 230.934 601.51 225.529 597.922 222.426C594.333 219.323 588.925 219.696 585.844 223.26C582.762 226.823 583.173 232.228 586.762 235.331C590.351 238.435 595.759 238.061 598.84 234.498Z" fill="#F9EE9D"/>
<path id="Vector_111" opacity="0.8" d="M625.94 268.926C631.874 268.926 636.685 264.115 636.685 258.181C636.685 252.247 631.874 247.436 625.94 247.436C620.005 247.436 615.195 252.247 615.195 258.181C615.195 264.115 620.005 268.926 625.94 268.926Z" fill="#FCF2A7"/>
<path id="Vector_112" opacity="0.8" d="M162.846 378.573C168.642 378.573 173.341 373.874 173.341 368.078C173.341 362.281 168.642 357.583 162.846 357.583C157.05 357.583 152.351 362.281 152.351 368.078C152.351 373.874 157.05 378.573 162.846 378.573Z" fill="#F9EE9D"/>
<path id="Vector_113" opacity="0.9" d="M453.546 292.062C463.335 292.062 471.271 284.126 471.271 274.337C471.271 264.548 463.335 256.613 453.546 256.613C443.757 256.613 435.822 264.548 435.822 274.337C435.822 284.126 443.757 292.062 453.546 292.062Z" fill="#FCF2A7"/>
<path id="Vector_114" opacity="0.8" d="M499.816 281.963C498.99 280.354 497.018 279.72 495.411 280.545C493.805 281.37 493.172 283.343 493.999 284.951L504.019 304.458C504.846 306.066 506.818 306.701 508.424 305.876C510.03 305.051 510.663 303.078 509.837 301.469L499.816 281.963Z" fill="#DCDCF9"/>
<path id="Vector_115" opacity="0.8" d="M465.071 272.768C462.747 272.639 460.76 274.417 460.632 276.738C460.504 279.059 462.283 281.045 464.607 281.173L492.801 282.73C495.124 282.858 497.112 281.08 497.24 278.759C497.368 276.438 495.588 274.452 493.265 274.324L465.071 272.768Z" fill="#DCDCF9"/>
<path id="Vector_116" opacity="0.9" d="M509.649 319.127C514.875 319.127 519.111 314.891 519.111 309.665C519.111 304.44 514.875 300.204 509.649 300.204C504.424 300.204 500.188 304.44 500.188 309.665C500.188 314.891 504.424 319.127 509.649 319.127Z" fill="#FCF2A7"/>
<path id="Vector_117" opacity="0.8" d="M499.816 286.268C505.197 282.545 506.479 275.076 502.68 269.585C498.881 264.095 491.439 262.662 486.058 266.385C480.677 270.108 479.395 277.578 483.194 283.068C486.993 288.559 494.435 289.991 499.816 286.268Z" fill="#FCF2A7"/>
<path id="Vector_118" opacity="0.2" d="M389.124 314.118L389.12 314.125C388.013 315.796 388.471 318.046 390.142 319.153L410.452 332.601C412.122 333.707 414.373 333.249 415.479 331.579L415.484 331.572C416.59 329.901 416.133 327.65 414.462 326.544L394.152 313.096C392.481 311.99 390.23 312.447 389.124 314.118Z" fill="#0000FF"/>
<path id="Vector_119" opacity="0.8" d="M416.012 340.935C421.047 340.935 425.129 336.854 425.129 331.819C425.129 326.784 421.047 322.702 416.012 322.702C410.977 322.702 406.896 326.784 406.896 331.819C406.896 336.854 410.977 340.935 416.012 340.935Z" fill="#FCF2A7"/>
<path id="Vector_120" opacity="0.2" d="M357.098 331.455L357.103 331.462C358.198 333.14 360.446 333.612 362.123 332.517L382.52 319.2C384.198 318.105 384.67 315.857 383.575 314.179L383.57 314.172C382.475 312.494 380.227 312.022 378.549 313.118L358.152 326.435C356.475 327.53 356.003 329.778 357.098 331.455Z" fill="#0000FF"/>
<path id="Vector_121" opacity="0.8" d="M386.836 324.951C393.213 324.951 398.383 319.782 398.383 313.405C398.383 307.028 393.213 301.859 386.836 301.859C380.459 301.859 375.29 307.028 375.29 313.405C375.29 319.782 380.459 324.951 386.836 324.951Z" fill="#FCF09A"/>
</g>
<g id="new one">
<g id="proteins 3">
<path id="Vector_122" d="M251.41 214.519C257.207 198.069 259.045 183.726 255.518 182.483C251.99 181.24 244.431 193.568 238.635 210.018C232.839 226.468 231 240.811 234.528 242.054C238.056 243.297 245.614 230.969 251.41 214.519Z" fill="#46D6FA"/>
<path id="Vector_123" d="M360.4 312.518C420.114 312.518 468.522 264.11 468.522 204.396C468.522 144.682 420.114 96.2739 360.4 96.2739C300.686 96.2739 252.278 144.682 252.278 204.396C252.278 264.11 300.686 312.518 360.4 312.518Z" fill="#6BF2F9"/>
<path id="Vector_124" d="M520.221 203.007C521.372 199.448 508.852 192.212 492.257 186.846C475.662 181.479 461.276 180.014 460.125 183.573C458.974 187.132 471.494 194.368 488.09 199.734C504.685 205.1 519.07 206.566 520.221 203.007Z" fill="#46D6FA"/>
<path id="Vector_125" opacity="0.28" d="M464.438 225.61C464.438 231.486 460.87 247.918 455.597 256.819C451.116 264.385 448.049 270.115 437.993 280.541C430.662 288.16 422.094 294.482 412.652 299.239C403.303 304.013 385.302 311.182 379.59 310.381C365.475 308.382 424.551 289.778 428.911 281.73C433.271 273.682 438.39 273.803 445.386 263.179C453.141 251.4 459.466 229.513 460.69 221.302C461.853 213.581 464.352 213.9 464.438 225.61Z" fill="#00A7D5"/>
<path id="Vector_126" d="M429.254 64.688C432.894 60.1164 432.139 53.4594 427.568 49.8191C422.996 46.1788 416.339 46.9338 412.699 51.5053C409.059 56.0769 409.814 62.7339 414.385 66.3742C418.957 70.0144 425.614 69.2595 429.254 64.688Z" fill="#6BF2F9"/>
<path id="Vector_127" d="M422.027 57.9643C422.441 58.9972 423.247 59.8243 424.269 60.265C425.291 60.7057 426.445 60.7243 427.481 60.3166L443.163 54.0609C444.193 53.642 445.016 52.8319 445.45 51.8081C445.885 50.7842 445.896 49.63 445.481 48.598C445.065 47.5666 444.258 46.7414 443.237 46.3024C442.215 45.8634 441.061 45.8461 440.027 46.2542L424.344 52.5099C423.316 52.9289 422.496 53.7375 422.061 54.7593C421.627 55.7812 421.615 56.9333 422.027 57.9643Z" fill="#E1ECEF"/>
<path id="Vector_128" d="M457.415 70.6307C468.037 70.6307 476.648 62.0201 476.648 51.3984C476.648 40.7766 468.037 32.166 457.415 32.166C446.793 32.166 438.183 40.7766 438.183 51.3984C438.183 62.0201 446.793 70.6307 457.415 70.6307Z" fill="#46D6FA"/>
<path id="Vector_129" d="M460.991 53.7421C460.018 55.389 459.738 57.3548 460.213 59.2077C460.688 61.0607 461.879 62.6495 463.524 63.6254L488.513 78.4029C489.328 78.8859 490.23 79.2034 491.168 79.3375C492.106 79.4715 493.062 79.4194 493.979 79.1841C494.897 78.9489 495.76 78.5351 496.517 77.9664C497.275 77.3976 497.914 76.6852 498.396 75.8697C498.879 75.0545 499.197 74.1521 499.331 73.2141C499.465 72.2761 499.413 71.3209 499.177 70.4031C498.942 69.4853 498.528 68.6228 497.96 67.8649C497.391 67.1071 496.678 66.4687 495.863 65.9863L470.874 51.2088C469.228 50.2358 467.262 49.9561 465.409 50.431C463.556 50.906 461.967 52.0968 460.991 53.7421Z" fill="#C3D7E2"/>
<path id="Vector_130" d="M509.899 125.846C528.935 125.846 544.366 110.415 544.366 91.3797C544.366 72.3443 528.935 56.913 509.899 56.913C490.864 56.913 475.433 72.3443 475.433 91.3797C475.433 110.415 490.864 125.846 509.899 125.846Z" fill="#00A6D5"/>
<path id="Vector_131" d="M478.373 95.6465L438.025 122.332C432.484 125.997 430.963 133.459 434.628 139.001L434.633 139.008C438.298 144.549 445.76 146.07 451.302 142.405L491.649 115.72C497.19 112.055 498.711 104.592 495.046 99.0511L495.042 99.0439C491.377 93.5028 483.914 91.9818 478.373 95.6465Z" fill="#C3D7E2"/>
<path id="Vector_132" d="M525.215 75.6644C526.361 69.8032 521.566 63.9317 514.505 62.5501C507.443 61.1686 500.789 64.8 499.643 70.6613C498.496 76.5225 503.291 82.3939 510.352 83.7755C517.414 85.1571 524.068 81.5256 525.215 75.6644Z" fill="#61D8E5"/>
<path id="Vector_133" d="M160.408 19.2841C165.733 19.2841 170.05 14.9672 170.05 9.64204C170.05 4.31689 165.733 0 160.408 0C155.083 0 150.766 4.31689 150.766 9.64204C150.766 14.9672 155.083 19.2841 160.408 19.2841Z" fill="#6BF2F9"/>
<path id="Vector_134" d="M185.904 20.68C185.436 21.6904 184.586 22.4737 183.541 22.8582C182.496 23.2427 181.341 23.1968 180.329 22.7307L165.018 15.6306C164.007 15.1623 163.224 14.3124 162.839 13.2672C162.455 12.222 162.501 11.067 162.967 10.0556C163.437 9.04678 164.287 8.26533 165.332 7.88254C166.377 7.49975 167.531 7.54684 168.542 8.01349L183.862 15.1136C184.362 15.3445 184.812 15.6718 185.185 16.0767C185.559 16.4816 185.848 16.9561 186.038 17.4732C186.228 17.9902 186.314 18.5396 186.291 19.0899C186.268 19.6402 186.136 20.1805 185.904 20.68Z" fill="#E1ECEF"/>
<path id="Vector_135" d="M195.262 47.8397C205.969 47.8397 214.649 39.1596 214.649 28.4522C214.649 17.7448 205.969 9.06473 195.262 9.06473C184.555 9.06473 175.875 17.7448 175.875 28.4522C175.875 39.1596 184.555 47.8397 195.262 47.8397Z" fill="#46D6FA"/>
<path id="Vector_136" d="M206.602 71.1477C205.677 71.3876 204.713 71.4427 203.767 71.31C202.821 71.1773 201.91 70.8594 201.086 70.3745C200.263 69.8896 199.543 69.2471 198.968 68.4838C198.393 67.7205 197.974 66.8513 197.735 65.9261L190.428 37.6203C189.949 35.7534 190.229 33.7725 191.208 32.1121C192.187 30.4516 193.784 29.247 195.65 28.7624C196.574 28.5227 197.537 28.4677 198.483 28.6005C199.429 28.7332 200.339 29.0512 201.162 29.5362C201.984 30.0212 202.703 30.6638 203.278 31.427C203.852 32.1902 204.27 33.0591 204.508 33.9841L211.832 62.2898C212.311 64.1579 212.029 66.1398 211.049 67.8005C210.068 69.4612 208.469 70.665 206.602 71.1477Z" fill="#C3D7E2"/>
<path id="Vector_137" d="M214.012 124.985C233.047 124.985 248.479 109.553 248.479 90.518C248.479 71.4826 233.047 56.0514 214.012 56.0514C194.977 56.0514 179.545 71.4826 179.545 90.518C179.545 109.553 194.977 124.985 214.012 124.985Z" fill="#00A6D5"/>
<path id="Vector_138" d="M230.574 101.633L230.569 101.64C226.905 107.182 228.426 114.644 233.967 118.309L274.314 144.994C279.855 148.659 287.318 147.138 290.983 141.597L290.988 141.59C294.653 136.049 293.132 128.586 287.59 124.921L247.243 98.236C241.702 94.5712 234.239 96.0922 230.574 101.633Z" fill="#C3D7E2"/>
<path id="Vector_139" d="M208.404 87.2059C215.466 85.8244 220.261 79.9529 219.114 74.0917C217.967 68.2304 211.313 64.599 204.251 65.9805C197.19 67.3621 192.395 73.2336 193.542 79.0948C194.689 84.956 201.343 88.5875 208.404 87.2059Z" fill="#6BF2F9"/>
<path id="Vector_140" d="M525.003 178.138C525.791 163.488 524.107 151.486 521.242 151.332C518.376 151.178 515.414 162.93 514.626 177.58C513.838 192.23 515.521 204.232 518.387 204.386C521.252 204.54 524.214 192.789 525.003 178.138Z" fill="#46D6FA"/>
<path id="Vector_141" d="M521.9 147.768C524.028 146.442 522.937 140.851 519.464 135.281C515.991 129.711 511.451 126.271 509.323 127.598C507.195 128.924 508.286 134.515 511.759 140.085C515.232 145.655 519.772 149.095 521.9 147.768Z" fill="#46D6FA"/>
<path id="Vector_142" d="M522.247 127.429C524.313 126.166 523.633 121.287 520.727 116.532C517.822 111.777 513.79 108.947 511.723 110.21C509.657 111.473 510.337 116.351 513.243 121.106C516.149 125.861 520.18 128.692 522.247 127.429Z" fill="#46D6FA"/>
<path id="Vector_143" d="M522.54 152.859C524.982 152.706 526.485 145.019 525.898 135.691C525.311 126.363 522.856 118.926 520.415 119.08C517.974 119.233 516.471 126.92 517.057 136.248C517.644 145.575 520.099 153.013 522.54 152.859Z" fill="#46D6FA"/>
<path id="Vector_144" d="M520.014 152.873C520.929 151.203 518.644 148.193 514.913 146.15C511.181 144.107 507.415 143.805 506.501 145.474C505.587 147.144 507.871 150.154 511.602 152.197C515.334 154.24 519.1 154.543 520.014 152.873Z" fill="#46D6FA"/>
</g>
<path id="Vector_145" d="M360.418 213.478C388.766 213.478 411.747 196.218 411.747 174.927C411.747 153.636 388.766 136.376 360.418 136.376C332.069 136.376 309.088 153.636 309.088 174.927C309.088 196.218 332.069 213.478 360.418 213.478Z" fill="#46D6FA"/>
<path id="Vector_146" d="M360.34 213.064C388.655 213.064 411.609 200.526 411.609 185.06C411.609 169.594 388.655 157.056 360.34 157.056C332.025 157.056 309.071 169.594 309.071 185.06C309.071 200.526 332.025 213.064 360.34 213.064Z" fill="white"/>
<path id="Vector_147" d="M339.453 209.609C351.945 209.609 362.072 199.482 362.072 186.99C362.072 174.498 351.945 164.371 339.453 164.371C326.961 164.371 316.834 174.498 316.834 186.99C316.834 199.482 326.961 209.609 339.453 209.609Z" fill="#6969A3"/>
<path id="Vector_148" d="M328.191 194.874C333.664 194.874 338.1 190.438 338.1 184.965C338.1 179.492 333.664 175.056 328.191 175.056C322.718 175.056 318.282 179.492 318.282 184.965C318.282 190.438 322.718 194.874 328.191 194.874Z" fill="white"/>
<path id="Vector_149" d="M410.36 192.384C410.36 190.988 411.282 190.988 411.282 185.405C411.282 171.385 388.456 165.078 360.211 165.078C331.965 165.078 309.036 174.668 309.036 186.499C309.036 187.504 309.202 188.503 309.528 189.454C307.071 186.365 305.699 182.553 305.624 178.606C305.624 162.424 330.32 149.309 360.771 149.309C391.222 149.309 415.917 162.433 415.917 178.606C415.917 183.655 414.582 188.231 410.36 192.384Z" fill="#00A6D5"/>
<path id="Vector_150" d="M208.783 195.837C210.496 194.709 209.05 189.49 205.554 184.179C202.058 178.869 197.835 175.479 196.122 176.606C194.409 177.734 195.854 182.953 199.35 188.264C202.847 193.574 207.069 196.964 208.783 195.837Z" fill="#46D6FA"/>
<path id="Vector_151" d="M209.657 197.063C210.991 194.995 207.292 190.238 201.397 186.437C195.501 182.636 189.641 181.231 188.308 183.299C186.975 185.367 190.673 190.124 196.569 193.925C202.464 197.726 208.324 199.131 209.657 197.063Z" fill="#46D6FA"/>
<path id="Vector_152" d="M205.628 251.606C204.63 252.498 203.319 252.957 201.983 252.883C200.647 252.809 199.395 252.207 198.502 251.21L187.093 238.475L182.165 232.969L179.08 229.522C178.713 229.095 178.422 228.608 178.218 228.083L172.945 222.198L175.616 218.966C176.309 218.132 177.187 217.47 178.18 217.033C179.173 216.596 180.254 216.397 181.338 216.45L185.844 221.483C186.214 221.895 186.506 222.371 186.706 222.887L187.938 224.248L196.753 234.097L206.033 244.437C206.482 244.932 206.827 245.512 207.05 246.142C207.273 246.772 207.368 247.439 207.331 248.107C207.293 248.774 207.123 249.427 206.831 250.027C206.538 250.628 206.13 251.165 205.628 251.606Z" fill="#F9EE9D"/>
<path id="Vector_153" d="M181.303 216.442C180.22 216.388 179.138 216.588 178.145 217.025C177.152 217.461 176.275 218.123 175.582 218.958L172.911 222.189L165.018 213.374L154.092 201.164C153.199 200.168 152.739 198.858 152.813 197.522C152.886 196.187 153.487 194.935 154.484 194.043C155.48 193.15 156.79 192.69 158.126 192.764C159.461 192.837 160.713 193.438 161.605 194.435L170.524 204.396L181.303 216.442Z" fill="#F9EE9D"/>
<path id="Vector_154" d="M187.094 238.457C185.34 238.729 183.557 238.764 181.794 238.561C180.557 238.42 179.337 238.16 178.149 237.785L178.244 237.682L182.165 232.951L187.094 238.457Z" fill="#6969A3"/>
<path id="Vector_155" d="M230.108 170.05L213.96 191.841L211.005 195.831L201.242 208.997C203.561 213.039 204.382 217.77 203.559 222.357C202.736 226.945 200.323 231.095 196.744 234.08L187.929 224.231C188.1 222.734 187.783 221.221 187.026 219.918C186.269 218.615 185.112 217.59 183.726 216.997C182.34 216.404 180.8 216.274 179.335 216.625C177.869 216.977 176.556 217.792 175.59 218.949L172.919 222.18C170.472 225.136 167.206 229.074 167.146 229.177C164.839 225.416 163.862 220.989 164.371 216.606C164.496 215.509 164.715 214.425 165.026 213.366C166.326 208.865 169.177 204.971 173.075 202.373C176.972 199.775 181.664 198.642 186.318 199.174C187.109 199.267 187.895 199.405 188.67 199.588L191.359 195.951L194.142 192.212L195.426 190.488L198.33 186.576L199.329 185.224L202.776 180.545L217.476 160.726C218.716 159.054 220.569 157.942 222.629 157.636C224.688 157.329 226.785 157.854 228.458 159.094C230.131 160.333 231.242 162.187 231.549 164.246C231.855 166.306 231.33 168.403 230.091 170.076L230.108 170.05Z" fill="#6969A3"/>
<path id="Vector_156" d="M194.437 197.166C196.21 196.475 196.394 192.701 194.848 188.737C193.302 184.774 190.611 182.121 188.838 182.813C187.064 183.505 186.88 187.279 188.426 191.242C189.972 195.206 192.663 197.858 194.437 197.166Z" fill="#46D6FA"/>
<path id="Vector_157" d="M214.54 188.356C214.771 184.108 213.417 180.58 211.516 180.477C209.616 180.374 207.888 183.734 207.657 187.982C207.426 192.23 208.78 195.758 210.68 195.861C212.581 195.964 214.309 192.604 214.54 188.356Z" fill="#46D6FA"/>
<path id="Vector_158" d="M234.977 242.338C237.566 240.994 234.014 229.027 227.045 215.61C220.076 202.194 212.327 192.408 209.738 193.752C207.15 195.097 210.701 207.064 217.67 220.48C224.64 233.897 232.388 243.683 234.977 242.338Z" fill="#46D6FA"/>
<path id="Vector_159" d="M363.106 231.667C347.837 222.62 345.976 227.747 325.279 228.031L314.939 228.6C314.077 229.462 331.104 231.642 343.288 231.978C347.596 232.098 352.292 233.83 353.55 234.847C357.677 238.199 365.269 237.044 367.337 236.096C369.043 235.286 363.769 232.064 363.106 231.667Z" fill="#6969A3"/>
<path id="Vector_160" d="M639.198 359.655C641.125 361.807 644.432 361.99 646.584 360.063C648.736 358.136 648.918 354.83 646.992 352.678L575.92 273.3C573.994 271.148 570.687 270.966 568.535 272.893C566.383 274.82 566.2 278.126 568.127 280.278L639.198 359.655Z" fill="#F9EE9D"/>
</g>
</g>
</g>
<defs>
<clipPath id="clip0">
<rect width="700" height="395.78" fill="white"/>
</clipPath>
</defs>
</svg>
