<svg width="700" height="344" viewBox="0 0 700 344" fill="none" xmlns="http://www.w3.org/2000/svg">
<g id="404pink 1">
<g clip-path="url(#clip0)">
<g id="Layer 2">
<g id="404">
<g id="DNA" opacity="0.6">
<path id="Vector" opacity="0.9" d="M110.726 49.6564C115.73 96.6658 129.761 141.715 167.412 175.352C168.743 176.546 170.001 177.819 171.18 179.164C207.898 220.887 281.052 238.7 328.546 208.621C330.202 207.598 331.922 206.682 333.695 205.88C351.125 197.772 354.792 185.991 386.223 179.945C444.536 168.721 486.599 203.811 519.86 246.539C544.652 278.361 569.553 318.674 617.278 340.045C642.273 351.24 631.591 332.321 624.301 327.15C526.955 258.053 531.005 226.933 500.044 200.788C445.303 154.553 380.661 143.827 326.007 186.859C323.872 188.538 321.593 190.024 319.195 191.3C246.149 230.108 180.77 190.048 146.344 126.209C145.279 124.22 144.365 122.153 143.611 120.026C132.892 90.3738 122.558 50.2277 125.53 19.9102C127.635 -1.52611 115.506 -7.76029 111.203 11.7884C110.49 15.1149 110.16 18.512 110.219 21.9135C110.292 28.032 110.436 40.2255 110.494 45.2302C110.487 46.7056 110.567 48.181 110.726 49.6564Z" fill="#B6F2B6"/>
<path id="Vector_2" opacity="0.6" d="M621.343 205.527L621.336 205.527C618.782 205.252 616.49 207.1 616.215 209.654L603.897 324.355C603.622 326.909 605.47 329.201 608.024 329.476L608.031 329.476C610.584 329.751 612.877 327.903 613.151 325.349L625.47 210.648C625.744 208.094 623.896 205.802 621.343 205.527Z" fill="#FCEE21"/>
<path id="Vector_3" opacity="0.6" d="M598.638 221.809L598.631 221.808C596.077 221.534 593.785 223.382 593.51 225.935L584.9 306.107C584.626 308.66 586.474 310.953 589.027 311.227L589.035 311.228C591.588 311.502 593.881 309.654 594.155 307.1L602.765 226.929C603.039 224.376 601.192 222.083 598.638 221.809Z" fill="#FCEE21"/>
<path id="Vector_4" opacity="0.6" d="M579.252 231.016L579.244 231.016C576.691 230.741 574.398 232.589 574.124 235.143L568.044 291.757C567.77 294.31 569.617 296.603 572.171 296.877L572.178 296.878C574.732 297.152 577.024 295.304 577.298 292.75L583.379 236.137C583.653 233.583 581.805 231.291 579.252 231.016Z" fill="#FCEE21"/>
<path id="Vector_5" opacity="0.6" d="M558.063 243.918L558.056 243.917C555.502 243.643 553.21 245.491 552.935 248.044L550.661 269.221C550.387 271.775 552.234 274.068 554.788 274.342L554.795 274.343C557.349 274.617 559.641 272.769 559.916 270.215L562.19 249.038C562.464 246.485 560.616 244.192 558.063 243.918Z" fill="#FCEE21"/>
<path id="Vector_6" opacity="0.6" d="M412.376 167.241L412.369 167.24C409.815 166.966 407.523 168.814 407.248 171.367L398.206 255.558C397.932 258.111 399.78 260.404 402.333 260.678L402.341 260.679C404.894 260.953 407.187 259.105 407.461 256.552L416.503 172.361C416.777 169.807 414.929 167.515 412.376 167.241Z" fill="#FCEE21"/>
<path id="Vector_7" opacity="0.6" d="M432.618 166.923L432.611 166.922C430.057 166.648 427.765 168.495 427.491 171.049L418.167 257.864C417.893 260.418 419.74 262.71 422.294 262.985L422.301 262.986C424.855 263.26 427.147 261.412 427.422 258.858L436.745 172.043C437.02 169.489 435.172 167.197 432.618 166.923Z" fill="#FCEE21"/>
<path id="Vector_8" opacity="0.6" d="M449.162 180.461L449.155 180.46C446.612 180.178 444.322 182.01 444.04 184.553L435.498 261.428C435.215 263.971 437.048 266.261 439.59 266.544L439.597 266.545C442.14 266.827 444.43 264.995 444.713 262.452L453.255 185.576C453.537 183.034 451.705 180.744 449.162 180.461Z" fill="#FCEE21"/>
<path id="Vector_9" opacity="0.6" d="M393.97 168.531L393.962 168.531C391.409 168.256 389.116 170.104 388.842 172.658L380.511 250.226C380.237 252.779 382.085 255.072 384.638 255.346L384.646 255.347C387.199 255.621 389.492 253.773 389.766 251.22L398.097 173.652C398.371 171.098 396.523 168.806 393.97 168.531Z" fill="#FCEE21"/>
<path id="Vector_10" opacity="0.6" d="M374.288 176.579L374.281 176.578C371.728 176.304 369.435 178.152 369.161 180.706L363.51 233.321C363.236 235.875 365.084 238.167 367.637 238.441L367.644 238.442C370.198 238.716 372.49 236.869 372.765 234.315L378.416 181.699C378.69 179.146 376.842 176.853 374.288 176.579Z" fill="#FCEE21"/>
<path id="Vector_11" opacity="0.6" d="M354.864 183.09L354.856 183.09C352.303 182.815 350.01 184.663 349.736 187.217L346.702 215.47C346.428 218.023 348.275 220.316 350.829 220.59L350.836 220.591C353.39 220.865 355.682 219.017 355.956 216.464L358.991 188.211C359.265 185.657 357.417 183.365 354.864 183.09Z" fill="#FCEE21"/>
<path id="Vector_12" opacity="0.6" d="M459.723 266.198L459.73 266.199C462.275 266.547 464.62 264.766 464.968 262.221L474.255 194.336C474.603 191.791 472.823 189.446 470.278 189.098L470.271 189.097C467.726 188.749 465.381 190.529 465.033 193.074L455.746 260.96C455.398 263.504 457.178 265.849 459.723 266.198Z" fill="#FCEE21"/>
<path id="Vector_13" opacity="0.6" d="M480.89 264.919L480.897 264.92C483.442 265.269 485.787 263.488 486.135 260.943L493.366 208.084C493.714 205.539 491.934 203.194 489.389 202.846L489.382 202.845C486.837 202.497 484.492 204.277 484.144 206.822L476.913 259.682C476.565 262.226 478.345 264.571 480.89 264.919Z" fill="#FCEE21"/>
<path id="Vector_14" opacity="0.6" d="M500.447 256.531L500.455 256.532C502.997 256.892 505.35 255.122 505.709 252.58L509.966 222.479C510.326 219.937 508.556 217.584 506.013 217.224L506.006 217.223C503.463 216.864 501.111 218.634 500.751 221.176L496.495 251.276C496.135 253.819 497.905 256.172 500.447 256.531Z" fill="#FCEE21"/>
<path id="Vector_15" opacity="0.6" d="M222.252 123.758L222.245 123.757C219.726 123.254 217.277 124.888 216.774 127.407L203.391 194.443C202.888 196.962 204.522 199.411 207.041 199.914L207.048 199.915C209.567 200.418 212.016 198.784 212.519 196.265L225.902 129.229C226.405 126.71 224.771 124.261 222.252 123.758Z" fill="#FCEE21"/>
<path id="Vector_16" opacity="0.6" d="M239.842 124.484L239.835 124.483C237.316 123.98 234.867 125.614 234.364 128.133L219.124 204.474C218.621 206.992 220.255 209.442 222.774 209.945L222.781 209.946C225.299 210.449 227.749 208.815 228.251 206.296L243.492 129.955C243.995 127.436 242.361 124.987 239.842 124.484Z" fill="#FCEE21"/>
<path id="Vector_17" opacity="0.6" d="M115.577 17.36L115.572 17.3548C113.784 15.5108 110.84 15.465 108.996 17.2527L53.101 71.4376C51.2569 73.2253 51.2112 76.1693 52.9988 78.0134L53.0039 78.0186C54.7915 79.8626 57.7356 79.9084 59.5796 78.1207L115.475 23.9358C117.319 22.1481 117.364 19.2041 115.577 17.36Z" fill="#FCEE21"/>
<path id="Vector_18" opacity="0.6" d="M120.716 37.0319L120.711 37.0267C118.924 35.1826 115.979 35.1369 114.135 36.9245L58.2404 91.1095C56.3964 92.8971 56.3506 95.8412 58.1383 97.6853L58.1433 97.6904C59.9309 99.5345 62.875 99.5802 64.719 97.7926L120.614 43.6076C122.458 41.82 122.504 38.8759 120.716 37.0319Z" fill="#FCEE21"/>
<path id="Vector_19" opacity="0.6" d="M119.845 61.5607L119.84 61.5558C117.952 59.814 115.01 59.9322 113.269 61.8197L77.4994 100.582C75.7577 102.47 75.8759 105.412 77.7634 107.154L77.7687 107.159C79.6562 108.9 82.5982 108.782 84.3399 106.895L120.109 68.1319C121.851 66.2444 121.733 63.3024 119.845 61.5607Z" fill="#FCEE21"/>
<path id="Vector_20" opacity="0.6" d="M126.232 82.4689L126.227 82.464C124.34 80.7222 121.398 80.8404 119.656 82.7279L92.298 112.375C90.5563 114.263 90.6745 117.205 92.562 118.947L92.5673 118.952C94.4548 120.693 97.3968 120.575 99.1385 118.688L126.496 89.0401C128.238 87.1526 128.12 84.2106 126.232 82.4689Z" fill="#FCEE21"/>
<path id="Vector_21" opacity="0.6" d="M131.056 103.765L131.051 103.76C129.164 102.018 126.222 102.136 124.48 104.024L109.746 119.99C108.005 121.878 108.123 124.82 110.01 126.561L110.016 126.566C111.903 128.308 114.845 128.19 116.587 126.302L131.32 110.336C133.062 108.448 132.944 105.506 131.056 103.765Z" fill="#FCEE21"/>
<path id="Vector_22" opacity="0.6" d="M255.88 133.077L255.873 133.075C253.354 132.573 250.905 134.207 250.402 136.725L235.905 209.343C235.402 211.862 237.036 214.311 239.554 214.814L239.562 214.815C242.08 215.318 244.529 213.684 245.032 211.165L259.53 138.548C260.032 136.029 258.398 133.58 255.88 133.077Z" fill="#FCEE21"/>
<path id="Vector_23" opacity="0.6" d="M204.439 127.88L204.432 127.878C201.914 127.375 199.464 129.009 198.961 131.528L188.196 185.451C187.694 187.969 189.328 190.419 191.846 190.921L191.853 190.923C194.372 191.426 196.821 189.792 197.324 187.273L208.089 133.35C208.592 130.832 206.958 128.382 204.439 127.88Z" fill="#FCEE21"/>
<path id="Vector_24" opacity="0.6" d="M187.878 132.134L187.871 132.133C185.353 131.63 182.903 133.264 182.4 135.782L175.056 172.57C174.553 175.089 176.187 177.538 178.706 178.041L178.713 178.042C181.232 178.545 183.681 176.911 184.184 174.392L191.528 137.605C192.031 135.086 190.397 132.637 187.878 132.134Z" fill="#FCEE21"/>
<path id="Vector_25" opacity="0.6" d="M170.273 135.544L170.266 135.543C167.748 135.04 165.298 136.674 164.796 139.193L161.192 157.243C160.689 159.761 162.324 162.211 164.842 162.713L164.849 162.715C167.368 163.218 169.817 161.584 170.32 159.065L173.923 141.015C174.426 138.497 172.792 136.047 170.273 135.544Z" fill="#FCEE21"/>
<path id="Vector_26" opacity="0.6" d="M256.183 216.265L256.19 216.267C258.693 216.842 261.189 215.28 261.764 212.777L276.52 148.609C277.095 146.106 275.533 143.611 273.03 143.035L273.023 143.033C270.52 142.458 268.024 144.02 267.448 146.523L252.693 210.691C252.118 213.194 253.68 215.69 256.183 216.265Z" fill="#FCEE21"/>
<path id="Vector_27" opacity="0.6" d="M274.53 215.177L274.537 215.178C277.04 215.754 279.536 214.191 280.111 211.688L291.283 163.105C291.859 160.602 290.296 158.106 287.793 157.53L287.786 157.529C285.283 156.953 282.787 158.516 282.212 161.019L271.04 209.603C270.465 212.105 272.027 214.601 274.53 215.177Z" fill="#FCEE21"/>
<path id="Vector_28" opacity="0.6" d="M292.09 211.118L292.097 211.119C294.6 211.695 297.096 210.132 297.672 207.629L303.685 181.48C304.26 178.977 302.698 176.482 300.195 175.906L300.188 175.904C297.685 175.329 295.189 176.891 294.613 179.394L288.6 205.543C288.025 208.046 289.587 210.542 292.09 211.118Z" fill="#FCEE21"/>
<path id="Vector_29" opacity="0.9" d="M43.1259 82.9898C66.6885 125.175 114.725 148.044 161.011 141.173C196.377 135.93 210.769 126.709 247.834 136.653C304.347 151.841 289.195 206.155 377.602 256.896C425.045 284.132 545.874 266.97 608.91 224.575C624.373 214.175 644.883 201.931 659.572 189.947C660.568 189.141 661.288 188.045 661.633 186.812C661.978 185.578 661.93 184.267 661.496 183.062L661.431 182.889C661.106 181.999 660.579 181.197 659.893 180.545C659.207 179.892 658.38 179.407 657.475 179.127C656.571 178.847 655.614 178.78 654.679 178.931C653.745 179.081 652.857 179.446 652.087 179.996L619.238 203.312C568.222 236.067 526.723 243.314 462.139 253.612C440.276 257.091 381.327 246.85 366.052 230.997C291.054 153.186 284.328 130.99 254.676 123.765C174.948 104.31 155.291 154.864 83.2214 104.961C82.9314 104.757 82.6581 104.529 82.4042 104.281C79.9452 101.88 66.3414 88.5803 63.6727 85.9622C63.3637 85.6639 63.0895 85.3315 62.8555 84.9714C43.8926 56.4113 31.699 62.631 43.1259 82.9898Z" fill="#B6F2B6"/>
</g>
<g id="spirale2">
<path id="Vector_30" d="M204.173 248.853C217.705 225.848 243.227 211.246 280.415 226.246C307.109 236.985 384.465 334.085 444.825 259.058C458.024 242.648 469.155 220.821 476.343 201.598C476.638 200.982 477.148 200.495 477.776 200.229C478.405 199.962 479.11 199.935 479.757 200.152L482.079 200.803C482.404 200.864 482.713 200.996 482.984 201.187C483.254 201.379 483.481 201.626 483.647 201.913C483.814 202.2 483.917 202.519 483.95 202.849C483.982 203.179 483.943 203.512 483.836 203.826C483.836 203.826 474.796 226.13 474.767 226.188C424.785 327.338 359.138 308.013 283.836 237.267C283.633 237.079 276.481 233.593 276.213 233.485C251.407 223.36 231.316 231.785 215.679 246.431C207.587 254.01 209.973 257.604 204.108 250.77C203.918 250.484 203.822 250.145 203.833 249.801C203.845 249.458 203.964 249.126 204.173 248.853Z" fill="#D7D7F4"/>
<path id="Vector_31" opacity="0.9" d="M218.674 260.779L219.071 260.418C219.413 260.116 219.691 259.749 219.888 259.338C220.085 258.927 220.198 258.48 220.219 258.024C220.239 257.569 220.169 257.114 220.01 256.686C219.851 256.259 219.608 255.868 219.296 255.536L213.083 248.919C212.439 248.245 211.559 247.847 210.628 247.807C209.697 247.766 208.786 248.087 208.086 248.702L207.681 249.063C207.339 249.364 207.061 249.731 206.864 250.142C206.667 250.553 206.555 250.999 206.535 251.454C206.514 251.91 206.586 252.364 206.746 252.791C206.905 253.218 207.15 253.608 207.464 253.938L213.669 260.555C214.313 261.232 215.193 261.633 216.126 261.674C217.059 261.716 217.972 261.395 218.674 260.779Z" fill="#B6F2B6"/>
<path id="Vector_32" opacity="0.9" d="M230.78 248.456L231.25 248.188C231.65 247.967 232.001 247.669 232.283 247.309C232.564 246.95 232.771 246.538 232.891 246.098C233.01 245.657 233.04 245.197 232.978 244.745C232.916 244.293 232.764 243.858 232.53 243.465L227.909 235.713C227.419 234.921 226.642 234.35 225.741 234.117C224.84 233.884 223.883 234.007 223.071 234.461L222.593 234.729C222.195 234.95 221.845 235.248 221.564 235.607C221.283 235.965 221.076 236.376 220.957 236.816C220.838 237.256 220.808 237.715 220.869 238.166C220.93 238.618 221.081 239.052 221.313 239.444L225.942 247.197C226.431 247.99 227.207 248.563 228.109 248.797C229.01 249.032 229.967 248.909 230.78 248.456Z" fill="#B6F2B6"/>
<path id="Vector_33" opacity="0.9" d="M243.495 243.509L244.015 243.364C244.457 243.247 244.871 243.043 245.233 242.764C245.596 242.485 245.899 242.137 246.125 241.74C246.351 241.343 246.496 240.905 246.551 240.451C246.606 239.997 246.57 239.537 246.445 239.097L243.914 230.476C243.64 229.586 243.027 228.838 242.207 228.395C241.388 227.951 240.427 227.847 239.531 228.104L239.011 228.249C238.568 228.365 238.154 228.568 237.791 228.847C237.428 229.126 237.125 229.474 236.898 229.871C236.672 230.269 236.527 230.707 236.473 231.161C236.418 231.616 236.455 232.076 236.581 232.516L239.112 241.137C239.388 242.026 240.001 242.772 240.82 243.215C241.639 243.659 242.599 243.764 243.495 243.509Z" fill="#B6F2B6"/>
<path id="Vector_34" opacity="0.9" d="M268.424 242.749L268.967 242.822C269.887 242.948 270.819 242.706 271.561 242.147C272.304 241.589 272.795 240.761 272.93 239.842L274.101 230.954C274.156 230.499 274.12 230.037 273.995 229.596C273.871 229.155 273.66 228.743 273.376 228.383C273.092 228.024 272.739 227.724 272.339 227.501C271.938 227.278 271.498 227.136 271.042 227.084L270.5 227.012C269.58 226.886 268.647 227.128 267.905 227.686C267.163 228.244 266.671 229.073 266.537 229.992L265.358 238.88C265.303 239.336 265.34 239.798 265.465 240.239C265.59 240.681 265.801 241.093 266.086 241.453C266.371 241.813 266.724 242.112 267.125 242.335C267.527 242.557 267.968 242.698 268.424 242.749Z" fill="#B6F2B6"/>
<path id="Vector_35" opacity="0.9" d="M284.95 254.61L285.384 254.936C286.134 255.489 287.069 255.73 287.994 255.61C288.918 255.49 289.76 255.018 290.345 254.292L295.921 247.168C296.203 246.81 296.41 246.399 296.53 245.959C296.649 245.519 296.679 245.059 296.617 244.608C296.554 244.156 296.402 243.722 296.168 243.33C295.934 242.939 295.624 242.599 295.256 242.33L294.822 242.004C294.071 241.452 293.136 241.21 292.212 241.33C291.287 241.45 290.445 241.922 289.86 242.648L284.284 249.772C284.002 250.13 283.795 250.541 283.676 250.981C283.556 251.421 283.527 251.881 283.589 252.332C283.651 252.784 283.804 253.219 284.037 253.61C284.271 254.001 284.582 254.342 284.95 254.61Z" fill="#B6F2B6"/>
<path id="Vector_36" opacity="0.9" d="M301.092 268.163L301.526 268.482C302.276 269.035 303.211 269.276 304.136 269.156C305.06 269.036 305.903 268.564 306.487 267.838L312.063 260.721C312.345 260.362 312.551 259.95 312.67 259.51C312.789 259.07 312.818 258.61 312.756 258.158C312.694 257.706 312.542 257.271 312.309 256.879C312.075 256.487 311.766 256.146 311.398 255.876L310.964 255.558C310.214 255.005 309.279 254.763 308.354 254.883C307.43 255.003 306.587 255.475 306.003 256.201L300.427 263.318C300.145 263.677 299.939 264.089 299.82 264.529C299.701 264.97 299.672 265.43 299.734 265.881C299.796 266.333 299.948 266.768 300.181 267.16C300.415 267.552 300.724 267.893 301.092 268.163Z" fill="#B6F2B6"/>
<path id="Vector_37" opacity="0.9" d="M317.885 280.791L318.319 281.116C319.07 281.669 320.005 281.911 320.929 281.791C321.854 281.671 322.696 281.199 323.281 280.473L328.857 273.349C329.137 272.99 329.343 272.578 329.461 272.138C329.58 271.698 329.608 271.239 329.546 270.787C329.483 270.336 329.33 269.902 329.096 269.511C328.862 269.119 328.552 268.779 328.184 268.511L327.75 268.185C327 267.632 326.065 267.391 325.14 267.511C324.216 267.63 323.373 268.103 322.789 268.829L317.22 275.953C316.938 276.311 316.731 276.722 316.611 277.162C316.492 277.602 316.462 278.061 316.525 278.513C316.587 278.965 316.739 279.399 316.973 279.791C317.207 280.182 317.517 280.522 317.885 280.791Z" fill="#B6F2B6"/>
<path id="Vector_38" opacity="0.9" d="M335.807 291.314L336.241 291.639C336.992 292.191 337.928 292.432 338.852 292.311C339.777 292.189 340.618 291.716 341.202 290.988L346.778 283.872C347.06 283.513 347.266 283.102 347.385 282.661C347.504 282.221 347.533 281.761 347.47 281.31C347.407 280.858 347.254 280.424 347.02 280.033C346.785 279.642 346.474 279.302 346.105 279.034L345.672 278.708C344.921 278.155 343.986 277.914 343.062 278.033C342.137 278.153 341.295 278.626 340.71 279.352L335.141 286.468C334.859 286.827 334.652 287.239 334.533 287.679C334.413 288.12 334.383 288.58 334.445 289.032C334.508 289.485 334.66 289.92 334.894 290.312C335.128 290.704 335.438 291.044 335.807 291.314Z" fill="#B6F2B6"/>
<path id="Vector_39" opacity="0.9" d="M357.72 300.354L358.227 300.549C359.096 300.884 360.062 300.87 360.921 300.51C361.781 300.151 362.469 299.473 362.841 298.618L366.334 290.28C366.511 289.859 366.602 289.408 366.601 288.952C366.6 288.496 366.507 288.044 366.327 287.625C366.147 287.206 365.885 286.827 365.556 286.511C365.226 286.196 364.837 285.95 364.41 285.788L363.911 285.586C363.04 285.252 362.074 285.267 361.215 285.628C360.355 285.989 359.668 286.668 359.297 287.524L355.825 295.863C355.649 296.282 355.559 296.731 355.559 297.185C355.559 297.64 355.65 298.089 355.827 298.508C356.004 298.926 356.262 299.305 356.587 299.622C356.912 299.939 357.298 300.188 357.72 300.354Z" fill="#B6F2B6"/>
<path id="Vector_40" opacity="0.9" d="M420.822 301.121L421.328 300.918C421.753 300.751 422.14 300.5 422.467 300.181C422.794 299.861 423.053 299.48 423.23 299.059C423.408 298.638 423.499 298.185 423.499 297.728C423.499 297.272 423.407 296.819 423.23 296.398L419.693 288.125C419.308 287.278 418.611 286.612 417.748 286.266C416.884 285.92 415.921 285.92 415.057 286.266L414.558 286.468C414.133 286.634 413.745 286.884 413.418 287.202C413.09 287.521 412.83 287.902 412.652 288.322C412.474 288.743 412.382 289.195 412.382 289.651C412.381 290.108 412.472 290.56 412.649 290.981L416.193 299.255C416.568 300.109 417.263 300.781 418.127 301.13C418.992 301.479 419.959 301.475 420.822 301.121Z" fill="#B6F2B6"/>
<path id="Vector_41" opacity="0.9" d="M399.646 305.554L400.181 305.431C400.627 305.334 401.048 305.149 401.422 304.886C401.795 304.624 402.112 304.289 402.354 303.903C402.595 303.516 402.758 303.084 402.83 302.634C402.903 302.184 402.885 301.723 402.777 301.28L400.607 292.543C400.362 291.647 399.781 290.88 398.986 290.401C398.19 289.921 397.24 289.767 396.333 289.969L395.805 290.092C395.358 290.187 394.935 290.371 394.561 290.633C394.186 290.895 393.868 291.229 393.625 291.616C393.382 292.004 393.22 292.436 393.147 292.887C393.074 293.338 393.093 293.799 393.202 294.243L395.371 302.979C395.607 303.881 396.186 304.656 396.984 305.137C397.783 305.618 398.738 305.767 399.646 305.554Z" fill="#B6F2B6"/>
<path id="Vector_42" opacity="0.9" d="M378.086 306.928L378.629 306.986C379.083 307.037 379.543 306.997 379.981 306.867C380.419 306.737 380.827 306.521 381.18 306.231C381.533 305.941 381.825 305.583 382.038 305.179C382.25 304.775 382.38 304.332 382.419 303.876L383.142 294.908C383.197 293.98 382.893 293.066 382.292 292.357C381.692 291.647 380.841 291.196 379.916 291.097L379.374 291.046C378.92 290.994 378.461 291.034 378.022 291.163C377.584 291.292 377.176 291.507 376.823 291.796C376.47 292.086 376.178 292.443 375.965 292.847C375.752 293.251 375.623 293.694 375.584 294.149L374.861 303.124C374.796 304.054 375.097 304.972 375.7 305.682C376.303 306.393 377.159 306.84 378.086 306.928Z" fill="#B6F2B6"/>
<path id="Vector_43" opacity="0.9" d="M436.009 293.99L436.487 293.722C436.885 293.501 437.235 293.203 437.516 292.844C437.797 292.486 438.004 292.075 438.123 291.635C438.242 291.195 438.272 290.736 438.211 290.285C438.15 289.833 437.999 289.399 437.767 289.007L433.138 281.254C432.649 280.461 431.873 279.888 430.971 279.654C430.07 279.419 429.113 279.542 428.3 279.995L427.83 280.263C427.43 280.484 427.079 280.783 426.797 281.142C426.516 281.501 426.309 281.913 426.189 282.353C426.07 282.794 426.04 283.254 426.102 283.706C426.164 284.158 426.316 284.593 426.549 284.986L431.171 292.739C431.661 293.53 432.438 294.101 433.339 294.334C434.24 294.567 435.197 294.444 436.009 293.99Z" fill="#B6F2B6"/>
<path id="Vector_44" opacity="0.9" d="M446.85 283.778L447.321 283.51C447.72 283.289 448.071 282.991 448.353 282.632C448.635 282.273 448.841 281.86 448.961 281.42C449.08 280.979 449.11 280.519 449.048 280.067C448.986 279.615 448.834 279.18 448.601 278.788L443.979 271.035C443.489 270.242 442.711 269.669 441.808 269.435C440.905 269.202 439.947 269.327 439.134 269.783L438.664 270.051C438.264 270.272 437.913 270.571 437.631 270.93C437.35 271.289 437.143 271.701 437.023 272.141C436.904 272.582 436.874 273.042 436.936 273.494C436.998 273.946 437.15 274.381 437.383 274.774L442.005 282.527C442.495 283.32 443.273 283.893 444.176 284.126C445.079 284.359 446.037 284.234 446.85 283.778Z" fill="#B6F2B6"/>
<path id="Vector_45" opacity="0.9" d="M476.524 244.095L476.85 243.675C477.132 243.317 477.339 242.906 477.458 242.466C477.578 242.026 477.607 241.566 477.545 241.115C477.483 240.663 477.331 240.229 477.097 239.837C476.863 239.446 476.553 239.106 476.184 238.837L468.88 233.391C468.129 232.838 467.194 232.596 466.27 232.716C465.345 232.836 464.503 233.309 463.919 234.035L463.586 234.454C463.305 234.813 463.098 235.225 462.979 235.666C462.86 236.106 462.831 236.566 462.893 237.018C462.955 237.47 463.107 237.905 463.341 238.296C463.574 238.688 463.884 239.03 464.251 239.3L471.541 244.746C472.294 245.304 473.235 245.549 474.164 245.427C475.094 245.306 475.94 244.828 476.524 244.095Z" fill="#B6F2B6"/>
<path id="Vector_46" opacity="0.9" d="M461.047 269.972L461.452 269.61C461.791 269.306 462.064 268.936 462.257 268.524C462.449 268.111 462.557 267.664 462.573 267.21C462.589 266.755 462.514 266.301 462.351 265.876C462.188 265.451 461.942 265.063 461.626 264.736L455.363 258.19C454.713 257.52 453.829 257.127 452.897 257.093C451.964 257.06 451.054 257.388 450.358 258.01L449.96 258.378C449.62 258.682 449.345 259.051 449.151 259.463C448.958 259.876 448.849 260.323 448.833 260.779C448.817 261.234 448.893 261.688 449.057 262.113C449.221 262.539 449.469 262.926 449.787 263.253L456.043 269.827C456.697 270.492 457.583 270.879 458.516 270.906C459.449 270.933 460.356 270.598 461.047 269.972Z" fill="#B6F2B6"/>
<path id="Vector_47" opacity="0.9" d="M487.329 227.938L487.619 227.489C487.869 227.109 488.039 226.681 488.121 226.233C488.203 225.784 488.193 225.324 488.093 224.88C487.993 224.435 487.805 224.015 487.54 223.645C487.274 223.274 486.937 222.961 486.548 222.723L478.773 217.885C477.981 217.396 477.031 217.231 476.12 217.425C475.209 217.619 474.409 218.157 473.884 218.927L473.588 219.375C473.338 219.756 473.168 220.184 473.087 220.633C473.006 221.081 473.016 221.542 473.116 221.986C473.217 222.431 473.406 222.851 473.672 223.221C473.938 223.591 474.276 223.904 474.666 224.141L482.404 228.979C483.199 229.48 484.158 229.651 485.078 229.456C485.997 229.262 486.805 228.717 487.329 227.938Z" fill="#B6F2B6"/>
<path id="Vector_48" opacity="0.9" d="M491.56 209.141L491.777 208.628C491.961 208.191 492.055 207.722 492.054 207.249C492.053 206.775 491.957 206.307 491.771 205.871C491.586 205.435 491.315 205.041 490.974 204.712C490.633 204.383 490.23 204.126 489.788 203.956L481.543 200.694C480.643 200.336 479.639 200.343 478.744 200.713C477.849 201.083 477.133 201.787 476.748 202.676L476.531 203.182C476.349 203.619 476.256 204.088 476.258 204.562C476.26 205.036 476.357 205.504 476.543 205.94C476.729 206.375 477 206.769 477.341 207.098C477.682 207.427 478.085 207.684 478.527 207.854L486.765 211.116C487.664 211.476 488.668 211.471 489.564 211.103C490.459 210.734 491.175 210.03 491.56 209.141Z" fill="#B6F2B6"/>
</g>
<g id="spirale 1">
<path id="Vector_49" d="M5.26509 249.787C1.6996 247.921 -1.69231 252.325 0.925755 255.399C15.1298 272.069 42.8799 285.564 61.474 285.673C75.5696 285.738 116.96 264.215 128.734 254.712C166.876 223.902 202.705 208.491 233.832 254.965C237.159 259.919 235.395 274.6 241.484 274.022C242.088 273.946 242.671 273.747 243.195 273.436C243.718 273.125 244.173 272.71 244.529 272.216C244.885 271.722 245.136 271.16 245.265 270.565C245.395 269.969 245.4 269.354 245.281 268.757C244.362 263.448 239.727 252.578 239.64 252.441C227.128 231.033 207.377 215.238 182.881 216.952C161.481 218.442 143.343 233.673 129.565 244.767C129.471 244.847 129.37 244.912 129.269 244.984C109.67 257.597 85.6296 276.806 61.879 277.197C31.4313 277.717 15.1877 254.943 5.26509 249.787Z" fill="#FCDEDE"/>
<path id="Vector_50" d="M258.914 257.25L258.755 256.614C258.489 255.515 257.806 254.563 256.85 253.961C255.893 253.359 254.74 253.153 253.634 253.388L243.726 255.616C243.188 255.74 242.679 255.971 242.231 256.294C241.782 256.617 241.402 257.026 241.113 257.497C240.823 257.968 240.63 258.491 240.545 259.038C240.46 259.584 240.484 260.141 240.616 260.678L240.775 261.322C241.042 262.419 241.727 263.369 242.683 263.97C243.639 264.571 244.791 264.775 245.896 264.54L255.789 262.313C256.329 262.189 256.839 261.96 257.289 261.638C257.74 261.316 258.121 260.907 258.412 260.436C258.703 259.965 258.897 259.44 258.983 258.893C259.069 258.346 259.046 257.788 258.914 257.25Z" fill="#F9EE9D"/>
<path id="Vector_51" d="M121.563 248.347C123.116 250.306 125.964 250.635 127.923 249.082C129.883 247.528 130.212 244.681 128.658 242.721L122.552 235.02C120.998 233.061 118.151 232.732 116.191 234.285C114.232 235.839 113.903 238.686 115.457 240.645L121.563 248.347Z" fill="#F9EE9D"/>
<path id="Vector_52" d="M72.6983 259.34L72.1053 259.608C71.6004 259.842 71.1471 260.173 70.7714 260.584C70.3958 260.994 70.1053 261.475 69.917 261.998C69.7286 262.522 69.646 263.077 69.674 263.633C69.7021 264.188 69.8401 264.733 70.0802 265.235L74.4196 274.557C74.8845 275.589 75.7378 276.395 76.7941 276.802C77.8503 277.208 79.0242 277.181 80.0607 276.727L80.6537 276.459C81.1586 276.225 81.6119 275.894 81.9876 275.483C82.3632 275.073 82.6537 274.592 82.842 274.069C83.0304 273.545 83.113 272.99 83.085 272.434C83.0569 271.879 82.9189 271.334 82.6788 270.832L78.3394 261.51C77.8745 260.478 77.0212 259.672 75.9649 259.265C74.9087 258.859 73.7348 258.886 72.6983 259.34Z" fill="#F9EE9D"/>
<path id="Vector_53" d="M54.6467 261.655L53.9958 261.604C53.4436 261.556 52.8874 261.619 52.3601 261.789C51.8328 261.96 51.3452 262.235 50.9263 262.598C50.5073 262.961 50.1656 263.405 49.9214 263.902C49.6772 264.4 49.5354 264.941 49.5046 265.495L48.8682 275.678C48.798 276.81 49.1744 277.926 49.9166 278.784C50.6588 279.642 51.7078 280.176 52.8387 280.27L53.4896 280.321C54.0417 280.369 54.598 280.306 55.1253 280.135C55.6526 279.964 56.1402 279.689 56.5591 279.326C56.978 278.964 57.3198 278.52 57.564 278.023C57.8082 277.525 57.9499 276.983 57.9808 276.43L58.6172 266.247C58.6873 265.114 58.3109 263.999 57.5688 263.141C56.8266 262.282 55.7776 261.749 54.6467 261.655Z" fill="#F9EE9D"/>
<path id="Vector_54" d="M40.1605 256.672L39.5819 256.346C39.1027 256.066 38.5725 255.885 38.0223 255.812C37.4721 255.739 36.9129 255.777 36.3775 255.923C35.8421 256.07 35.3412 256.321 34.9042 256.663C34.4671 257.005 34.1027 257.431 33.8323 257.916L28.9288 266.782C28.4051 267.776 28.2872 268.935 28.6002 270.014C28.9131 271.093 29.6324 272.009 30.6067 272.568L31.1853 272.894C31.6659 273.179 32.1991 273.366 32.7532 273.441C33.3072 273.517 33.8709 273.481 34.4106 273.334C34.9503 273.188 35.455 272.935 35.8949 272.589C36.3348 272.244 36.7007 271.814 36.9711 271.324L41.8601 262.458C42.382 261.461 42.4966 260.301 42.1795 259.221C41.8624 258.142 41.1385 257.228 40.1605 256.672Z" fill="#F9EE9D"/>
<path id="Vector_55" d="M21.7329 244.587L21.2339 244.153C20.8216 243.779 20.3393 243.491 19.815 243.305C19.2906 243.119 18.7346 243.039 18.1791 243.069C17.6236 243.099 17.0796 243.24 16.5786 243.481C16.0775 243.723 15.6294 244.062 15.2601 244.478L8.61367 252.094C7.8798 252.95 7.515 254.063 7.59902 255.187C7.68305 256.312 8.20907 257.358 9.06207 258.096L9.55386 258.537C9.96679 258.911 10.4497 259.199 10.9746 259.385C11.4995 259.571 12.0561 259.652 12.6122 259.621C13.1683 259.591 13.7129 259.451 14.2146 259.209C14.7162 258.967 15.165 258.628 15.5349 258.212L22.1741 250.596C22.9074 249.739 23.2725 248.626 23.1899 247.501C23.1073 246.375 22.5837 245.328 21.7329 244.587Z" fill="#F9EE9D"/>
<path id="Vector_56" d="M245.831 232.726L245.389 232.234C244.647 231.389 243.599 230.873 242.476 230.799C241.353 230.726 240.247 231.102 239.401 231.843L231.887 238.591C231.059 239.355 230.566 240.416 230.517 241.542C230.469 242.668 230.867 243.768 231.626 244.601L232.068 245.093C232.435 245.512 232.882 245.854 233.382 246.1C233.882 246.346 234.426 246.491 234.982 246.527C235.539 246.562 236.096 246.488 236.624 246.308C237.151 246.127 237.638 245.845 238.056 245.476L245.563 238.729C245.975 238.352 246.309 237.898 246.545 237.393C246.782 236.887 246.917 236.34 246.941 235.783C246.966 235.225 246.881 234.668 246.69 234.144C246.5 233.619 246.208 233.137 245.831 232.726Z" fill="#F9EE9D"/>
<path id="Vector_57" d="M228.329 214.891L227.786 214.508C227.335 214.184 226.823 213.953 226.281 213.828C225.74 213.704 225.179 213.688 224.631 213.783C224.083 213.877 223.56 214.079 223.091 214.377C222.622 214.676 222.217 215.064 221.899 215.52L216.179 223.866C215.549 224.804 215.314 225.953 215.525 227.063C215.737 228.173 216.377 229.155 217.307 229.797L217.842 230.173C218.294 230.497 218.805 230.727 219.347 230.852C219.889 230.976 220.45 230.992 220.997 230.898C221.545 230.804 222.069 230.601 222.538 230.303C223.006 230.005 223.411 229.616 223.729 229.16L229.45 220.821C230.08 219.884 230.316 218.736 230.106 217.626C229.896 216.516 229.258 215.534 228.329 214.891Z" fill="#F9EE9D"/>
<path id="Vector_58" d="M206.118 204.021L205.525 203.725C205.03 203.473 204.49 203.323 203.936 203.283C203.382 203.243 202.826 203.314 202.3 203.492C201.774 203.67 201.289 203.951 200.873 204.319C200.457 204.687 200.118 205.134 199.877 205.634L195.538 214.775C195.064 215.801 195.009 216.971 195.385 218.037C195.76 219.102 196.536 219.979 197.548 220.482L198.134 220.778C198.629 221.03 199.17 221.18 199.723 221.219C200.277 221.259 200.833 221.188 201.36 221.01C201.886 220.833 202.371 220.552 202.787 220.184C203.203 219.816 203.541 219.369 203.782 218.869L208.122 209.727C208.596 208.702 208.652 207.533 208.278 206.468C207.904 205.402 207.129 204.525 206.118 204.021Z" fill="#F9EE9D"/>
<path id="Vector_59" d="M178.766 201.056H178.108C177.553 201.031 176.999 201.117 176.478 201.31C175.958 201.502 175.481 201.798 175.076 202.178C174.672 202.558 174.347 203.016 174.123 203.524C173.898 204.032 173.778 204.58 173.769 205.135L173.574 215.318C173.552 216.45 173.974 217.547 174.749 218.372C175.525 219.198 176.593 219.688 177.725 219.737H178.376C178.93 219.762 179.485 219.676 180.005 219.483C180.526 219.29 181.003 218.995 181.408 218.614C181.812 218.234 182.136 217.776 182.361 217.269C182.586 216.761 182.706 216.213 182.715 215.658L182.925 205.446C182.939 204.317 182.513 203.227 181.736 202.407C180.96 201.588 179.894 201.103 178.766 201.056Z" fill="#F9EE9D"/>
<path id="Vector_60" d="M151.255 209.011L150.647 209.236C150.128 209.432 149.653 209.73 149.25 210.113C148.847 210.495 148.524 210.953 148.3 211.461C148.076 211.97 147.955 212.517 147.945 213.072C147.934 213.628 148.034 214.18 148.239 214.696L151.935 224.293C152.341 225.344 153.14 226.196 154.163 226.668C155.186 227.141 156.353 227.197 157.417 226.824L158.032 226.593C158.551 226.396 159.026 226.098 159.429 225.716C159.832 225.334 160.155 224.875 160.379 224.367C160.603 223.859 160.724 223.311 160.734 222.756C160.745 222.201 160.645 221.649 160.44 221.133L156.744 211.543C156.338 210.49 155.538 209.636 154.513 209.164C153.488 208.691 152.319 208.637 151.255 209.011Z" fill="#F9EE9D"/>
<path id="Vector_61" d="M131.627 221.696L131.091 222.051C130.631 222.365 130.238 222.767 129.933 223.233C129.629 223.7 129.419 224.222 129.317 224.77C129.215 225.317 129.222 225.88 129.338 226.425C129.454 226.97 129.676 227.486 129.992 227.945L135.778 236.494C136.4 237.434 137.369 238.089 138.473 238.318C139.577 238.547 140.727 238.331 141.672 237.716L142.207 237.354C142.668 237.041 143.062 236.639 143.367 236.173C143.672 235.707 143.882 235.185 143.985 234.637C144.088 234.089 144.082 233.527 143.966 232.981C143.851 232.436 143.629 231.919 143.314 231.46L137.528 222.919C137.221 222.451 136.825 222.048 136.362 221.733C135.899 221.419 135.379 221.198 134.831 221.085C134.282 220.971 133.717 220.967 133.168 221.072C132.618 221.177 132.094 221.389 131.627 221.696Z" fill="#F9EE9D"/>
</g>
<path id="Vector_62" d="M48.7019 216.005V202.155C48.6975 199.315 49.7256 196.57 51.5948 194.431L162.342 68.7061C163.304 67.5952 164.491 66.7024 165.826 66.0875C167.161 65.4726 168.611 65.1498 170.08 65.1406H199.284C205.142 65.1406 209.894 70.2032 209.894 76.4301V259.369C209.894 265.603 205.142 270.659 199.284 270.659H163.738C157.88 270.659 153.128 265.596 153.128 259.369V97.8086C153.101 96.8691 153.447 95.9572 154.091 95.2726C154.735 94.588 155.624 94.1865 156.563 94.1563C160.534 94.1563 162.595 99.2189 159.897 102.285L76.8642 197.534C76.5222 197.939 76.0875 198.256 75.597 198.459C75.1066 198.661 74.5746 198.742 74.0462 198.695C73.5178 198.648 73.0084 198.475 72.5611 198.19C72.1137 197.904 71.7416 197.516 71.4762 197.056C69.9791 194.626 71.6136 191.394 74.3691 191.394H236.241C242.099 191.394 246.843 196.456 246.843 202.683V216.005C246.843 222.239 242.099 227.294 236.241 227.294H59.3044C53.4463 227.294 48.7019 222.239 48.7019 216.005Z" fill="#F7D2D2"/>
<path id="Vector_63" d="M461.734 168.41C461.734 243.343 416.598 275.584 366.71 275.584C316.605 275.584 272.337 243.343 272.337 168.41C272.337 93.1511 316.605 60.9604 366.71 60.9604C416.576 60.9604 461.734 93.1511 461.734 168.41ZM366.71 258.624C385.709 258.624 401.063 240.862 401.063 168.41C401.063 95.4437 385.709 77.6886 366.71 77.6886C347.494 77.6886 333.008 95.1183 333.008 168.41C333.008 241.188 347.494 258.624 366.71 258.624Z" fill="#F7D2D2"/>
<path id="Vector_64" d="M484.06 216.005V202.155C484.056 199.315 485.084 196.57 486.953 194.431L597.707 68.7061C598.669 67.5948 599.856 66.7018 601.191 66.0869C602.526 65.4719 603.976 65.1493 605.446 65.1406H634.65C640.508 65.1406 645.252 70.2032 645.252 76.4301V259.369C645.252 265.603 640.508 270.659 634.65 270.659H599.096C593.238 270.659 588.493 265.596 588.493 259.369V97.8086C588.479 97.3432 588.556 96.8794 588.721 96.4439C588.886 96.0084 589.135 95.6097 589.454 95.2705C589.773 94.9313 590.156 94.6583 590.581 94.4672C591.005 94.276 591.463 94.1703 591.929 94.1563H594.489C597.49 94.1563 599.045 97.9532 597.006 100.296L512.23 197.534C511.888 197.939 511.453 198.256 510.962 198.459C510.472 198.661 509.94 198.742 509.412 198.695C508.883 198.648 508.374 198.475 507.926 198.19C507.479 197.904 507.107 197.516 506.842 197.056C505.337 194.626 506.979 191.394 509.734 191.394H671.606C677.464 191.394 682.209 196.456 682.209 202.683V216.005C682.209 222.239 677.464 227.294 671.606 227.294H494.684C488.812 227.294 484.06 222.239 484.06 216.005Z" fill="#F7D2D2"/>
<path id="Vector_65" d="M39.5313 207.059V193.216C39.5248 190.375 40.5532 187.63 42.4242 185.492L153.178 59.7888C154.139 58.6758 155.326 57.7812 156.661 57.1649C157.996 56.5487 159.447 56.2252 160.917 56.2161H190.121C195.972 56.2161 200.723 61.2786 200.723 67.5056V250.423C200.723 256.657 195.972 261.713 190.121 261.713H154.567C148.709 261.713 143.965 256.65 143.965 250.423V88.8696C143.949 88.4041 144.026 87.9402 144.19 87.5043C144.354 87.0685 144.602 86.6692 144.92 86.3293C145.239 85.9894 145.621 85.7156 146.045 85.5236C146.469 85.3316 146.927 85.225 147.393 85.2101C151.363 85.2101 153.424 90.2726 150.727 93.3391L67.6936 188.595C67.3514 188.999 66.9172 189.315 66.4274 189.516C65.9377 189.717 65.4068 189.798 64.8795 189.751C64.3521 189.704 63.8437 189.531 63.397 189.247C62.9503 188.963 62.5785 188.575 62.3128 188.117C60.8085 185.687 62.443 182.455 65.2057 182.455H227.092C232.95 182.455 237.702 187.517 237.702 193.744V207.059C237.702 213.293 232.95 218.348 227.092 218.348H50.141C44.2829 218.348 39.5313 213.293 39.5313 207.059Z" fill="#C788D3"/>
<path id="Vector_66" d="M452.564 159.463C452.564 234.396 407.428 266.638 357.547 266.638C307.442 266.638 263.174 234.396 263.174 159.463C263.174 84.2048 307.442 52.0142 357.547 52.0142C407.428 52.0142 452.564 84.2048 452.564 159.463ZM357.547 249.678C376.539 249.678 391.9 231.923 391.9 159.463C391.9 86.5047 376.539 68.7423 357.547 68.7423C338.331 68.7423 323.837 86.1792 323.837 159.463C323.837 232.248 338.331 249.678 357.547 249.678Z" fill="#C788D3"/>
<path id="Vector_67" d="M474.897 207.059V193.216C474.891 190.375 475.919 187.63 477.79 185.492L588.544 59.7888C589.504 58.6767 590.69 57.7826 592.024 57.1664C593.357 56.5503 594.807 56.2262 596.275 56.2161H625.479C631.337 56.2161 636.089 61.2786 636.089 67.5056V250.423C636.089 256.657 631.337 261.713 625.479 261.713H589.933C584.075 261.713 579.323 256.65 579.323 250.423V88.8696C579.294 87.9289 579.639 87.015 580.283 86.3289C580.928 85.6427 581.818 85.2403 582.758 85.2101H585.311C588.306 85.2101 589.868 89.0142 587.828 91.3502L503.059 188.595C502.716 188.999 502.281 189.315 501.791 189.516C501.301 189.717 500.77 189.797 500.242 189.751C499.714 189.704 499.205 189.531 498.758 189.247C498.31 188.963 497.938 188.575 497.671 188.117C496.174 185.687 497.809 182.455 500.564 182.455H662.472C668.33 182.455 673.082 187.517 673.082 193.744V207.059C673.082 213.293 668.33 218.348 662.472 218.348H485.499C479.641 218.348 474.897 213.293 474.897 207.059Z" fill="#C788D3"/>
<g id="spirale 1_2">
<path id="Vector_68" d="M429.862 187.083C425.978 185.275 422.63 190.121 425.523 193.26C441.433 210.277 471.599 223.252 491.336 222.434C506.321 221.812 549.252 196.89 561.286 186.208C600.297 151.58 637.615 133.413 673.002 181.283C676.77 186.389 675.627 202.076 682.064 201.164C682.703 201.054 683.313 200.814 683.855 200.457C684.397 200.101 684.86 199.637 685.214 199.095C685.569 198.552 685.809 197.942 685.917 197.302C686.026 196.663 686.002 196.008 685.847 195.379C684.603 189.781 679.142 178.462 679.048 178.318C664.692 156.18 642.887 140.378 616.967 143.401C594.301 146.04 575.743 163.123 561.676 175.598C561.582 175.686 561.48 175.766 561.373 175.837C541.166 190.215 516.533 211.796 491.336 213.409C459.044 215.477 440.616 192.081 429.862 187.083Z" fill="#FCDEDE"/>
<path id="Vector_69" d="M699.812 182.491L699.617 181.818C699.281 180.662 698.507 179.684 697.46 179.091C696.413 178.497 695.176 178.337 694.012 178.643L683.612 181.536C683.043 181.693 682.511 181.962 682.048 182.328C681.584 182.694 681.199 183.148 680.914 183.665C680.629 184.182 680.45 184.751 680.388 185.338C680.326 185.925 680.382 186.518 680.553 187.083L680.748 187.763C681.084 188.915 681.856 189.891 682.9 190.482C683.944 191.074 685.177 191.235 686.338 190.931L696.76 188.038C697.327 187.878 697.857 187.607 698.319 187.241C698.78 186.875 699.164 186.42 699.448 185.904C699.732 185.387 699.911 184.82 699.973 184.234C700.036 183.648 699.981 183.055 699.812 182.491Z" fill="#F9EE9D"/>
<path id="Vector_70" d="M553.391 179.807C555.138 181.812 558.181 182.021 560.187 180.274C562.192 178.526 562.401 175.483 560.653 173.478L553.783 165.594C552.035 163.588 548.993 163.379 546.987 165.127C544.981 166.874 544.772 169.917 546.52 171.923L553.391 179.807Z" fill="#F9EE9D"/>
<path id="Vector_71" d="M501.996 193.91L501.381 194.221C500.856 194.494 500.391 194.868 500.012 195.322C499.633 195.777 499.348 196.302 499.173 196.867C498.999 197.432 498.939 198.027 498.996 198.615C499.054 199.204 499.228 199.776 499.508 200.297L504.571 209.995C505.119 211.064 506.066 211.874 507.208 212.249C508.349 212.624 509.592 212.534 510.668 211.998L511.282 211.687C511.807 211.415 512.273 211.04 512.652 210.586C513.031 210.132 513.317 209.608 513.492 209.043C513.667 208.477 513.728 207.883 513.671 207.294C513.615 206.706 513.442 206.134 513.163 205.612L508.1 195.907C507.548 194.839 506.599 194.032 505.457 193.659C504.315 193.285 503.072 193.376 501.996 193.91Z" fill="#F9EE9D"/>
<path id="Vector_72" d="M482.932 197.259H482.209C481.621 197.235 481.034 197.329 480.483 197.535C479.932 197.741 479.428 198.056 479 198.461C478.573 198.865 478.231 199.351 477.994 199.89C477.758 200.429 477.632 201.01 477.624 201.598L477.45 212.447C477.436 213.652 477.891 214.815 478.72 215.69C479.549 216.565 480.686 217.082 481.891 217.133H482.614C483.201 217.157 483.788 217.063 484.339 216.857C484.889 216.65 485.393 216.336 485.82 215.931C486.247 215.526 486.588 215.04 486.824 214.501C487.059 213.962 487.185 213.382 487.192 212.794L487.365 201.945C487.383 200.74 486.93 199.576 486.102 198.701C485.274 197.825 484.136 197.308 482.932 197.259Z" fill="#F9EE9D"/>
<path id="Vector_73" d="M467.282 192.681L466.66 192.356C466.135 192.083 465.562 191.918 464.973 191.869C464.384 191.82 463.792 191.889 463.23 192.071C462.668 192.254 462.148 192.546 461.7 192.931C461.252 193.317 460.885 193.787 460.621 194.315L455.862 203.949C455.341 205.033 455.267 206.279 455.655 207.418C456.043 208.557 456.863 209.497 457.938 210.038L458.56 210.357C459.083 210.63 459.656 210.797 460.245 210.847C460.834 210.897 461.426 210.829 461.989 210.647C462.551 210.465 463.071 210.173 463.519 209.788C463.967 209.403 464.334 208.932 464.598 208.404L469.372 198.763C469.891 197.678 469.963 196.432 469.572 195.294C469.181 194.156 468.358 193.218 467.282 192.681Z" fill="#F9EE9D"/>
<path id="Vector_74" d="M447.104 180.748L446.554 180.307C446.096 179.931 445.569 179.65 445.002 179.48C444.436 179.309 443.841 179.252 443.252 179.312C442.664 179.371 442.093 179.547 441.572 179.828C441.051 180.109 440.591 180.491 440.218 180.95L433.529 189.369C432.793 190.317 432.462 191.518 432.607 192.71C432.752 193.902 433.361 194.988 434.303 195.733L434.852 196.174C435.31 196.549 435.837 196.83 436.404 197.001C436.97 197.172 437.565 197.229 438.154 197.169C438.742 197.109 439.314 196.934 439.834 196.653C440.355 196.371 440.815 195.99 441.188 195.531L447.87 187.112C448.608 186.165 448.942 184.964 448.798 183.772C448.655 182.58 448.046 181.493 447.104 180.748Z" fill="#F9EE9D"/>
<path id="Vector_75" d="M684.689 157.069L684.198 156.57C683.787 156.142 683.296 155.8 682.753 155.562C682.21 155.325 681.625 155.197 681.032 155.186C680.439 155.175 679.85 155.282 679.299 155.5C678.747 155.717 678.244 156.042 677.819 156.455L670.167 163.998C669.747 164.418 669.414 164.916 669.187 165.464C668.96 166.013 668.843 166.601 668.843 167.194C668.843 167.788 668.96 168.376 669.187 168.925C669.414 169.473 669.747 169.971 670.167 170.391L670.666 170.89C671.076 171.318 671.567 171.661 672.111 171.898C672.654 172.136 673.239 172.264 673.831 172.274C674.424 172.285 675.013 172.179 675.565 171.961C676.116 171.743 676.619 171.419 677.045 171.006L684.704 163.448C685.545 162.599 686.016 161.451 686.014 160.256C686.011 159.06 685.535 157.915 684.689 157.069Z" fill="#F9EE9D"/>
<path id="Vector_76" d="M665.206 138.974L664.613 138.598C664.117 138.277 663.562 138.057 662.98 137.951C662.398 137.846 661.802 137.857 661.224 137.984C660.647 138.111 660.101 138.352 659.617 138.692C659.134 139.032 658.722 139.465 658.408 139.965L652.737 149.114C652.116 150.143 651.924 151.374 652.202 152.544C652.481 153.713 653.208 154.725 654.227 155.363L654.82 155.739C655.316 156.061 655.871 156.282 656.453 156.388C657.035 156.494 657.632 156.483 658.21 156.356C658.787 156.229 659.334 155.988 659.817 155.647C660.301 155.306 660.711 154.873 661.026 154.372L666.696 145.223C667.317 144.194 667.509 142.963 667.231 141.794C666.952 140.625 666.225 139.612 665.206 138.974Z" fill="#F9EE9D"/>
<path id="Vector_77" d="M641.094 128.524L640.45 128.242C639.912 127.998 639.331 127.864 638.74 127.848C638.15 127.832 637.562 127.934 637.012 128.148C636.461 128.363 635.959 128.685 635.535 129.096C635.111 129.507 634.773 129.998 634.541 130.542L630.354 140.479C629.894 141.591 629.889 142.84 630.341 143.956C630.793 145.072 631.665 145.966 632.769 146.445L633.413 146.727C633.951 146.97 634.532 147.103 635.122 147.118C635.712 147.133 636.299 147.03 636.849 146.815C637.398 146.6 637.9 146.277 638.323 145.866C638.746 145.455 639.084 144.964 639.314 144.42L643.509 134.491C643.967 133.378 643.971 132.13 643.519 131.014C643.067 129.899 642.197 129.005 641.094 128.524Z" fill="#F9EE9D"/>
<path id="Vector_78" d="M611.846 126.716H611.123C610.533 126.716 609.949 126.836 609.406 127.066C608.863 127.297 608.371 127.635 607.961 128.059C607.551 128.483 607.23 128.986 607.018 129.537C606.806 130.087 606.707 130.675 606.726 131.265L607.008 142.113C607.042 143.318 607.545 144.462 608.409 145.302C609.273 146.142 610.431 146.612 611.637 146.612H612.36C612.95 146.609 613.533 146.488 614.075 146.257C614.617 146.026 615.108 145.688 615.517 145.264C615.927 144.84 616.248 144.338 616.461 143.789C616.674 143.239 616.774 142.652 616.757 142.063L616.475 131.214C616.439 130.01 615.936 128.867 615.072 128.027C614.208 127.188 613.051 126.717 611.846 126.716Z" fill="#F9EE9D"/>
<path id="Vector_79" d="M583.004 136.508L582.368 136.776C581.825 137.01 581.335 137.351 580.925 137.777C580.515 138.203 580.194 138.706 579.981 139.257C579.767 139.808 579.666 140.397 579.682 140.988C579.698 141.578 579.832 142.16 580.075 142.699L584.473 152.716C584.952 153.818 585.845 154.689 586.959 155.14C588.073 155.592 589.32 155.589 590.432 155.131L591.068 154.864C591.611 154.629 592.101 154.289 592.511 153.863C592.921 153.437 593.242 152.934 593.455 152.382C593.669 151.831 593.77 151.243 593.754 150.652C593.738 150.061 593.604 149.479 593.361 148.94L588.964 138.924C588.484 137.821 587.592 136.951 586.477 136.499C585.363 136.047 584.116 136.051 583.004 136.508Z" fill="#F9EE9D"/>
<path id="Vector_80" d="M562.79 150.987L562.233 151.392C561.76 151.749 561.361 152.195 561.06 152.706C560.759 153.217 560.562 153.782 560.48 154.37C560.398 154.957 560.433 155.554 560.582 156.128C560.732 156.702 560.993 157.241 561.351 157.713L567.86 166.508C568.566 167.477 569.628 168.127 570.812 168.317C571.996 168.506 573.207 168.22 574.181 167.52L574.738 167.108C575.211 166.752 575.61 166.306 575.911 165.796C576.211 165.286 576.408 164.721 576.49 164.134C576.572 163.548 576.538 162.951 576.388 162.377C576.239 161.804 575.978 161.266 575.62 160.794L569.111 151.992C568.404 151.024 567.342 150.376 566.158 150.187C564.974 149.999 563.763 150.286 562.79 150.987Z" fill="#F9EE9D"/>
</g>
<g id="spirale2_2">
<path id="Vector_81" d="M120.012 192.016C135.923 213.437 162.892 225.168 198.257 206.263C223.635 192.703 290.056 87.8209 358.162 155.891C373.053 170.782 386.476 191.278 395.697 209.612C396.052 210.198 396.609 210.633 397.264 210.836C397.918 211.038 398.624 210.994 399.248 210.711L401.49 209.814C401.808 209.718 402.102 209.555 402.352 209.336C402.602 209.117 402.803 208.847 402.94 208.544C403.077 208.242 403.147 207.913 403.147 207.581C403.146 207.248 403.074 206.92 402.936 206.617C402.936 206.617 391.538 185.42 391.502 185.362C330.889 90.2003 267.715 116.504 200.456 194.966C200.275 195.176 193.542 199.421 193.289 199.559C169.719 212.324 148.832 206.068 131.706 193.223C122.839 186.562 124.828 182.722 119.744 190.142C119.591 190.444 119.535 190.786 119.582 191.121C119.63 191.456 119.78 191.769 120.012 192.016Z" fill="#D7D7F4"/>
<path id="Vector_82" opacity="0.9" d="M133.145 178.636L133.579 178.954C133.951 179.218 134.265 179.554 134.504 179.942C134.742 180.33 134.9 180.762 134.967 181.212C135.035 181.662 135.011 182.122 134.897 182.563C134.782 183.004 134.58 183.417 134.303 183.778L128.85 191.01C128.282 191.752 127.449 192.246 126.525 192.387C125.602 192.529 124.659 192.307 123.895 191.769L123.461 191.459C123.09 191.195 122.776 190.859 122.537 190.471C122.299 190.083 122.141 189.651 122.074 189.2C122.006 188.75 122.03 188.291 122.144 187.85C122.259 187.409 122.461 186.996 122.738 186.635L128.191 179.402C128.758 178.659 129.59 178.164 130.514 178.021C131.438 177.878 132.381 178.099 133.145 178.636Z" fill="#D4FFD4"/>
<path id="Vector_83" opacity="0.9" d="M146.51 189.549L147.009 189.759C147.43 189.936 147.811 190.195 148.129 190.522C148.448 190.848 148.697 191.236 148.863 191.661C149.029 192.086 149.108 192.54 149.095 192.996C149.083 193.452 148.978 193.9 148.789 194.315L145.035 202.502C144.633 203.343 143.921 203.995 143.05 204.324C142.178 204.653 141.213 204.632 140.356 204.267L139.857 204.057C139.436 203.881 139.055 203.621 138.737 203.295C138.418 202.968 138.169 202.581 138.003 202.156C137.837 201.731 137.758 201.277 137.771 200.821C137.784 200.365 137.888 199.916 138.078 199.501L141.831 191.292C142.237 190.456 142.95 189.808 143.822 189.484C144.693 189.159 145.656 189.183 146.51 189.549Z" fill="#D4FFD4"/>
<path id="Vector_84" opacity="0.9" d="M159.68 193.1L160.223 193.187C160.677 193.254 161.113 193.411 161.505 193.648C161.898 193.886 162.239 194.199 162.508 194.571C162.778 194.942 162.97 195.363 163.074 195.81C163.179 196.257 163.193 196.72 163.116 197.172L161.532 206.017C161.354 206.931 160.825 207.74 160.059 208.268C159.292 208.797 158.349 209.004 157.431 208.845L156.896 208.758C156.442 208.692 156.007 208.536 155.614 208.3C155.222 208.063 154.881 207.75 154.611 207.379C154.342 207.008 154.149 206.587 154.044 206.141C153.94 205.695 153.926 205.232 154.003 204.78L155.587 195.935C155.763 195.021 156.29 194.213 157.055 193.683C157.82 193.153 158.763 192.944 159.68 193.1Z" fill="#D4FFD4"/>
<path id="Vector_85" opacity="0.9" d="M184.552 191.148L185.087 191.025C185.988 190.798 186.941 190.938 187.739 191.412C188.537 191.886 189.115 192.657 189.347 193.556L191.473 202.235C191.577 202.682 191.591 203.145 191.515 203.597C191.439 204.049 191.274 204.482 191.03 204.871C190.786 205.26 190.468 205.596 190.093 205.861C189.719 206.126 189.296 206.314 188.848 206.415L188.32 206.545C187.419 206.769 186.465 206.628 185.668 206.152C184.87 205.677 184.292 204.906 184.06 204.006L181.934 195.328C181.829 194.881 181.814 194.418 181.889 193.966C181.964 193.514 182.128 193.081 182.371 192.692C182.615 192.303 182.933 191.967 183.307 191.702C183.681 191.436 184.105 191.248 184.552 191.148Z" fill="#D4FFD4"/>
<path id="Vector_86" opacity="0.9" d="M199.689 177.58L200.087 177.211C200.773 176.581 201.675 176.24 202.606 176.259C203.537 176.278 204.425 176.655 205.084 177.312L211.398 183.821C211.717 184.147 211.967 184.534 212.132 184.959C212.298 185.384 212.377 185.837 212.363 186.293C212.35 186.749 212.244 187.197 212.054 187.611C211.863 188.025 211.591 188.397 211.254 188.703L210.863 189.072C210.176 189.703 209.271 190.044 208.339 190.024C207.406 190.003 206.517 189.624 205.858 188.963L199.545 182.454C199.227 182.129 198.978 181.742 198.813 181.318C198.648 180.894 198.57 180.441 198.583 179.987C198.597 179.532 198.702 179.084 198.892 178.671C199.082 178.257 199.353 177.886 199.689 177.58Z" fill="#D4FFD4"/>
<path id="Vector_87" opacity="0.9" d="M214.284 162.363L214.682 161.995C215.368 161.363 216.272 161.02 217.204 161.039C218.137 161.058 219.026 161.437 219.686 162.096L226 168.605C226.318 168.931 226.567 169.318 226.732 169.743C226.897 170.168 226.975 170.621 226.962 171.076C226.948 171.532 226.843 171.98 226.653 172.394C226.463 172.808 226.192 173.18 225.855 173.487L225.458 173.855C224.771 174.487 223.868 174.83 222.935 174.811C222.002 174.792 221.113 174.413 220.453 173.754L214.146 167.245C213.827 166.92 213.577 166.533 213.411 166.109C213.244 165.684 213.165 165.231 213.178 164.775C213.191 164.319 213.295 163.871 213.485 163.457C213.675 163.042 213.947 162.671 214.284 162.363Z" fill="#D4FFD4"/>
<path id="Vector_88" opacity="0.9" d="M229.616 147.993L230.014 147.624C230.7 146.994 231.602 146.653 232.533 146.672C233.464 146.691 234.352 147.068 235.011 147.725L241.325 154.234C241.644 154.56 241.893 154.947 242.059 155.372C242.225 155.796 242.304 156.25 242.29 156.706C242.276 157.162 242.171 157.61 241.981 158.024C241.79 158.438 241.518 158.809 241.18 159.116L240.79 159.485C240.104 160.117 239.2 160.459 238.267 160.44C237.334 160.421 236.445 160.043 235.785 159.384L229.471 152.875C229.154 152.548 228.905 152.161 228.739 151.736C228.574 151.312 228.496 150.858 228.51 150.403C228.523 149.948 228.628 149.5 228.818 149.086C229.008 148.672 229.279 148.3 229.616 147.993Z" fill="#D4FFD4"/>
<path id="Vector_89" opacity="0.9" d="M246.294 135.597L246.691 135.228C247.378 134.596 248.281 134.254 249.214 134.273C250.147 134.292 251.036 134.67 251.696 135.329L258.003 141.838C258.322 142.164 258.572 142.55 258.738 142.975C258.905 143.399 258.984 143.853 258.971 144.308C258.958 144.764 258.854 145.212 258.664 145.627C258.474 146.041 258.202 146.413 257.865 146.72L257.467 147.089C256.781 147.721 255.877 148.063 254.945 148.044C254.012 148.025 253.123 147.647 252.463 146.988L246.156 140.479C245.837 140.153 245.587 139.767 245.42 139.342C245.254 138.918 245.175 138.464 245.188 138.009C245.2 137.553 245.305 137.104 245.495 136.69C245.685 136.276 245.957 135.904 246.294 135.597Z" fill="#D4FFD4"/>
<path id="Vector_90" opacity="0.9" d="M267.108 124.242L267.593 123.989C268.424 123.565 269.387 123.478 270.281 123.748C271.175 124.017 271.929 124.622 272.388 125.436L276.763 133.348C276.983 133.748 277.12 134.188 277.166 134.642C277.212 135.096 277.167 135.555 277.032 135.991C276.897 136.427 276.675 136.831 276.38 137.18C276.086 137.528 275.724 137.814 275.317 138.02L274.839 138.273C274.008 138.697 273.045 138.784 272.151 138.514C271.257 138.244 270.502 137.64 270.044 136.826L265.669 128.914C265.448 128.515 265.309 128.075 265.262 127.621C265.215 127.167 265.26 126.708 265.394 126.272C265.529 125.836 265.75 125.431 266.044 125.082C266.339 124.734 266.7 124.448 267.108 124.242Z" fill="#D4FFD4"/>
<path id="Vector_91" opacity="0.9" d="M329.79 116.663L330.31 116.815C330.751 116.935 331.163 117.141 331.522 117.423C331.881 117.704 332.181 118.055 332.403 118.454C332.624 118.853 332.764 119.292 332.813 119.746C332.863 120.2 332.821 120.659 332.69 121.096L330.064 129.71C329.773 130.593 329.153 131.329 328.333 131.767C327.513 132.205 326.556 132.31 325.66 132.06L325.139 131.908C324.698 131.79 324.286 131.583 323.926 131.302C323.566 131.021 323.266 130.67 323.044 130.271C322.822 129.872 322.683 129.432 322.634 128.978C322.585 128.524 322.628 128.064 322.76 127.627L325.385 119.013C325.676 118.131 326.297 117.394 327.117 116.956C327.937 116.518 328.894 116.413 329.79 116.663Z" fill="#D4FFD4"/>
<path id="Vector_92" opacity="0.9" d="M345.628 122.116L346.127 122.326C346.548 122.502 346.929 122.762 347.247 123.088C347.566 123.415 347.815 123.802 347.981 124.227C348.147 124.652 348.226 125.106 348.213 125.562C348.2 126.018 348.096 126.467 347.906 126.882L344.146 135.091C343.743 135.929 343.033 136.58 342.163 136.909C341.293 137.238 340.33 137.218 339.473 136.855L338.974 136.646C338.554 136.469 338.173 136.209 337.855 135.883C337.536 135.556 337.286 135.169 337.121 134.744C336.955 134.319 336.876 133.865 336.889 133.409C336.901 132.953 337.006 132.504 337.195 132.089L340.949 123.881C341.351 123.04 342.062 122.388 342.934 122.059C343.806 121.73 344.771 121.751 345.628 122.116Z" fill="#D4FFD4"/>
<path id="Vector_93" opacity="0.9" d="M357.504 131.098L358.003 131.308C358.423 131.485 358.804 131.744 359.123 132.071C359.441 132.397 359.691 132.785 359.857 133.21C360.022 133.635 360.101 134.089 360.088 134.545C360.076 135.001 359.971 135.449 359.782 135.864L356.021 144.073C355.62 144.913 354.91 145.566 354.04 145.896C353.17 146.226 352.206 146.208 351.349 145.845L350.85 145.628C350.429 145.452 350.047 145.193 349.728 144.867C349.409 144.54 349.159 144.153 348.993 143.728C348.827 143.302 348.748 142.848 348.762 142.392C348.775 141.935 348.88 141.486 349.071 141.072L352.824 132.863C353.227 132.023 353.938 131.37 354.81 131.041C355.681 130.713 356.647 130.733 357.504 131.098Z" fill="#D4FFD4"/>
<path id="Vector_94" opacity="0.9" d="M391.264 167.339L391.64 167.723C391.958 168.049 392.208 168.436 392.374 168.861C392.54 169.286 392.619 169.74 392.606 170.196C392.593 170.652 392.489 171.101 392.299 171.516C392.11 171.931 391.839 172.303 391.502 172.612L384.827 178.81C384.141 179.441 383.237 179.784 382.304 179.765C381.372 179.746 380.482 179.367 379.822 178.708L379.446 178.325C379.128 177.998 378.878 177.611 378.712 177.186C378.546 176.761 378.468 176.307 378.48 175.851C378.493 175.395 378.597 174.947 378.787 174.532C378.976 174.117 379.247 173.744 379.584 173.436L386.266 167.238C386.952 166.608 387.854 166.267 388.785 166.286C389.716 166.305 390.604 166.682 391.264 167.339Z" fill="#D4FFD4"/>
<path id="Vector_95" opacity="0.9" d="M373.111 143.285L373.545 143.603C373.916 143.867 374.231 144.204 374.469 144.593C374.708 144.981 374.866 145.414 374.933 145.865C375.001 146.316 374.977 146.776 374.862 147.217C374.748 147.659 374.546 148.073 374.268 148.434L368.75 155.666C368.177 156.403 367.341 156.889 366.418 157.024C365.495 157.159 364.555 156.932 363.796 156.39L363.362 156.071C362.99 155.807 362.676 155.471 362.437 155.082C362.198 154.693 362.041 154.261 361.973 153.81C361.906 153.359 361.93 152.899 362.044 152.457C362.158 152.016 362.361 151.602 362.638 151.24L368.157 144.008C368.73 143.272 369.565 142.785 370.488 142.65C371.411 142.516 372.351 142.743 373.111 143.285Z" fill="#D4FFD4"/>
<path id="Vector_96" opacity="0.9" d="M403.775 182.252L404.115 182.664C404.405 183.017 404.62 183.424 404.749 183.862C404.878 184.3 404.918 184.759 404.866 185.212C404.814 185.666 404.671 186.104 404.447 186.501C404.222 186.898 403.92 187.246 403.558 187.524L396.384 193.173C395.648 193.745 394.72 194.011 393.793 193.915C392.866 193.819 392.012 193.37 391.408 192.659L391.068 192.247C390.78 191.894 390.565 191.486 390.437 191.049C390.309 190.611 390.269 190.152 390.321 189.699C390.373 189.246 390.515 188.808 390.739 188.411C390.963 188.014 391.264 187.666 391.625 187.387L398.8 181.746C399.534 181.173 400.462 180.906 401.389 181C402.316 181.094 403.171 181.543 403.775 182.252Z" fill="#D4FFD4"/>
<path id="Vector_97" opacity="0.9" d="M410.017 200.47L410.284 200.954C410.515 201.367 410.661 201.822 410.713 202.291C410.765 202.761 410.722 203.237 410.588 203.69C410.453 204.143 410.228 204.564 409.928 204.929C409.627 205.294 409.257 205.595 408.838 205.814L400.998 209.951C400.143 210.406 399.144 210.509 398.213 210.239C397.283 209.968 396.495 209.347 396.015 208.505L395.748 208.02C395.517 207.608 395.371 207.154 395.319 206.685C395.267 206.216 395.31 205.741 395.445 205.288C395.58 204.836 395.804 204.415 396.105 204.05C396.405 203.686 396.775 203.386 397.194 203.167L405.005 199.023C405.863 198.56 406.869 198.452 407.806 198.723C408.744 198.993 409.537 199.62 410.017 200.47Z" fill="#D4FFD4"/>
</g>
<g id="proteins 3">
<path id="Vector_98" d="M344.008 282.859C394.128 282.859 434.758 242.229 434.758 192.109C434.758 141.99 394.128 101.359 344.008 101.359C293.888 101.359 253.258 141.99 253.258 192.109C253.258 242.229 293.888 282.859 344.008 282.859Z" fill="#6BF2F9"/>
<path id="Vector_99" d="M253.423 199.888C259.272 186.468 261.68 174.573 258.802 173.318C255.924 172.064 248.85 181.926 243.001 195.346C237.152 208.765 234.743 220.661 237.621 221.915C240.499 223.17 247.574 213.308 253.423 199.888Z" fill="#46D6FA"/>
<path id="Vector_100" d="M260.156 222.372C272.342 220.603 281.941 217.237 281.595 214.853C281.249 212.469 271.089 211.971 258.903 213.741C246.716 215.51 237.118 218.876 237.464 221.26C237.81 223.643 247.969 224.141 260.156 222.372Z" fill="#46D6FA"/>
<path id="Vector_101" d="M299.084 230.245C300.479 228.553 297.498 223.794 292.428 219.615C287.357 215.437 282.116 213.421 280.721 215.114C279.327 216.806 282.307 221.565 287.378 225.744C292.448 229.922 297.689 231.938 299.084 230.245Z" fill="#46D6FA"/>
<path id="Vector_102" d="M283.369 221.538C283.482 217.969 282.279 215.034 280.682 214.984C279.085 214.933 277.699 217.786 277.586 221.355C277.473 224.924 278.676 227.858 280.273 227.909C281.87 227.959 283.256 225.107 283.369 221.538Z" fill="#46D6FA"/>
<path id="Vector_103" d="M442.313 225.049C445.388 224.417 445.495 212.281 442.551 197.941C439.608 183.601 434.728 172.488 431.653 173.119C428.578 173.75 428.471 185.887 431.414 200.227C434.358 214.567 439.237 225.68 442.313 225.049Z" fill="#46D6FA"/>
<path id="Vector_104" opacity="0.28" d="M431.308 209.915C431.308 214.848 428.314 228.639 423.888 236.11C420.127 242.46 417.553 247.27 409.113 256.021C402.954 262.409 395.764 267.715 387.843 271.715C379.996 275.721 364.888 281.738 360.093 281.066C348.246 279.388 397.83 263.774 401.49 257.019C405.149 250.264 409.445 250.365 415.318 241.448C421.827 231.561 427.135 213.191 428.162 206.299C429.132 199.819 431.258 200.087 431.308 209.915Z" fill="#00A7D5"/>
<path id="Vector_105" d="M531.349 168.834C533.313 164.34 531.262 159.104 526.768 157.14C522.274 155.175 517.038 157.226 515.073 161.72C513.109 166.215 515.16 171.451 519.654 173.415C524.148 175.38 529.384 173.329 531.349 168.834Z" fill="#6BF2F9"/>
<path id="Vector_106" d="M522.34 160.845C521.91 161.014 521.451 161.098 520.988 161.089C520.526 161.081 520.07 160.982 519.646 160.797C519.222 160.612 518.839 160.346 518.518 160.013C518.197 159.68 517.945 159.286 517.777 158.856L512.613 145.664C512.443 145.234 512.361 144.774 512.369 144.311C512.378 143.848 512.478 143.392 512.663 142.968C512.849 142.544 513.116 142.161 513.45 141.84C513.784 141.52 514.178 141.268 514.609 141.101C515.039 140.931 515.499 140.848 515.961 140.856C516.424 140.864 516.88 140.963 517.304 141.148C517.728 141.333 518.111 141.599 518.432 141.932C518.752 142.266 519.004 142.659 519.173 143.089L524.337 156.281C524.506 156.712 524.589 157.172 524.58 157.634C524.572 158.097 524.472 158.553 524.286 158.977C524.101 159.401 523.834 159.785 523.5 160.105C523.166 160.425 522.772 160.677 522.34 160.845Z" fill="#C3D7E2"/>
<path id="Vector_107" d="M508.802 147.877C517.789 147.877 525.074 140.592 525.074 131.605C525.074 122.617 517.789 115.332 508.802 115.332C499.815 115.332 492.529 122.617 492.529 131.605C492.529 140.592 499.815 147.877 508.802 147.877Z" fill="#46D6FA"/>
<path id="Vector_108" d="M505.591 128.401C505.017 128.961 504.338 129.403 503.593 129.7C502.849 129.998 502.052 130.146 501.251 130.136C500.449 130.126 499.656 129.958 498.919 129.642C498.182 129.325 497.515 128.867 496.955 128.292L479.829 110.725C479.269 110.151 478.828 109.473 478.53 108.728C478.232 107.983 478.084 107.187 478.094 106.385C478.104 105.583 478.272 104.791 478.589 104.054C478.905 103.317 479.364 102.65 479.938 102.09C481.097 100.961 482.657 100.338 484.274 100.358C485.892 100.379 487.436 101.041 488.566 102.198L505.699 119.773C506.828 120.932 507.451 122.491 507.431 124.109C507.41 125.727 506.749 127.271 505.591 128.401Z" fill="#C3D7E2"/>
<path id="Vector_109" d="M461.778 117.842C477.755 117.842 490.707 104.89 490.707 88.9128C490.707 72.9358 477.755 59.9839 461.778 59.9839C445.801 59.9839 432.849 72.9358 432.849 88.9128C432.849 104.89 445.801 117.842 461.778 117.842Z" fill="#00A6D5"/>
<path id="Vector_110" d="M434.117 99.1222L401.67 123.529C397.213 126.88 396.318 133.21 399.67 137.666L399.674 137.672C403.026 142.128 409.356 143.023 413.812 139.671L446.259 115.265C450.715 111.913 451.61 105.584 448.259 101.127L448.254 101.122C444.903 96.6656 438.573 95.7704 434.117 99.1222Z" fill="#C3D7E2"/>
<path id="Vector_111" d="M474.167 74.8137C474.83 69.845 470.514 65.1695 464.528 64.3708C458.542 63.5721 453.151 66.9525 452.489 71.9213C451.826 76.89 456.141 81.5655 462.127 82.3642C468.113 83.1629 473.504 79.7825 474.167 74.8137Z" fill="#61D8E5"/>
<path id="Vector_112" d="M164.497 189.345C169.174 188.371 172.175 183.79 171.201 179.113C170.226 174.436 165.645 171.435 160.969 172.409C156.292 173.384 153.291 177.965 154.265 182.642C155.24 187.318 159.821 190.32 164.497 189.345Z" fill="#6BF2F9"/>
<path id="Vector_113" d="M169.516 158.212C169.959 158.348 170.37 158.57 170.726 158.865C171.082 159.16 171.377 159.523 171.593 159.932C171.809 160.341 171.943 160.788 171.986 161.249C172.029 161.71 171.982 162.174 171.845 162.617L167.665 176.155C167.529 176.597 167.307 177.008 167.012 177.364C166.716 177.72 166.354 178.015 165.945 178.23C165.535 178.446 165.088 178.579 164.627 178.621C164.166 178.663 163.702 178.614 163.26 178.477C162.818 178.341 162.407 178.119 162.051 177.824C161.695 177.528 161.4 177.166 161.184 176.757C160.967 176.348 160.834 175.9 160.791 175.44C160.747 174.979 160.795 174.514 160.932 174.072L165.112 160.555C165.386 159.661 166.003 158.911 166.829 158.472C167.655 158.033 168.622 157.939 169.516 158.212Z" fill="#C3D7E2"/>
<path id="Vector_114" d="M174.919 163.043C183.906 163.043 191.191 155.758 191.191 146.771C191.191 137.783 183.906 130.498 174.919 130.498C165.932 130.498 158.646 137.783 158.646 146.771C158.646 155.758 165.932 163.043 174.919 163.043Z" fill="#46D6FA"/>
<path id="Vector_115" d="M204.925 116.959C206.057 118.117 206.684 119.675 206.669 121.293C206.654 122.912 205.998 124.459 204.846 125.595L187.315 142.778C186.159 143.91 184.601 144.537 182.983 144.521C181.365 144.505 179.82 143.847 178.687 142.692C177.554 141.537 176.926 139.979 176.941 138.361C176.956 136.743 177.612 135.198 178.766 134.064L196.29 116.88C196.862 116.317 197.539 115.872 198.282 115.572C199.026 115.271 199.822 115.12 200.624 115.127C201.426 115.135 202.219 115.3 202.957 115.615C203.695 115.929 204.364 116.386 204.925 116.959Z" fill="#C3D7E2"/>
<path id="Vector_116" d="M225.479 134.859C241.456 134.859 254.408 121.907 254.408 105.93C254.408 89.9531 241.456 77.0012 225.479 77.0012C209.502 77.0012 196.55 89.9531 196.55 105.93C196.55 121.907 209.502 134.859 225.479 134.859Z" fill="#00A6D5"/>
<path id="Vector_117" d="M238.533 109.994L238.529 110.001C235.945 114.942 237.856 121.042 242.797 123.626L278.775 142.443C283.716 145.027 289.816 143.117 292.4 138.176L292.404 138.169C294.988 133.228 293.077 127.128 288.136 124.544L252.158 105.727C247.217 103.143 241.117 105.053 238.533 109.994Z" fill="#C3D7E2"/>
<path id="Vector_118" d="M220.457 103.113C227.254 101.783 231.869 96.1288 230.765 90.4842C229.661 84.8395 223.255 81.3416 216.458 82.6714C209.661 84.0013 205.046 89.6553 206.15 95.3C207.255 100.945 213.66 104.443 220.457 103.113Z" fill="#6BF2F9"/>
<path id="Vector_119" d="M314.848 234.324C318.842 234.324 322.08 231.086 322.08 227.092C322.08 223.097 318.842 219.859 314.848 219.859C310.854 219.859 307.616 223.097 307.616 227.092C307.616 231.086 310.854 234.324 314.848 234.324Z" fill="#6969A3"/>
<path id="Vector_120" d="M344.023 200.455C367.817 200.455 387.105 187.277 387.105 171.02C387.105 154.764 367.817 141.585 344.023 141.585C320.229 141.585 300.94 154.764 300.94 171.02C300.94 187.277 320.229 200.455 344.023 200.455Z" fill="#46D6FA"/>
<path id="Vector_121" d="M348.478 201.193C347.197 201.258 345.896 201.294 344.587 201.302C345.903 201.287 347.197 201.258 348.478 201.193Z" fill="#00A6D5"/>
<path id="Vector_122" d="M343.581 199.465C365.55 199.465 383.359 191.208 383.359 181.023C383.359 170.837 365.55 162.58 343.581 162.58C321.613 162.58 303.804 170.837 303.804 181.023C303.804 191.208 321.613 199.465 343.581 199.465Z" fill="white"/>
<path id="Vector_123" d="M355.457 198.741C363.937 198.741 370.811 191.867 370.811 183.387C370.811 174.908 363.937 168.033 355.457 168.033C346.977 168.033 340.103 174.908 340.103 183.387C340.103 191.867 346.977 198.741 355.457 198.741Z" fill="#6969A3"/>
<path id="Vector_124" d="M351.841 188.305C356.21 188.305 359.753 184.763 359.753 180.393C359.753 176.024 356.21 172.481 351.841 172.481C347.471 172.481 343.929 176.024 343.929 180.393C343.929 184.763 347.471 188.305 351.841 188.305Z" fill="white"/>
<path id="Vector_125" d="M381.818 185C382.286 184.616 382.671 184.14 382.947 183.601C383.223 183.063 383.385 182.473 383.424 181.869C383.424 175.736 365.546 170.76 343.502 170.76C321.458 170.76 303.573 175.736 303.573 181.869C303.577 182.4 303.708 182.924 303.956 183.395C301.996 181.659 300.911 179.778 300.911 177.775C300.911 169.378 320.178 162.587 343.943 162.587C367.708 162.587 386.975 169.386 386.975 177.775C386.975 180.386 385.109 182.845 381.818 185Z" fill="#00A6D5"/>
<path id="Vector_126" d="M442.579 224.455C443.703 222.325 435.784 215.941 424.892 210.196C414 204.45 404.26 201.52 403.136 203.651C402.012 205.781 409.931 212.165 420.823 217.91C431.715 223.655 441.456 226.586 442.579 224.455Z" fill="#46D6FA"/>
<path id="Vector_127" d="M403.952 203.646C405.036 201.74 401.284 197.562 395.572 194.314C389.86 191.067 384.351 189.98 383.268 191.886C382.184 193.792 385.936 197.97 391.647 201.218C397.359 204.465 402.868 205.552 403.952 203.646Z" fill="#46D6FA"/>
<path id="Vector_128" d="M404.83 202.896C406.368 201.537 402.802 194.984 396.863 188.26C390.925 181.536 384.863 177.187 383.324 178.546C381.785 179.905 385.352 186.457 391.291 193.181C397.229 199.906 403.291 204.255 404.83 202.896Z" fill="#46D6FA"/>
<path id="Vector_129" d="M398.848 209.028C402.187 207.76 404.433 205.522 403.866 204.028C403.299 202.535 400.133 202.351 396.795 203.619C393.457 204.886 391.21 207.124 391.777 208.618C392.344 210.112 395.51 210.295 398.848 209.028Z" fill="#46D6FA"/>
<path id="Vector_130" d="M312.351 224.494C312.997 222.546 306.618 218.677 298.103 215.852C289.589 213.028 282.162 212.318 281.516 214.267C280.869 216.215 287.248 220.085 295.763 222.909C304.278 225.733 311.704 226.443 312.351 224.494Z" fill="#46D6FA"/>
</g>
</g>
</g>
</g>
</g>
<defs>
<clipPath id="clip0">
<rect width="700" height="343.531" fill="white"/>
</clipPath>
</defs>
</svg>
