<svg width="700" height="421" viewBox="0 0 700 421" fill="none" xmlns="http://www.w3.org/2000/svg">
<g id="503 1">
<g clip-path="url(#clip0)">
<g id="Layer 2">
<g id="503 bacground">
<g id="Dna" opacity="0.6">
<path id="Vector" opacity="0.6" d="M64.9875 237.99C78.9491 281.865 101.152 322.18 143.679 346.948C145.182 347.829 146.632 348.799 148.02 349.853C191.225 382.523 264.564 385.236 304.039 347.243C305.424 345.945 306.889 344.734 308.425 343.616C323.477 332.471 324.686 320.507 353.516 308.587C407.012 286.472 454.027 311.786 494.136 346.079C524.034 371.643 555.68 405.257 605.446 416.344C631.497 422.153 617.601 406.171 609.625 402.655C503.18 355.691 500.962 325.18 466.293 306.258C404.992 272.806 341.162 275.187 297.382 326.957C295.673 328.977 293.785 330.84 291.743 332.522C229.586 383.85 159.314 358.374 113.949 304.127C112.545 302.433 111.268 300.637 110.131 298.753C94.105 272.548 76.3912 236.213 73.3099 206.683C71.0985 185.799 58.331 182.217 58.0361 201.729C58.0046 205.049 58.3559 208.361 59.0829 211.6C60.3434 217.431 62.8645 229.048 63.8965 233.81C64.1913 235.218 64.5526 236.626 64.9875 237.99Z" fill="#FCC695"/>
<path id="Vector_2" opacity="0.6" d="M13.2108 282.596L14.4813 284.397C15.5866 285.964 17.7529 286.338 19.3198 285.233L71.7312 248.261C73.2981 247.156 73.6722 244.989 72.5669 243.422L71.2964 241.621C70.1911 240.054 68.0248 239.68 66.4579 240.786L14.0465 277.758C12.4796 278.863 12.1055 281.029 13.2108 282.596Z" fill="#FCEE21"/>
<path id="Vector_3" opacity="0.6" d="M26.8004 296.904L28.0709 298.705C29.1762 300.272 31.3425 300.646 32.9094 299.541L80.0019 266.32C81.5688 265.215 81.943 263.049 80.8377 261.482L79.5672 259.681C78.4618 258.114 76.2956 257.74 74.7287 258.845L27.6362 292.065C26.0693 293.171 25.6951 295.337 26.8004 296.904Z" fill="#FCEE21"/>
<path id="Vector_4" opacity="0.6" d="M50.5358 304.655L51.9401 306.354C53.1619 307.832 55.3504 308.039 56.8283 306.818L86.9971 281.878C88.475 280.656 88.6826 278.467 87.4609 276.989L86.0565 275.291C84.8348 273.813 82.6463 273.605 81.1684 274.827L50.9996 299.767C49.5217 300.989 49.314 303.177 50.5358 304.655Z" fill="#FCEE21"/>
<path id="Vector_5" opacity="0.6" d="M68.7933 314.447L70.3324 316.025C71.6714 317.397 73.8696 317.425 75.2421 316.086L96.2643 295.578C97.6369 294.239 97.6641 292.041 96.3251 290.668L94.786 289.091C93.4471 287.718 91.2489 287.691 89.8763 289.03L68.8541 309.537C67.4815 310.876 67.4543 313.074 68.7933 314.447Z" fill="#FCED65"/>
<path id="Vector_6" opacity="0.6" d="M134.257 329.257L136.441 329.559C138.34 329.821 140.092 328.494 140.355 326.594L141.906 315.356C142.168 313.456 140.841 311.704 138.942 311.442L136.758 311.14C134.859 310.878 133.106 312.205 132.844 314.105L131.293 325.343C131.03 327.243 132.358 328.995 134.257 329.257Z" fill="#FCED65"/>
<path id="Vector_7" opacity="0.6" d="M149.668 339.348L151.862 339.56C153.77 339.744 155.467 338.346 155.651 336.438L158.476 307.206C158.661 305.297 157.263 303.6 155.354 303.416L153.161 303.204C151.252 303.019 149.555 304.417 149.371 306.326L146.546 335.558C146.361 337.466 147.759 339.163 149.668 339.348Z" fill="#FCED65"/>
<path id="Vector_8" opacity="0.6" d="M169.875 351.951L172.078 352.008C173.995 352.058 175.589 350.545 175.639 348.628L176.998 296.389C177.048 294.472 175.534 292.878 173.617 292.828L171.414 292.77C169.497 292.72 167.903 294.234 167.853 296.151L166.494 348.39C166.444 350.307 167.958 351.901 169.875 351.951Z" fill="#FCED65"/>
<path id="Vector_9" opacity="0.6" d="M187.896 362.74L190.099 362.797C192.016 362.847 193.61 361.334 193.66 359.417L195.397 292.661C195.447 290.744 193.933 289.15 192.016 289.1L189.813 289.042C187.896 288.993 186.302 290.506 186.252 292.423L184.515 359.179C184.465 361.096 185.979 362.69 187.896 362.74Z" fill="#FCED65"/>
<path id="Vector_10" opacity="0.6" d="M211.625 367.06L213.829 367.117C215.746 367.167 217.34 365.654 217.39 363.737L219.268 291.542C219.318 289.625 217.804 288.031 215.887 287.981L213.684 287.924C211.767 287.874 210.173 289.388 210.123 291.304L208.245 363.499C208.195 365.416 209.709 367.01 211.625 367.06Z" fill="#FCED65"/>
<path id="Vector_11" opacity="0.6" d="M233.43 369.87L235.633 369.927C237.55 369.977 239.144 368.464 239.194 366.547L241.072 294.352C241.122 292.435 239.609 290.841 237.692 290.791L235.488 290.734C233.571 290.684 231.977 292.198 231.927 294.114L230.049 366.309C229.999 368.226 231.513 369.82 233.43 369.87Z" fill="#FCED65"/>
<path id="Vector_12" opacity="0.6" d="M253.181 361.11L255.385 361.176C257.302 361.234 258.903 359.726 258.961 357.809L260.474 307.358C260.532 305.44 259.024 303.839 257.107 303.782L254.902 303.716C252.985 303.658 251.384 305.166 251.326 307.083L249.813 357.534C249.755 359.452 251.263 361.053 253.181 361.11Z" fill="#FCED65"/>
<path id="Vector_13" opacity="0.6" d="M530.574 363.011L532.778 362.878C534.696 362.763 536.157 361.116 536.042 359.198L534.263 329.557C534.148 327.64 532.501 326.179 530.583 326.294L528.379 326.426C526.462 326.541 525 328.189 525.115 330.106L526.894 359.747C527.009 361.665 528.657 363.126 530.574 363.011Z" fill="#FCEE21"/>
<path id="Vector_14" opacity="0.6" d="M571.387 386.231L573.587 386.089C575.501 385.967 576.952 384.316 576.83 382.402L572.194 310.133C572.071 308.219 570.421 306.768 568.507 306.89L566.307 307.031C564.394 307.154 562.942 308.805 563.065 310.719L567.7 382.988C567.823 384.901 569.474 386.353 571.387 386.231Z" fill="#FCEE21"/>
<path id="Vector_15" opacity="0.6" d="M555.316 379.2L557.516 379.059C559.43 378.936 560.881 377.286 560.759 375.372L557.259 320.802C557.136 318.889 555.485 317.437 553.571 317.56L551.372 317.701C549.458 317.823 548.006 319.474 548.129 321.388L551.629 375.958C551.752 377.871 553.403 379.323 555.316 379.2Z" fill="#FCEE21"/>
<path id="Vector_16" opacity="0.6" d="M590.458 403.236L592.662 403.104C594.579 402.989 596.041 401.341 595.925 399.423L589.09 285.504C588.975 283.586 587.327 282.125 585.41 282.24L583.206 282.372C581.288 282.487 579.827 284.135 579.942 286.053L586.777 399.972C586.892 401.89 588.54 403.351 590.458 403.236Z" fill="#FCEE21"/>
<path id="Vector_17" opacity="0.6" d="M6.92195 283.362C37.7054 319.01 88.053 331.409 130.889 315.796C163.618 303.84 175.553 292.207 212.89 294.419C269.827 297.825 266.031 352.654 360.387 383.74C411.036 400.421 523.017 360.306 574.898 307.459C587.614 294.493 604.79 278.769 616.459 264.446C617.252 263.482 617.726 262.294 617.813 261.048C617.9 259.803 617.597 258.56 616.945 257.495L616.849 257.348C616.366 256.56 615.708 255.895 614.925 255.404C614.143 254.913 613.257 254.61 612.338 254.518C611.419 254.426 610.491 254.547 609.626 254.873C608.762 255.199 607.984 255.721 607.355 256.397L580.574 285.109C538.313 326.389 500.121 341.479 440.449 363.984C420.243 371.591 361.942 373.39 344.25 361.257C257.377 301.702 246.563 281.836 216.863 280.752C136.926 277.84 128.08 329.935 49.4851 296.461C49.1657 296.328 48.8596 296.165 48.5711 295.974L27.0904 282.167C26.739 281.94 26.4128 281.675 26.1174 281.379C2.44006 257.864 -7.98327 266.171 6.92195 283.362Z" fill="#FCC695"/>
<path id="Vector_18" opacity="0.7" d="M323.747 349.535L325.95 349.472C327.867 349.416 329.376 347.818 329.321 345.901L328.994 334.561C328.939 332.644 327.34 331.135 325.424 331.19L323.221 331.254C321.304 331.309 319.795 332.908 319.85 334.824L320.177 346.164C320.232 348.081 321.83 349.59 323.747 349.535Z" fill="#FCEE21"/>
<path id="Vector_19" opacity="0.6" d="M360.733 374.293L362.936 374.229C364.853 374.174 366.362 372.575 366.307 370.659L364.372 303.51C364.317 301.593 362.719 300.084 360.802 300.139L358.599 300.203C356.682 300.258 355.173 301.856 355.228 303.773L357.163 370.922C357.218 372.839 358.816 374.348 360.733 374.293Z" fill="#FCED60"/>
<path id="Vector_20" opacity="0.6" d="M401.535 378.261L403.734 378.12C405.648 377.997 407.1 376.347 406.977 374.433L401.778 293.38C401.655 291.467 400.005 290.015 398.091 290.138L395.891 290.279C393.978 290.401 392.526 292.052 392.649 293.966L397.848 375.019C397.97 376.932 399.621 378.384 401.535 378.261Z" fill="#FCED60"/>
<path id="Vector_21" opacity="0.6" d="M380.678 373.172L382.881 373.108C384.798 373.053 386.307 371.454 386.252 369.538L384.345 303.339C384.29 301.423 382.691 299.914 380.775 299.969L378.571 300.032C376.655 300.088 375.146 301.686 375.201 303.603L377.108 369.801C377.163 371.718 378.762 373.227 380.678 373.172Z" fill="#FCED60"/>
<path id="Vector_22" opacity="0.6" d="M418.642 375.264L420.846 375.201C422.762 375.145 424.271 373.547 424.216 371.63L421.918 291.837C421.862 289.92 420.264 288.411 418.347 288.466L416.144 288.53C414.227 288.585 412.718 290.184 412.773 292.1L415.072 371.893C415.127 373.81 416.726 375.319 418.642 375.264Z" fill="#FCED60"/>
<path id="Vector_23" opacity="0.6" d="M436.279 374.023L438.479 373.881C440.393 373.759 441.844 372.108 441.722 370.194L437.602 305.966C437.479 304.052 435.828 302.6 433.915 302.723L431.715 302.864C429.802 302.987 428.35 304.637 428.473 306.551L432.592 370.78C432.715 372.693 434.366 374.145 436.279 374.023Z" fill="#FCED60"/>
<path id="Vector_24" opacity="0.6" d="M453.602 366.417L455.805 366.353C457.722 366.298 459.231 364.7 459.175 362.783L457.821 315.772C457.766 313.855 456.167 312.346 454.251 312.401L452.048 312.465C450.131 312.52 448.622 314.119 448.677 316.035L450.031 363.046C450.086 364.963 451.685 366.472 453.602 366.417Z" fill="#FCED60"/>
<path id="Vector_25" opacity="0.6" d="M471.405 360.248L473.609 360.184C475.525 360.129 477.034 358.531 476.979 356.614L476.126 326.985C476.07 325.069 474.472 323.56 472.555 323.615L470.352 323.678C468.435 323.733 466.926 325.332 466.981 327.249L467.835 356.877C467.89 358.794 469.489 360.303 471.405 360.248Z" fill="#FCED60"/>
<path id="Vector_26" opacity="0.6" d="M343.261 366.628L345.461 366.487C347.375 366.364 348.826 364.714 348.704 362.8L345.359 310.65C345.236 308.737 343.585 307.285 341.671 307.408L339.472 307.549C337.558 307.672 336.107 309.322 336.229 311.236L339.574 363.386C339.697 365.299 341.348 366.751 343.261 366.628Z" fill="#FCED60"/>
</g>
<path id="Vector_27" d="M206.963 184.767V201.243C206.963 203.589 206.031 205.839 204.372 207.498C202.713 209.157 200.463 210.089 198.117 210.089H123.311C122.04 210.089 120.821 210.593 119.923 211.492C119.024 212.391 118.519 213.609 118.519 214.88V248.568C118.519 249.219 118.652 249.864 118.91 250.462C119.168 251.06 119.545 251.599 120.018 252.046C120.492 252.493 121.052 252.839 121.663 253.063C122.275 253.286 122.926 253.382 123.576 253.345H127.903C144.941 253.345 160.38 256.021 174.219 261.372C188.058 266.724 198.869 274.223 206.653 283.87C214.448 293.512 218.342 304.361 218.337 316.415C218.337 335.409 209.518 350.863 191.881 362.775C174.243 374.687 151.052 380.641 122.308 380.636C99.3191 380.636 78.701 377.555 60.454 371.392C58.6966 370.802 57.1691 369.675 56.0871 368.17C55.0052 366.664 54.4234 364.857 54.4241 363.004V348.452C54.4243 347.026 54.7695 345.621 55.4301 344.357C56.0907 343.093 57.0472 342.007 58.218 341.192C59.3888 340.378 60.7392 339.858 62.1541 339.679C63.569 339.499 65.0064 339.664 66.3438 340.159C82.8364 346.199 98.7663 349.216 114.133 349.211C129.039 349.211 141.484 346.199 151.47 340.174C161.456 334.149 166.447 326.505 166.442 317.241C166.442 306.833 160.719 298.709 149.273 292.871C137.828 287.033 122.254 284.116 102.553 284.121C94.0226 284.173 85.5051 284.784 77.0547 285.949C76.3768 286.04 75.6872 285.986 75.0321 285.789C74.377 285.593 73.7713 285.259 73.2557 284.809C72.74 284.36 72.3262 283.806 72.0419 283.183C71.7576 282.561 71.6094 281.886 71.6071 281.202V180.713C71.6071 179.442 72.1119 178.224 73.0105 177.325C73.9091 176.426 75.1278 175.922 76.3986 175.922H198.117C200.463 175.922 202.713 176.854 204.372 178.513C206.031 180.171 206.963 182.421 206.963 184.767Z" fill="#F7D2D2"/>
<path id="Vector_28" d="M354.902 173.319C383.116 173.319 405.508 182.529 422.079 200.948C438.65 219.367 446.936 244.528 446.936 276.432C446.936 308.641 438.751 334.051 422.381 352.661C406.011 371.272 383.651 380.577 355.3 380.577C326.551 380.577 303.825 371.343 287.121 352.875C270.417 334.407 262.063 309.118 262.058 277.007C262.058 244.99 270.375 219.703 287.01 201.147C303.646 182.59 326.276 173.314 354.902 173.319ZM313.976 278.187C313.976 324.382 327.618 347.479 354.902 347.479C381.518 347.479 394.826 323.18 394.826 274.582C394.826 229.159 381.383 206.449 354.497 206.454C327.483 206.449 313.976 230.36 313.976 278.187Z" fill="#F7D2D2"/>
<path id="Vector_29" d="M553.152 173.319C578.967 173.319 599.796 177.973 615.64 187.281C631.484 196.589 639.404 208.907 639.399 224.234C639.399 243.283 628.452 257.851 606.559 267.94C606.128 268.144 605.768 268.471 605.525 268.881C605.282 269.29 605.167 269.763 605.195 270.239C605.222 270.714 605.392 271.171 605.681 271.549C605.97 271.928 606.365 272.211 606.817 272.363C618.611 276.295 627.739 281.966 634.202 289.377C641.794 298.105 645.588 308.496 645.583 320.551C645.583 338.488 636.932 352.986 619.628 364.043C602.325 375.1 579.579 380.619 551.39 380.599C531.646 380.654 512.024 377.507 493.288 371.282C491.533 370.692 490.007 369.567 488.925 368.065C487.843 366.563 487.26 364.759 487.258 362.908V347.258C487.262 345.809 487.621 344.384 488.305 343.107C488.988 341.83 489.975 340.74 491.178 339.934C492.382 339.127 493.764 338.628 495.206 338.481C496.647 338.334 498.102 338.543 499.443 339.09C505.612 341.669 511.949 343.826 518.41 345.548C527.863 348.004 537.591 349.243 547.358 349.233C560.401 349.233 571.082 346.558 579.402 341.206C587.722 335.854 591.882 328.888 591.882 320.308C591.882 310.857 587.289 303.311 578.104 297.67C568.92 292.028 556.341 289.2 540.37 289.185C539.95 289.185 539.534 289.102 539.146 288.941C538.759 288.78 538.407 288.545 538.11 288.247C537.814 287.95 537.579 287.598 537.419 287.209C537.259 286.821 537.177 286.406 537.178 285.986V260.215C537.177 259.9 537.238 259.588 537.358 259.297C537.478 259.006 537.655 258.741 537.877 258.519C538.1 258.296 538.364 258.12 538.656 258C538.947 257.879 539.259 257.818 539.574 257.819C554.479 257.819 566.123 255.431 574.507 250.654C582.891 245.877 587.085 239.442 587.09 231.348C587.09 223.343 583.031 216.905 574.913 212.035C566.794 207.164 556.413 204.729 543.768 204.729C530.834 204.826 517.974 206.694 505.547 210.28C504.229 210.659 502.842 210.727 501.494 210.479C500.147 210.23 498.875 209.672 497.78 208.847C496.685 208.023 495.796 206.956 495.184 205.73C494.572 204.503 494.254 203.151 494.253 201.781V188.652C494.252 186.731 494.877 184.862 496.033 183.327C497.189 181.792 498.813 180.675 500.659 180.145C516.459 175.6 533.956 173.324 553.152 173.319Z" fill="#F7D2D2"/>
<path id="Vector_30" d="M199.591 173.71V190.185C199.591 192.532 198.659 194.781 197.001 196.44C195.342 198.099 193.092 199.031 190.746 199.031H115.939C114.669 199.031 113.45 199.536 112.551 200.435C111.653 201.333 111.148 202.552 111.148 203.823V237.511C111.148 238.162 111.281 238.806 111.538 239.404C111.796 240.003 112.173 240.542 112.647 240.989C113.12 241.436 113.68 241.782 114.292 242.005C114.904 242.229 115.555 242.325 116.205 242.287H120.532C137.57 242.287 153.008 244.963 166.847 250.315C180.686 255.667 191.497 263.166 199.282 272.813C207.076 282.455 210.971 293.303 210.966 305.358C210.966 324.352 202.147 339.805 184.509 351.718C166.872 363.63 143.681 369.584 114.937 369.579C91.9426 369.579 71.3245 366.498 53.0824 360.335C51.3251 359.745 49.7975 358.618 48.7156 357.112C47.6336 355.607 47.0518 353.8 47.0525 351.946V337.395C47.0527 335.969 47.3979 334.563 48.0585 333.299C48.7191 332.035 49.6756 330.95 50.8464 330.135C52.0172 329.321 53.3676 328.801 54.7825 328.621C56.1974 328.441 57.6348 328.606 58.9722 329.102C75.4648 335.142 91.3947 338.159 106.762 338.154C121.667 338.154 134.113 335.142 144.099 329.117C154.085 323.092 159.075 315.447 159.07 306.184C159.07 295.775 153.347 287.652 141.902 281.814C130.456 275.975 114.883 273.059 95.1812 273.064C86.651 273.116 78.1335 273.727 69.6831 274.892C69.0052 274.983 68.3157 274.928 67.6605 274.732C67.0054 274.535 66.3997 274.201 65.8841 273.752C65.3684 273.302 64.9546 272.748 64.6703 272.126C64.386 271.504 64.2378 270.828 64.2355 270.144V169.656C64.2355 168.385 64.7403 167.166 65.6389 166.268C66.5375 165.369 67.7562 164.864 69.027 164.864H190.746C193.092 164.864 195.342 165.796 197.001 167.455C198.659 169.114 199.591 171.364 199.591 173.71Z" fill="#B5B5EA"/>
<path id="Vector_31" d="M347.531 162.262C375.744 162.262 398.136 171.472 414.707 189.891C431.279 208.31 439.564 233.471 439.564 265.375C439.564 297.584 431.379 322.993 415.01 341.604C398.64 360.215 376.28 369.52 347.929 369.52C319.18 369.52 296.453 360.286 279.749 341.818C263.046 323.35 254.691 298.06 254.686 265.95C254.686 233.933 263.004 208.646 279.639 190.09C296.274 171.533 318.905 162.257 347.531 162.262ZM306.604 267.13C306.604 313.324 320.246 336.422 347.531 336.422C374.152 336.422 387.46 312.123 387.455 263.525C387.455 218.101 374.012 195.392 347.125 195.397C320.111 195.392 306.604 219.303 306.604 267.13Z" fill="#B5B5EA"/>
<path id="Vector_32" d="M545.78 162.262C571.595 162.262 592.425 166.916 608.269 176.224C624.113 185.532 632.032 197.849 632.027 213.177C632.027 232.225 621.08 246.794 599.187 256.883C598.756 257.087 598.396 257.414 598.153 257.824C597.91 258.233 597.795 258.706 597.823 259.182C597.851 259.657 598.02 260.113 598.309 260.492C598.598 260.871 598.994 261.154 599.445 261.306C611.239 265.238 620.368 270.909 626.83 278.319C634.423 287.047 638.217 297.439 638.212 309.494C638.212 327.431 629.56 341.928 612.257 352.986C594.953 364.043 572.207 369.562 544.019 369.542C524.275 369.597 504.653 366.45 485.916 360.225C484.161 359.635 482.635 358.51 481.554 357.008C480.472 355.506 479.889 353.702 479.886 351.85V336.201C479.89 334.752 480.25 333.327 480.933 332.05C481.617 330.773 482.604 329.683 483.807 328.877C485.01 328.07 486.393 327.571 487.834 327.424C489.275 327.277 490.73 327.486 492.071 328.033C498.24 330.612 504.577 332.769 511.038 334.491C520.491 336.947 530.219 338.185 539.986 338.176C553.029 338.176 563.71 335.5 572.03 330.149C580.35 324.797 584.51 317.831 584.51 309.25C584.51 299.8 579.918 292.254 570.733 286.612C561.548 280.971 548.97 278.143 532.998 278.128C532.578 278.128 532.163 278.045 531.775 277.884C531.387 277.723 531.035 277.488 530.738 277.19C530.442 276.893 530.207 276.54 530.047 276.152C529.887 275.764 529.805 275.348 529.806 274.929V249.158C529.805 248.843 529.867 248.531 529.987 248.24C530.107 247.949 530.283 247.684 530.506 247.462C530.728 247.239 530.993 247.062 531.284 246.942C531.575 246.822 531.887 246.761 532.202 246.762C547.107 246.762 558.752 244.374 567.136 239.597C575.519 234.82 579.714 228.385 579.719 220.291C579.719 212.285 575.66 205.848 567.541 200.977C559.423 196.107 549.041 193.672 536.396 193.672C523.462 193.769 510.602 195.637 498.175 199.223C496.858 199.602 495.471 199.67 494.123 199.422C492.775 199.173 491.503 198.614 490.408 197.79C489.313 196.966 488.425 195.899 487.813 194.672C487.201 193.446 486.882 192.094 486.882 190.724V177.595C486.881 175.674 487.506 173.804 488.661 172.27C489.817 170.735 491.441 169.618 493.288 169.088C509.087 164.542 526.585 162.267 545.78 162.262Z" fill="#B5B5EA"/>
<path id="Vector_33" d="M89.8198 166.135L72.0983 182.551C70.6378 183.904 70.5495 186.183 71.901 187.642C73.2525 189.101 75.5321 189.187 76.9925 187.835L94.714 171.419C96.1745 170.066 96.2628 167.786 94.9113 166.327C93.5598 164.868 91.2802 164.782 89.8198 166.135Z" fill="#D7D7F4"/>
<path id="Vector_34" d="M127.94 248.819C132.838 248.819 136.808 244.848 136.808 239.951C136.808 235.053 132.838 231.083 127.94 231.083C123.043 231.083 119.072 235.053 119.072 239.951C119.072 244.848 123.043 248.819 127.94 248.819Z" fill="#FCF09A"/>
<path id="Vector_35" d="M182.431 264.712C189.254 264.712 194.785 259.18 194.785 252.357C194.785 245.534 189.254 240.002 182.431 240.002C175.607 240.002 170.076 245.534 170.076 252.357C170.076 259.18 175.607 264.712 182.431 264.712Z" fill="#FCF09A"/>
<path id="Vector_36" d="M189.645 279.462L174.257 288.027C172.14 289.205 171.379 291.874 172.556 293.989C173.733 296.104 176.403 296.863 178.52 295.685L193.907 287.12C196.024 285.942 196.785 283.273 195.608 281.158C194.431 279.043 191.761 278.284 189.645 279.462Z" fill="#DCDCF9"/>
<path id="Vector_37" d="M173.084 252.544L158.926 258.544C157.183 259.283 156.369 261.295 157.108 263.038L157.315 263.527C158.054 265.27 160.065 266.084 161.808 265.345L175.966 259.344C177.709 258.605 178.523 256.593 177.785 254.85L177.577 254.362C176.839 252.619 174.827 251.805 173.084 252.544Z" fill="#DCDCF9"/>
<path id="Vector_38" d="M129.931 242.956L129.525 243.298C128.078 244.519 127.896 246.682 129.117 248.128L139.036 259.878C140.257 261.325 142.42 261.508 143.866 260.287L144.272 259.944C145.718 258.723 145.901 256.56 144.68 255.114L134.761 243.364C133.54 241.917 131.377 241.734 129.931 242.956Z" fill="#DCDCF9"/>
<path id="Vector_39" d="M167.049 355.009L152.944 365.553C151.004 367.003 150.606 369.751 152.055 371.689C153.504 373.628 156.252 374.023 158.192 372.573L172.297 362.029C174.237 360.579 174.635 357.831 173.186 355.893C171.737 353.954 168.99 353.558 167.049 355.009Z" fill="#DCDCF9"/>
<path id="Vector_40" d="M174.01 311.95C173.513 309.579 171.19 308.06 168.821 308.556C166.453 309.053 164.935 311.378 165.432 313.748L169.045 330.984C169.542 333.355 171.866 334.874 174.235 334.378C176.603 333.881 178.121 331.557 177.624 329.186L174.01 311.95Z" fill="#DCDCF9"/>
<path id="Vector_41" d="M321.863 357.372C330.237 357.372 337.026 350.583 337.026 342.208C337.026 333.834 330.237 327.045 321.863 327.045C313.489 327.045 306.7 333.834 306.7 342.208C306.7 350.583 313.489 357.372 321.863 357.372Z" fill="#FCF09A"/>
<path id="Vector_42" d="M176.18 360.453C184.277 360.453 190.842 353.889 190.842 345.791C190.842 337.694 184.277 331.129 176.18 331.129C168.082 331.129 161.518 337.694 161.518 345.791C161.518 353.889 168.082 360.453 176.18 360.453Z" fill="#FCF09A"/>
<path id="Vector_43" d="M167.68 312.759C175.778 312.759 182.342 306.195 182.342 298.097C182.342 290 175.778 283.435 167.68 283.435C159.583 283.435 153.018 290 153.018 298.097C153.018 306.195 159.583 312.759 167.68 312.759Z" fill="#FCF09A"/>
<path id="Vector_44" d="M66.1374 205.459C72.92 205.459 78.4184 199.961 78.4184 193.178C78.4184 186.396 72.92 180.897 66.1374 180.897C59.3548 180.897 53.8564 186.396 53.8564 193.178C53.8564 199.961 59.3548 205.459 66.1374 205.459Z" fill="#FCF09A"/>
<path id="Vector_45" d="M149.155 276.263C155.979 276.263 161.51 270.731 161.51 263.908C161.51 257.085 155.979 251.553 149.155 251.553C142.332 251.553 136.801 257.085 136.801 263.908C136.801 270.731 142.332 276.263 149.155 276.263Z" fill="#FCF09A"/>
<g id="circles" opacity="0.3">
<path id="Vector_46" opacity="0.3" d="M141.489 156.394C148.605 156.394 154.374 150.625 154.374 143.509C154.374 136.393 148.605 130.624 141.489 130.624C134.373 130.624 128.604 136.393 128.604 143.509C128.604 150.625 134.373 156.394 141.489 156.394Z" fill="#7474CE"/>
<path id="Vector_47" opacity="0.3" d="M211.224 237.275C216.651 237.275 221.05 232.875 221.05 227.449C221.05 222.022 216.651 217.622 211.224 217.622C205.797 217.622 201.397 222.022 201.397 227.449C201.397 232.875 205.797 237.275 211.224 237.275Z" fill="#7474CE"/>
<path id="Vector_48" opacity="0.3" d="M139.44 316.784C145.376 316.784 150.188 311.972 150.188 306.036C150.188 300.1 145.376 295.289 139.44 295.289C133.504 295.289 128.692 300.1 128.692 306.036C128.692 311.972 133.504 316.784 139.44 316.784Z" fill="#F59188"/>
<path id="Vector_49" opacity="0.3" d="M233.427 406.252C235.641 406.252 237.437 404.457 237.437 402.242C237.437 400.027 235.641 398.232 233.427 398.232C231.212 398.232 229.417 400.027 229.417 402.242C229.417 404.457 231.212 406.252 233.427 406.252Z" fill="#7474CE"/>
<path id="Vector_50" opacity="0.3" d="M206.594 167.909C208.976 167.909 210.907 165.978 210.907 163.596C210.907 161.215 208.976 159.284 206.594 159.284C204.213 159.284 202.282 161.215 202.282 163.596C202.282 165.978 204.213 167.909 206.594 167.909Z" fill="#7474CE"/>
<path id="Vector_51" opacity="0.3" d="M222.325 193.237C226.612 193.237 230.087 189.762 230.087 185.475C230.087 181.188 226.612 177.713 222.325 177.713C218.038 177.713 214.563 181.188 214.563 185.475C214.563 189.762 218.038 193.237 222.325 193.237Z" fill="#F59188"/>
<path id="Vector_52" opacity="0.3" d="M308.307 384.455C312.594 384.455 316.069 380.979 316.069 376.692C316.069 372.405 312.594 368.93 308.307 368.93C304.02 368.93 300.544 372.405 300.544 376.692C300.544 380.979 304.02 384.455 308.307 384.455Z" fill="#F59188"/>
<path id="Vector_53" opacity="0.3" d="M119.78 275.953C123.383 275.953 126.304 273.032 126.304 269.429C126.304 265.826 123.383 262.906 119.78 262.906C116.177 262.906 113.256 265.826 113.256 269.429C113.256 273.032 116.177 275.953 119.78 275.953Z" fill="#7474CE"/>
<path id="Vector_54" opacity="0.3" d="M116.065 213.096C118.772 213.096 120.967 210.901 120.967 208.194C120.967 205.487 118.772 203.292 116.065 203.292C113.357 203.292 111.163 205.487 111.163 208.194C111.163 210.901 113.357 213.096 116.065 213.096Z" fill="#F59188"/>
<path id="Vector_55" opacity="0.3" d="M147.254 237.172C149.847 237.172 151.949 235.069 151.949 232.476C151.949 229.883 149.847 227.78 147.254 227.78C144.66 227.78 142.558 229.883 142.558 232.476C142.558 235.069 144.66 237.172 147.254 237.172Z" fill="#7474CE"/>
</g>
<g id="circles_2" opacity="0.3">
<path id="Vector_56" opacity="0.3" d="M422.683 397.333C429.8 397.333 435.569 391.564 435.569 384.447C435.569 377.331 429.8 371.562 422.683 371.562C415.567 371.562 409.798 377.331 409.798 384.447C409.798 391.564 415.567 397.333 422.683 397.333Z" fill="#7474CE"/>
<path id="Vector_57" opacity="0.3" d="M527.698 364.603C533.125 364.603 537.524 360.204 537.524 354.777C537.524 349.35 533.125 344.951 527.698 344.951C522.271 344.951 517.872 349.35 517.872 354.777C517.872 360.204 522.271 364.603 527.698 364.603Z" fill="#7474CE"/>
<path id="Vector_58" opacity="0.3" d="M513.058 260.097C518.994 260.097 523.806 255.285 523.806 249.349C523.806 243.414 518.994 238.602 513.058 238.602C507.122 238.602 502.311 243.414 502.311 249.349C502.311 255.285 507.122 260.097 513.058 260.097Z" fill="#F59188"/>
<path id="Vector_59" opacity="0.3" d="M645.001 227.316C647.216 227.316 649.011 225.52 649.011 223.306C649.011 221.091 647.216 219.296 645.001 219.296C642.786 219.296 640.991 221.091 640.991 223.306C640.991 225.52 642.786 227.316 645.001 227.316Z" fill="#7474CE"/>
<path id="Vector_60" opacity="0.3" d="M487.715 409.083C490.097 409.083 492.027 407.152 492.027 404.771C492.027 402.389 490.097 400.458 487.715 400.458C485.333 400.458 483.403 402.389 483.403 404.771C483.403 407.152 485.333 409.083 487.715 409.083Z" fill="#7474CE"/>
<path id="Vector_61" opacity="0.3" d="M513.073 403.414C517.36 403.414 520.835 399.939 520.835 395.652C520.835 391.365 517.36 387.89 513.073 387.89C508.786 387.89 505.311 391.365 505.311 395.652C505.311 399.939 508.786 403.414 513.073 403.414Z" fill="#F59188"/>
<path id="Vector_62" opacity="0.3" d="M692.238 294.537C696.525 294.537 700 291.062 700 286.775C700 282.488 696.525 279.012 692.238 279.012C687.951 279.012 684.476 282.488 684.476 286.775C684.476 291.062 687.951 294.537 692.238 294.537Z" fill="#F59188"/>
<path id="Vector_63" opacity="0.3" d="M476.112 274.906C479.715 274.906 482.636 271.986 482.636 268.383C482.636 264.78 479.715 261.859 476.112 261.859C472.509 261.859 469.588 264.78 469.588 268.383C469.588 271.986 472.509 274.906 476.112 274.906Z" fill="#7474CE"/>
<path id="Vector_64" opacity="0.3" d="M438.37 321.642C441.077 321.642 443.272 319.447 443.272 316.74C443.272 314.033 441.077 311.838 438.37 311.838C435.662 311.838 433.468 314.033 433.468 316.74C433.468 319.447 435.662 321.642 438.37 321.642Z" fill="#F59188"/>
<path id="Vector_65" opacity="0.3" d="M477.83 319.092C480.423 319.092 482.525 316.989 482.525 314.396C482.525 311.803 480.423 309.7 477.83 309.7C475.236 309.7 473.134 311.803 473.134 314.396C473.134 316.989 475.236 319.092 477.83 319.092Z" fill="#7474CE"/>
</g>
<g id="spirale2">
<path id="Vector_66" d="M36.9683 309.604C50.7383 332.205 75.9268 346.101 111.693 330.245C137.354 318.878 209.985 220.202 270.653 293.49C283.922 309.523 295.311 330.996 302.815 349.986C303.106 350.59 303.61 351.066 304.231 351.321C304.852 351.575 305.545 351.591 306.176 351.364L308.388 350.627C308.706 350.551 309.005 350.409 309.264 350.209C309.523 350.01 309.738 349.757 309.892 349.469C310.047 349.18 310.139 348.863 310.161 348.536C310.184 348.21 310.137 347.882 310.024 347.575C310.024 347.575 300.64 325.571 300.611 325.512C249.357 225.945 186.057 246.828 114.694 319.187C114.502 319.379 107.639 323.035 107.381 323.153C83.5342 333.871 63.7785 325.947 48.1877 311.735C40.1233 304.385 42.3421 300.758 36.8577 307.688C36.6782 307.98 36.5926 308.321 36.6124 308.663C36.6322 309.006 36.7564 309.334 36.9683 309.604Z" fill="#D7D7F4"/>
<path id="Vector_67" opacity="0.9" d="M40.2398 304.243C38.8971 305.789 39.0621 308.131 40.6083 309.474C42.1545 310.816 44.4964 310.651 45.8391 309.105L51.349 302.76C52.6916 301.214 52.5266 298.872 50.9804 297.529C49.4342 296.187 47.0924 296.352 45.7497 297.898L40.2398 304.243Z" fill="#B6F2B6"/>
<path id="Vector_68" opacity="0.9" d="M54.0023 318.289C53.0199 320.086 53.68 322.339 55.4767 323.321C57.2734 324.304 59.5264 323.644 60.5089 321.847L64.5406 314.474C65.5231 312.677 64.863 310.424 63.0662 309.441C61.2695 308.459 59.0165 309.119 58.034 310.916L54.0023 318.289Z" fill="#B6F2B6"/>
<path id="Vector_69" opacity="0.9" d="M68.994 324.804C68.4823 326.786 69.6749 328.809 71.6578 329.32C73.6406 329.832 75.6629 328.639 76.1745 326.657L78.2744 318.52C78.7861 316.537 77.5934 314.515 75.6106 314.003C73.6278 313.491 71.6055 314.684 71.0938 316.667L68.994 324.804Z" fill="#B6F2B6"/>
<path id="Vector_70" opacity="0.9" d="M98.0909 326.563C98.4063 328.586 100.302 329.971 102.326 329.656C104.349 329.34 105.734 327.444 105.418 325.421L104.124 317.118C103.808 315.094 101.912 313.71 99.8891 314.025C97.8658 314.34 96.4812 316.236 96.7966 318.26L98.0909 326.563Z" fill="#B6F2B6"/>
<path id="Vector_71" opacity="0.9" d="M120.262 313.423C121.547 315.017 123.881 315.268 125.476 313.983C127.07 312.699 127.321 310.364 126.037 308.77L120.764 302.226C119.479 300.631 117.145 300.38 115.55 301.665C113.956 302.95 113.705 305.284 114.99 306.879L120.262 313.423Z" fill="#B6F2B6"/>
<path id="Vector_72" opacity="0.9" d="M135.616 299.514C136.901 301.109 139.235 301.36 140.83 300.075C142.424 298.79 142.675 296.456 141.391 294.862L136.118 288.318C134.833 286.723 132.499 286.472 130.904 287.757C129.31 289.042 129.059 291.376 130.344 292.971L135.616 299.514Z" fill="#B6F2B6"/>
<path id="Vector_73" opacity="0.9" d="M151.603 286.514C152.888 288.109 155.223 288.36 156.817 287.075C158.412 285.79 158.663 283.456 157.378 281.862L152.105 275.318C150.821 273.723 148.486 273.472 146.892 274.757C145.297 276.042 145.046 278.376 146.331 279.971L151.603 286.514Z" fill="#B6F2B6"/>
<path id="Vector_74" opacity="0.9" d="M239.14 263.044C238.403 264.949 239.349 267.09 241.254 267.827C243.158 268.564 245.3 267.618 246.037 265.714L249.062 257.898C249.799 255.994 248.853 253.853 246.949 253.115C245.044 252.378 242.903 253.324 242.166 255.229L239.14 263.044Z" fill="#B6F2B6"/>
<path id="Vector_75" opacity="0.9" d="M252.312 267.86C251.329 269.656 251.989 271.909 253.786 272.892C255.583 273.874 257.836 273.214 258.818 271.417L262.85 264.044C263.832 262.247 263.172 259.994 261.376 259.012C259.579 258.03 257.326 258.69 256.343 260.486L252.312 267.86Z" fill="#B6F2B6"/>
<path id="Vector_76" opacity="0.9" d="M263.119 277.771C262.136 279.568 262.796 281.821 264.593 282.803C266.39 283.786 268.643 283.126 269.625 281.329L273.657 273.956C274.639 272.159 273.979 269.906 272.182 268.924C270.386 267.941 268.133 268.601 267.15 270.398L263.119 277.771Z" fill="#B6F2B6"/>
<path id="Vector_77" opacity="0.9" d="M290.293 312.528C288.698 313.813 288.447 316.147 289.732 317.741C291.017 319.336 293.351 319.587 294.946 318.302L301.489 313.03C303.084 311.745 303.335 309.411 302.05 307.816C300.765 306.221 298.431 305.97 296.836 307.255L290.293 312.528Z" fill="#B6F2B6"/>
<path id="Vector_78" opacity="0.9" d="M275.505 289.004C274.15 290.539 274.296 292.883 275.831 294.238C277.367 295.593 279.71 295.446 281.065 293.911L286.626 287.61C287.981 286.075 287.834 283.732 286.299 282.377C284.764 281.022 282.42 281.168 281.065 282.703L275.505 289.004Z" fill="#B6F2B6"/>
<path id="Vector_79" opacity="0.9" d="M300.854 327.389C299.159 328.537 298.716 330.843 299.864 332.538C301.013 334.234 303.318 334.677 305.014 333.528L311.971 328.814C313.666 327.666 314.109 325.36 312.96 323.665C311.812 321.969 309.506 321.526 307.811 322.675L300.854 327.389Z" fill="#B6F2B6"/>
<path id="Vector_80" opacity="0.9" d="M304.791 344.577C303.032 345.769 302.572 348.162 303.764 349.921C304.956 351.681 307.348 352.141 309.108 350.949L315.833 346.392C317.592 345.2 318.052 342.807 316.86 341.048C315.668 339.288 313.275 338.829 311.516 340.021L304.791 344.577Z" fill="#B6F2B6"/>
</g>
<path id="Vector_81" d="M260.35 339.094C258.751 337.909 256.494 338.243 255.31 339.841C254.126 341.438 254.462 343.694 256.061 344.88L275.467 359.266C277.066 360.451 279.323 360.117 280.507 358.52C281.692 356.922 281.355 354.666 279.756 353.48L260.35 339.094Z" fill="#DCDCF9"/>
<path id="Vector_82" d="M361.964 375.727C361.964 373.736 360.352 372.122 358.363 372.122C356.374 372.122 354.762 373.736 354.762 375.727V399.883C354.762 401.874 356.374 403.488 358.363 403.488C360.352 403.488 361.964 401.874 361.964 399.883V375.727Z" fill="#DCDCF9"/>
<path id="Vector_83" d="M331.282 345.479C329.557 344.483 327.354 345.072 326.359 346.795C325.365 348.517 325.956 350.72 327.681 351.716L348.601 363.794C350.325 364.789 352.529 364.2 353.523 362.478C354.517 360.755 353.926 358.552 352.202 357.557L331.282 345.479Z" fill="#DCDCF9"/>
<path id="Vector_84" d="M309.532 343.265L288.612 355.343C286.888 356.339 286.296 358.542 287.291 360.264C288.285 361.986 290.489 362.576 292.213 361.58L313.133 349.502C314.857 348.507 315.449 346.303 314.454 344.581C313.46 342.859 311.256 342.27 309.532 343.265Z" fill="#DCDCF9"/>
<path id="Vector_85" d="M240.373 340.23L222.231 356.18C220.736 357.494 220.588 359.771 221.902 361.265C223.215 362.758 225.491 362.903 226.986 361.589L245.129 345.639C246.624 344.325 246.771 342.048 245.458 340.555C244.145 339.061 241.869 338.916 240.373 340.23Z" fill="#DCDCF9"/>
<path id="Vector_86" d="M250.352 349.506C257.468 349.506 263.237 343.737 263.237 336.621C263.237 329.504 257.468 323.735 250.352 323.735C243.235 323.735 237.466 329.504 237.466 336.621C237.466 343.737 243.235 349.506 250.352 349.506Z" fill="#F9EE9D"/>
<path id="Vector_87" d="M285.713 374.127C292.072 374.127 297.227 368.972 297.227 362.613C297.227 356.254 292.072 351.098 285.713 351.098C279.354 351.098 274.199 356.254 274.199 362.613C274.199 368.972 279.354 374.127 285.713 374.127Z" fill="#F9EE9D"/>
<path id="Vector_88" opacity="0.9" d="M358.632 420.767C364.385 420.767 369.048 416.103 369.048 410.351C369.048 404.598 364.385 399.935 358.632 399.935C352.88 399.935 348.216 404.598 348.216 410.351C348.216 416.103 352.88 420.767 358.632 420.767Z" fill="#FCF2A7"/>
<path id="Vector_89" d="M360.19 379.095C367.329 378.112 372.303 371.411 371.3 364.127C370.297 356.843 363.697 351.735 356.558 352.718C349.42 353.701 344.446 360.403 345.449 367.686C346.451 374.97 353.052 380.078 360.19 379.095Z" fill="#FCF2A7"/>
<path id="Vector_90" d="M147.556 384.948C152.954 384.948 157.331 380.572 157.331 375.174C157.331 369.775 152.954 365.399 147.556 365.399C142.158 365.399 137.781 369.775 137.781 375.174C137.781 380.572 142.158 384.948 147.556 384.948Z" fill="#FCF09A"/>
<path id="Vector_91" d="M513.781 176.614C518.682 176.614 522.656 172.641 522.656 167.739C522.656 162.837 518.682 158.864 513.781 158.864C508.879 158.864 504.905 162.837 504.905 167.739C504.905 172.641 508.879 176.614 513.781 176.614Z" fill="#FCF09A"/>
<path id="Vector_92" d="M560.074 211.379C566.897 211.379 572.429 205.847 572.429 199.024C572.429 192.201 566.897 186.669 560.074 186.669C553.251 186.669 547.719 192.201 547.719 199.024C547.719 205.847 553.251 211.379 560.074 211.379Z" fill="#FCF09A"/>
<path id="Vector_93" d="M601.704 259.542L586.316 268.106C584.2 269.284 583.438 271.954 584.615 274.069C585.792 276.184 588.462 276.943 590.579 275.765L605.967 267.2C608.083 266.022 608.845 263.353 607.668 261.238C606.491 259.123 603.821 258.364 601.704 259.542Z" fill="#DCDCF9"/>
<path id="Vector_94" d="M551.325 195.759L535.956 196.229C534.063 196.287 532.576 197.868 532.634 199.76L532.65 200.29C532.708 202.183 534.289 203.67 536.181 203.612L551.551 203.142C553.443 203.084 554.93 201.504 554.873 199.611L554.856 199.081C554.799 197.189 553.218 195.702 551.325 195.759Z" fill="#DCDCF9"/>
<path id="Vector_95" d="M514.544 171.259L514.042 171.432C512.251 172.046 511.297 173.996 511.912 175.786L516.903 190.331C517.517 192.121 519.467 193.075 521.258 192.46L521.76 192.288C523.55 191.674 524.504 189.724 523.889 187.933L518.898 173.389C518.284 171.598 516.334 170.645 514.544 171.259Z" fill="#DCDCF9"/>
<path id="Vector_96" d="M579.125 335.103L565.02 345.648C563.08 347.098 562.682 349.845 564.131 351.784C565.58 353.722 568.327 354.118 570.268 352.668L584.373 342.123C586.313 340.673 586.711 337.926 585.262 335.987C583.813 334.049 581.065 333.653 579.125 335.103Z" fill="#DCDCF9"/>
<path id="Vector_97" d="M586.077 292.053C585.58 289.683 583.256 288.163 580.888 288.66C578.519 289.157 577.001 291.481 577.498 293.852L581.112 311.088C581.609 313.458 583.932 314.978 586.301 314.481C588.67 313.985 590.187 311.66 589.69 309.289L586.077 292.053Z" fill="#DCDCF9"/>
<path id="Vector_98" d="M588.248 340.55C596.345 340.55 602.91 333.985 602.91 325.888C602.91 317.79 596.345 311.226 588.248 311.226C580.15 311.226 573.586 317.79 573.586 325.888C573.586 333.985 580.15 340.55 588.248 340.55Z" fill="#FCF09A"/>
<path id="Vector_99" d="M579.748 292.856C587.846 292.856 594.41 286.292 594.41 278.194C594.41 270.097 587.846 263.532 579.748 263.532C571.651 263.532 565.086 270.097 565.086 278.194C565.086 286.292 571.651 292.856 579.748 292.856Z" fill="#FCF09A"/>
<path id="Vector_100" d="M524.875 210.096C531.698 210.096 537.229 204.565 537.229 197.741C537.229 190.918 531.698 185.387 524.875 185.387C518.051 185.387 512.52 190.918 512.52 197.741C512.52 204.565 518.051 210.096 524.875 210.096Z" fill="#FCF09A"/>
<path id="Vector_101" d="M559.624 365.045C565.023 365.045 569.399 360.669 569.399 355.271C569.399 349.872 565.023 345.496 559.624 345.496C554.226 345.496 549.85 349.872 549.85 355.271C549.85 360.669 554.226 365.045 559.624 365.045Z" fill="#FCF09A"/>
<path id="Vector_102" d="M216.804 379.177C224.002 379.177 229.837 373.342 229.837 366.144C229.837 358.946 224.002 353.111 216.804 353.111C209.606 353.111 203.771 358.946 203.771 366.144C203.771 373.342 209.606 379.177 216.804 379.177Z" fill="#FCF09A"/>
</g>
<g id="protein">
<g id="proteins 3">
<path id="Vector_103" d="M348.703 287.364C399.788 287.364 441.201 245.951 441.201 194.866C441.201 143.781 399.788 102.368 348.703 102.368C297.618 102.368 256.205 143.781 256.205 194.866C256.205 245.951 297.618 287.364 348.703 287.364Z" fill="#6BF2F9"/>
<path id="Vector_104" d="M238.094 190.829C252.216 186.013 262.828 179.654 261.795 176.625C260.762 173.597 248.476 175.045 234.354 179.861C220.232 184.677 209.62 191.037 210.653 194.065C211.686 197.094 223.972 195.645 238.094 190.829Z" fill="#46D6FA"/>
<path id="Vector_105" d="M230.01 181.071C238.946 172.256 244.792 163.694 243.068 161.946C241.344 160.198 232.702 165.927 223.767 174.742C214.831 183.556 208.986 192.119 210.71 193.867C212.434 195.614 221.075 189.885 230.01 181.071Z" fill="#46D6FA"/>
<path id="Vector_106" d="M472.33 216.753C474.739 214.647 468.733 203.832 458.915 192.597C449.096 181.362 439.183 173.961 436.774 176.067C434.364 178.172 440.371 188.987 450.189 200.222C460.007 211.458 469.92 218.859 472.33 216.753Z" fill="#46D6FA"/>
<path id="Vector_107" opacity="0.28" d="M437.684 213.037C437.684 218.064 434.633 232.122 430.121 239.737C426.288 246.209 423.664 251.111 415.061 260.031C408.787 266.546 401.458 271.954 393.382 276.027C385.383 280.111 369.984 286.244 365.097 285.558C353.022 283.848 403.562 267.933 407.292 261.048C411.022 254.163 415.4 254.266 421.386 245.177C428.02 235.1 433.431 216.376 434.478 209.351C435.466 202.717 437.633 202.997 437.684 213.037Z" fill="#00A7D5"/>
<path id="Vector_108" d="M326.868 225.149C320.757 230.802 300.943 210.147 300.943 210.147C307.629 213.162 322.04 220.468 326.868 225.149Z" fill="#6969A3"/>
<path id="Vector_109" d="M436.847 17.9798C441.761 17.0585 444.997 12.3282 444.076 7.41439C443.155 2.50061 438.424 -0.735876 433.51 0.185488C428.597 1.10685 425.36 5.83716 426.282 10.7509C427.203 15.6647 431.933 18.9012 436.847 17.9798Z" fill="#6BF2F9"/>
<path id="Vector_110" d="M438.377 10.6445C438.112 11.0354 437.927 11.4747 437.832 11.9373C437.738 12.3998 437.735 12.8766 437.825 13.3401C437.914 13.8037 438.095 14.245 438.355 14.6388C438.616 15.0326 438.951 15.3712 439.343 15.635L451.263 23.788C452.046 24.3164 453.007 24.5145 453.935 24.3393C454.864 24.164 455.686 23.6295 456.224 22.8518C456.49 22.4626 456.677 22.0249 456.774 21.5634C456.871 21.102 456.876 20.626 456.789 20.1626C456.702 19.6992 456.525 19.2574 456.267 18.8625C456.01 18.4677 455.677 18.1274 455.287 17.8613L443.368 9.70834C442.581 9.17253 441.614 8.97021 440.679 9.14567C439.744 9.32114 438.916 9.86009 438.377 10.6445Z" fill="#C3D7E2"/>
<path id="Vector_111" d="M462.371 51.3943C471.963 51.3943 479.739 43.6187 479.739 34.027C479.739 24.4353 471.963 16.6597 462.371 16.6597C452.78 16.6597 445.004 24.4353 445.004 34.027C445.004 43.6187 452.78 51.3943 462.371 51.3943Z" fill="#46D6FA"/>
<path id="Vector_112" d="M462.534 37.9854C460.906 38.5497 459.568 39.7363 458.813 41.2853C458.059 42.8343 457.949 44.6193 458.509 46.2489L466.964 71.0393C467.524 72.6734 468.709 74.0187 470.26 74.7801C471.81 75.5415 473.599 75.6569 475.235 75.101C476.87 74.5427 478.217 73.3577 478.978 71.8067C479.74 70.2556 479.854 68.4656 479.297 66.8302L470.805 42.0176C470.24 40.3878 469.053 39.0482 467.502 38.2923C465.952 37.5365 464.165 37.4261 462.534 37.9854Z" fill="#C3D7E2"/>
<path id="Vector_113" d="M476.599 127.668C492.883 127.668 506.085 114.466 506.085 98.1814C506.085 81.8967 492.883 68.6953 476.599 68.6953C460.314 68.6953 447.113 81.8967 447.113 98.1814C447.113 114.466 460.314 127.668 476.599 127.668Z" fill="#00A6D5"/>
<path id="Vector_114" d="M449.626 101.824L415.108 124.653C410.368 127.788 409.067 134.173 412.202 138.913L412.206 138.919C415.341 143.66 421.726 144.961 426.466 141.826L460.983 118.996C465.724 115.861 467.025 109.477 463.89 104.736L463.886 104.73C460.75 99.9899 454.366 98.6887 449.626 101.824Z" fill="#C3D7E2"/>
<path id="Vector_115" d="M490.801 91.8344C491.771 86.8273 487.668 81.82 481.636 80.6505C475.603 79.4809 469.926 82.5919 468.955 87.5991C467.984 92.6062 472.088 97.6134 478.12 98.783C484.153 99.9525 489.83 96.8416 490.801 91.8344Z" fill="#61D8E5"/>
<path id="Vector_116" d="M301.826 58.1943C306.082 55.8277 307.613 50.4596 305.246 46.2043C302.88 41.9489 297.512 40.4178 293.256 42.7843C289.001 45.1509 287.47 50.519 289.836 54.7743C292.203 59.0297 297.571 60.5608 301.826 58.1943Z" fill="#6BF2F9"/>
<path id="Vector_117" d="M270.491 49.087C270.564 48.1379 271.011 47.2568 271.734 46.6375C272.457 46.0181 273.397 45.7114 274.346 45.7846L288.743 46.8903C289.692 46.9656 290.572 47.4133 291.192 48.1356C291.812 48.8579 292.122 49.7962 292.052 50.7456C291.979 51.6892 291.536 52.5656 290.819 53.1841C290.103 53.8026 289.171 54.1131 288.227 54.048L273.823 52.9423C273.35 52.9087 272.889 52.7822 272.466 52.5701C272.043 52.358 271.666 52.0645 271.356 51.7063C271.047 51.3481 270.811 50.9324 270.662 50.4829C270.514 50.0335 270.455 49.5591 270.491 49.087Z" fill="#C3D7E2"/>
<path id="Vector_118" d="M263.606 67.4717C272.766 67.4717 280.192 60.0459 280.192 50.8857C280.192 41.7256 272.766 34.2998 263.606 34.2998C254.446 34.2998 247.02 41.7256 247.02 50.8857C247.02 60.0459 254.446 67.4717 263.606 67.4717Z" fill="#46D6FA"/>
<path id="Vector_119" d="M232.653 77.5853C232.111 76.9734 231.696 76.2607 231.43 75.488C231.165 74.7153 231.054 73.8979 231.105 73.0824C231.155 72.267 231.366 71.4695 231.726 70.7357C232.085 70.0018 232.585 69.346 233.198 68.8058L251.944 52.2494C252.556 51.708 253.269 51.2926 254.041 51.027C254.814 50.7614 255.631 50.6507 256.447 50.7014C257.262 50.7521 258.06 50.9631 258.794 51.3223C259.527 51.6815 260.183 52.1819 260.723 52.7949C261.819 54.0269 262.382 55.6436 262.286 57.2899C262.191 58.9361 261.446 60.4771 260.215 61.5743L241.432 78.1382C240.82 78.6791 240.107 79.0939 239.334 79.3589C238.561 79.6239 237.743 79.7339 236.928 79.6826C236.112 79.6312 235.315 79.4195 234.581 79.0597C233.848 78.6998 233.192 78.1988 232.653 77.5853Z" fill="#C3D7E2"/>
<path id="Vector_120" d="M223.468 126.93C239.753 126.93 252.954 113.729 252.954 97.4441C252.954 81.1594 239.753 67.958 223.468 67.958C207.183 67.958 193.982 81.1594 193.982 97.4441C193.982 113.729 207.183 126.93 223.468 126.93Z" fill="#00A6D5"/>
<path id="Vector_121" d="M237.634 106.954L237.63 106.96C234.494 111.7 235.796 118.085 240.536 121.22L275.053 144.049C279.794 147.184 286.178 145.883 289.313 141.143L289.317 141.137C292.453 136.396 291.151 130.012 286.411 126.877L251.894 104.047C247.153 100.912 240.769 102.213 237.634 106.954Z" fill="#C3D7E2"/>
<path id="Vector_122" d="M218.179 94.912C224.212 93.7424 228.315 88.7352 227.344 83.7281C226.373 78.7209 220.696 75.61 214.664 76.7795C208.631 77.9491 204.528 82.9563 205.498 87.9634C206.469 92.9706 212.147 96.0816 218.179 94.912Z" fill="#6BF2F9"/>
<path id="Vector_123" d="M455.098 228.358C466.645 223.337 475.21 217.436 474.228 215.178C473.246 212.919 463.089 215.158 451.542 220.179C439.994 225.199 431.429 231.1 432.411 233.359C433.393 235.617 443.55 233.378 455.098 228.358Z" fill="#46D6FA"/>
<path id="Vector_124" d="M436.907 257.501C439.121 257.193 440.168 251.566 439.245 244.933C438.322 238.3 435.779 233.172 433.566 233.48C431.352 233.788 430.305 239.415 431.228 246.048C432.151 252.682 434.693 257.809 436.907 257.501Z" fill="#46D6FA"/>
<path id="Vector_125" d="M432.94 250.186C434.685 241.21 434.434 233.61 432.38 233.21C430.325 232.811 427.246 239.764 425.501 248.74C423.756 257.716 424.007 265.316 426.061 265.715C428.116 266.114 431.195 259.162 432.94 250.186Z" fill="#46D6FA"/>
<path id="Vector_126" d="M445.119 240.195C445.973 238.808 444.155 236.136 441.057 234.226C437.959 232.315 434.755 231.89 433.9 233.277C433.045 234.663 434.864 237.335 437.962 239.245C441.06 241.156 444.264 241.581 445.119 240.195Z" fill="#46D6FA"/>
<path id="Vector_127" d="M256.031 166.425C263.258 166.081 269.027 163.931 268.917 161.621C268.807 159.311 262.86 157.717 255.634 158.06C248.407 158.403 242.638 160.554 242.748 162.864C242.858 165.174 248.805 166.768 256.031 166.425Z" fill="#46D6FA"/>
<path id="Vector_128" d="M260.549 158.356C269.525 154.516 276.103 149.771 275.242 147.757C274.38 145.743 266.406 147.224 257.43 151.063C248.454 154.903 241.876 159.648 242.737 161.662C243.598 163.676 251.573 162.195 260.549 158.356Z" fill="#46D6FA"/>
<path id="Vector_129" d="M252.103 173.113C253.355 171.944 252.234 168.706 249.597 165.882C246.961 163.058 243.808 161.716 242.555 162.886C241.302 164.056 242.424 167.293 245.06 170.117C247.697 172.942 250.85 174.283 252.103 173.113Z" fill="#46D6FA"/>
</g>
<path id="Vector_130" d="M348.717 202.157C372.969 202.157 392.63 190.276 392.63 175.619C392.63 160.963 372.969 149.082 348.717 149.082C324.465 149.082 304.805 160.963 304.805 175.619C304.805 190.276 324.465 202.157 348.717 202.157Z" fill="#46D6FA"/>
<path id="Vector_131" d="M391.878 182.253C391.878 193.244 372.903 202.157 349.491 202.157C326.08 202.157 307.105 193.244 307.105 182.253C307.105 176.467 312.376 171.255 320.779 167.621C328.335 164.348 338.412 162.35 349.491 162.35H350.597C373.493 162.63 391.878 171.432 391.878 182.253Z" fill="white"/>
<path id="Vector_132" d="M351.696 169.759C351.696 169.95 351.696 170.142 351.696 170.334C351.532 174.379 349.808 178.204 346.883 181.005C343.959 183.806 340.063 185.364 336.014 185.353C331.965 185.341 328.078 183.761 325.17 180.944C322.262 178.127 320.559 174.292 320.418 170.245C320.418 170.083 320.418 169.921 320.418 169.759C320.419 169.044 320.468 168.329 320.566 167.621C327.989 164.348 337.896 162.35 348.784 162.35H349.867C351.082 164.63 351.711 167.176 351.696 169.759Z" fill="#6969A3"/>
<path id="Vector_133" d="M333.082 178.575C336.714 178.575 339.658 175.631 339.658 172C339.658 168.368 336.714 165.424 333.082 165.424C329.451 165.424 326.507 168.368 326.507 172C326.507 175.631 329.451 178.575 333.082 178.575Z" fill="white"/>
<path id="Vector_134" d="M395.564 176.246C395.564 179.489 393.588 182.534 390.079 185.202C391.12 184.178 391.733 182.798 391.797 181.339C391.797 175.656 381.204 170.776 366.092 168.668C363.586 168.321 360.932 168.041 358.205 167.857C355.477 167.673 352.411 167.562 349.396 167.562C346.661 167.562 343.985 167.636 341.398 167.798C338.663 167.975 336.024 168.233 333.503 168.535C317.956 170.57 306.965 175.523 306.965 181.31C306.966 181.961 307.104 182.604 307.371 183.197C305.284 181.045 304.135 178.693 304.135 176.231C304.135 167.85 317.403 160.751 335.714 158.303C345.049 157.09 354.502 157.09 363.837 158.303C382.251 160.736 395.564 167.85 395.564 176.246Z" fill="#00A6D5"/>
</g>
</g>
</g>
</g>
<defs>
<clipPath id="clip0">
<rect width="700" height="420.774" fill="white"/>
</clipPath>
</defs>
</svg>
