<svg xmlns="http://www.w3.org/2000/svg" viewBox="0 0 423.39 389.83"><defs><style>.cls-1{fill:#6bf2f9;}.cls-2{fill:#46d6fa;}.cls-3{fill:#00a7d5;opacity:0.28;isolation:isolate;}.cls-4{fill:#6969a3;}.cls-5{fill:#c3d7e2;}.cls-6{fill:#00a6d5;}.cls-7{fill:#61d8e5;}.cls-8{fill:#fff;}</style></defs><g id="Layer_2" data-name="Layer 2"><g id="protein"><g id="proteins_3" data-name="proteins 3"><circle class="cls-1" cx="209.89" cy="264.35" r="125.48"/><ellipse class="cls-2" cx="57.29" cy="251.44" rx="36.65" ry="7.86" transform="translate(-78.09 31.95) rotate(-18.83)"/><ellipse class="cls-2" cx="44.64" cy="241.32" rx="30.83" ry="6.03" transform="translate(-156.62 100.89) rotate(-44.61)"/><ellipse class="cls-2" cx="353.48" cy="266.44" rx="7.86" ry="36.65" transform="translate(-88.01 298.42) rotate(-41.15)"/><path class="cls-3" d="M330.6,289c0,6.82-4.14,25.89-10.26,36.22-5.2,8.78-8.76,15.43-20.43,27.53a109.06,109.06,0,0,1-29.41,21.7c-10.85,5.54-31.74,13.86-38.37,12.93-16.38-2.32,52.18-23.91,57.24-33.25s11-9.2,19.12-21.53c9-13.67,16.34-39.07,17.76-48.6C327.59,275,330.53,275.38,330.6,289Z"/><path class="cls-4" d="M180.26,305.43c-8.28,7.67-35.16-20.35-35.16-20.35C154.17,289.17,173.72,299.08,180.26,305.43Z"/><circle class="cls-1" cx="327.2" cy="12.28" r="12.28" transform="translate(3.34 60.53) rotate(-10.62)"/><path class="cls-5" d="M331.54,14.44h0a4.87,4.87,0,0,0,1.27,6.77L349,32.27A4.87,4.87,0,0,0,355.75,31h0a4.87,4.87,0,0,0-1.27-6.77L338.31,13.17A4.88,4.88,0,0,0,331.54,14.44Z"/><circle class="cls-2" cx="364.09" cy="46.16" r="23.56"/><path class="cls-5" d="M364.31,51.53h0a8.83,8.83,0,0,0-5.51,11.21l11.48,33.63a8.85,8.85,0,0,0,11.22,5.51h0A8.84,8.84,0,0,0,387,90.66L375.53,57A8.84,8.84,0,0,0,364.31,51.53Z"/><circle class="cls-6" cx="383.39" cy="133.19" r="40"/><rect class="cls-5" x="289.06" y="151.3" width="84.06" height="27.93" rx="13.96" transform="translate(-36.24 210.07) rotate(-33.48)"/><ellipse class="cls-7" cx="389.32" cy="121.04" rx="12.55" ry="15.12" transform="matrix(0.19, -0.98, 0.98, 0.19, 195.78, 479.88)"/><circle class="cls-1" cx="140.49" cy="68.51" r="11.96" transform="translate(-15.59 76.91) rotate(-29.08)"/><path class="cls-5" d="M103.79,66.59h0A4.87,4.87,0,0,1,109,62.11l19.53,1.5A4.87,4.87,0,0,1,133,68.84h0a4.86,4.86,0,0,1-5.23,4.48l-19.53-1.5A4.87,4.87,0,0,1,103.79,66.59Z"/><circle class="cls-2" cx="94.45" cy="69.03" r="22.5"/><path class="cls-5" d="M52.45,105.25h0a8.45,8.45,0,0,1,.74-11.91L78.63,70.88a8.43,8.43,0,0,1,11.91.74h0a8.44,8.44,0,0,1-.74,11.91L64.37,106A8.44,8.44,0,0,1,52.45,105.25Z"/><circle class="cls-6" cx="40" cy="132.19" r="40"/><rect class="cls-5" x="80.31" y="126.25" width="27.93" height="84.06" rx="13.96" transform="translate(-98.09 154.08) rotate(-56.52)"/><ellipse class="cls-1" cx="31.08" cy="116.03" rx="15.12" ry="12.55" transform="matrix(0.98, -0.19, 0.19, 0.98, -21.7, 8.13)"/><ellipse class="cls-2" cx="349.62" cy="304.33" rx="30.83" ry="6.03" transform="matrix(0.92, -0.4, 0.4, 0.92, -92.31, 164.51)"/><ellipse class="cls-2" cx="327.3" cy="332.98" rx="5.49" ry="16.45" transform="translate(-42.78 48.3) rotate(-7.92)"/><ellipse class="cls-2" cx="319.14" cy="338.43" rx="22.46" ry="5.14" transform="translate(-73.98 587.12) rotate(-79)"/><ellipse class="cls-2" cx="333.09" cy="321.17" rx="4" ry="8.94" transform="translate(-115.12 436.1) rotate(-58.34)"/><ellipse class="cls-2" cx="83.89" cy="220.12" rx="17.77" ry="5.68" transform="translate(-10.34 4.22) rotate(-2.72)"/><ellipse class="cls-2" cx="88.18" cy="209.87" rx="23.98" ry="5.38" transform="translate(-75.44 51.6) rotate(-23.16)"/><ellipse class="cls-2" cx="72.37" cy="227.93" rx="4.21" ry="9.49" transform="translate(-136.06 110.68) rotate(-43.03)"/></g><ellipse class="cls-2" cx="209.91" cy="238.24" rx="59.57" ry="36"/><path class="cls-8" d="M268.46,247.24c0,14.91-25.74,27-57.5,27s-57.5-12.09-57.5-27c0-7.85,7.15-14.92,18.55-19.85,10.24-4.44,23.92-7.15,39-7.15h1.5C243.52,220.62,268.46,232.56,268.46,247.24Z"/><path class="cls-4" d="M214,230.29c0,.26,0,.52,0,.78A21.23,21.23,0,0,1,171.5,231c0-.22,0-.44,0-.66a21.4,21.4,0,0,1,.2-2.9c10.07-4.44,23.51-7.15,38.28-7.15h1.47A21.11,21.11,0,0,1,214,230.29Z"/><circle class="cls-8" cx="188.7" cy="233.33" r="8.92"/><path class="cls-6" d="M273.46,239.09c0,4.4-2.68,8.53-7.44,12.15a7.88,7.88,0,0,0,2.33-5.26c0-7.71-14.37-14.33-34.87-17.19-3.41-.47-7-.85-10.7-1.1-3.86-.27-7.86-.4-11.95-.4-3.71,0-7.34.1-10.85.32-3.71.24-7.29.59-10.71,1-21.09,2.76-36,9.48-36,17.33a6.28,6.28,0,0,0,.55,2.56c-2.83-2.92-4.39-6.11-4.39-9.45,0-11.37,18-21,42.84-24.32a147.93,147.93,0,0,1,38.15,0C255.39,218.05,273.46,227.7,273.46,239.09Z"/></g></g></svg>