<svg xmlns="http://www.w3.org/2000/svg" viewBox="0 0 635.49 635"><defs><style>.cls-1{fill:#f8fdff;}.cls-2{fill:#eefdff;}.cls-3{fill:#f7f7f7;}.cls-4{fill:#e1ecef;}.cls-5{fill:#cae0e8;}.cls-6{fill:#b8d4e0;}.cls-7{fill:#f2f2f2;}.cls-8{fill:#fdfffe;}.cls-11,.cls-9{fill:#e4e8eb;}.cls-16,.cls-9{opacity:0.5;}.cls-10{fill:#efefef;}.cls-12{fill:#d2dce3;}.cls-13{fill:#fcee21;opacity:0.6;}.cls-14{fill:#fcc695;}.cls-15{fill:#f9ee9d;}.cls-16{fill:#d9e021;}.cls-17{fill:#6bf2f9;}.cls-18{fill:#c3d7e2;}.cls-19{fill:#46d6fa;}.cls-20{fill:#00a6d5;}.cls-21{fill:#00a7d5;opacity:0.3;}.cls-22{fill:#61d8e5;}.cls-23{fill:#b5b5ea;}.cls-24{fill:#6969a3;}.cls-25{fill:#ff1d25;opacity:0.8;}.cls-26{fill:#ff5267;}.cls-27{fill:#cfe0e8;}</style></defs><g id="Layer_2" data-name="Layer 2"><g id="bacground"><path class="cls-1" d="M230.59,563.1C73.4,509.66-31.2,409.1,58.64,224.72c32.87-67.48,52.9-136.24,152.08-173.89C269.9,28.37,372.43,152.76,428.08,179.88c110.65,53.91,174.21,84.88,196.49,138.72,19.11,46.2-162.33,117-203.05,145.75C353.65,512.2,303.61,587.93,230.59,563.1Z"/><path class="cls-2" d="M175.09,612.93C62.72,574.72-12,502.84,52.17,371,75.67,322.8,90,273.64,160.89,246.73c42.3-16.06,115.59,72.87,155.38,92.25,79.09,38.54,124.53,60.68,140.46,99.16,13.66,33-116,83.67-145.15,104.19C263.06,576.54,227.29,630.68,175.09,612.93Z"/><path class="cls-3" d="M284.28,594.05c-86.26-82-121.44-180.5,1.3-279,44.91-36,81.73-76.7,160.54-73.23,47,2.07,72.68,116.09,100.42,150.66,55.14,68.73,86.82,108.21,83.24,151.11C626.7,580.42,481.85,575.41,445,583,383.49,595.52,324.35,632.13,284.28,594.05Z"/><path class="cls-4" d="M362.59,634.78c-173.14-5.89-317.15-27.63-313.44-83.21,1.36-20.34-10.07-40.32,67.55-56.18,46.31-9.46,198.92,18.94,263.85,23.27,129.09,8.62,203.25,13.57,248.29,27.09,38.64,11.6-102.48,41.15-128.47,51.3C457.05,614,443,637.52,362.59,634.78Z"/><path class="cls-5" d="M344.82,596.56c-176.94-7.95-324.5-26.06-322-63.91.92-13.85-11.2-27.74,67.7-36.8,47.08-5.41,203.56,17.44,270,21.87,132,8.81,207.86,13.87,254.15,24.12,39.73,8.79-103.71,25.76-130,32.09C440.8,584.49,427,600.25,344.82,596.56Z"/><path class="cls-6" d="M348,582.56c-155.8-6.79-286-19.76-284.54-43.84.52-8.81-10.43-17.78,58.78-22.78,41.29-3,179.41,13.09,237.91,16.56,116.31,6.9,183.13,10.86,224.06,17.84,35.13,6-90.68,15.4-113.69,19.18C432.13,575.81,420.34,585.72,348,582.56Z"/><polygon class="cls-7" points="520.03 0 520.03 157.73 431.08 68.37 427.31 72.16 427.1 71.85 224.69 208.63 108.63 97.08 108.63 0 520.03 0"/><polygon class="cls-8" points="446.28 300.07 520.03 374.17 520.03 552.44 108.63 552.44 108.63 325.35 237.4 449.13 258.64 426.87 446.28 300.07"/><polygon class="cls-9" points="517.45 422.47 413.09 377.31 322.73 377.54 429.56 324.72 517.45 422.47"/><polygon class="cls-10" points="117.87 369.63 183.38 484.82 264.03 540.52 136.73 533.46 117.87 369.63"/><polygon class="cls-11" points="520.75 131.48 455.57 52.15 381.58 12.59 492.5 20.46 520.75 131.48"/><polygon class="cls-12" points="338.41 27.38 191.94 51.36 129.96 97.22 116.63 9.46 338.41 27.38"/><circle class="cls-13" cx="108.63" cy="285.62" r="7.05"/><circle class="cls-14" cx="133.43" cy="273.41" r="12.26"/><circle class="cls-15" cx="559.57" cy="511.46" r="4.87"/><circle class="cls-16" cx="543" cy="502" r="8.46"/></g><g id="_2" data-name="2"><circle class="cls-17" cx="596.77" cy="173.99" r="11.5"/><rect class="cls-18" x="575.15" y="152.27" width="9.13" height="27.47" rx="4.56" transform="translate(985.92 -279.66) rotate(116.37)"/><circle class="cls-19" cx="554.68" cy="155.1" r="19.93"/><rect class="cls-18" x="515.69" y="140.62" width="15.81" height="47.6" rx="7.91" transform="translate(490.36 -383.39) rotate(69.09)"/><circle class="cls-17" cx="15.49" cy="156.7" r="15.48"/><circle class="cls-20" cx="478.77" cy="179.07" r="40"/><rect class="cls-18" x="413.83" y="162.81" width="27.93" height="84.06" rx="13.96" transform="translate(462.91 677.84) rotate(-119.83)"/><rect class="cls-18" x="28.49" y="153.07" width="12.29" height="36.99" rx="6.14" transform="translate(-120.72 90.95) rotate(-51.16)"/><circle class="cls-19" cx="62.03" cy="187.15" r="26.93"/><rect class="cls-18" x="88.49" y="152.22" width="19.03" height="67.01" rx="9.51" transform="translate(-87.72 283.73) rotate(-90)"/><circle class="cls-17" cx="309.3" cy="282.36" r="125"/><path class="cls-21" d="M428.66,305.17c-.2,7.13-5.22,26.91-12,37.49-5.74,9-9.69,15.81-22.29,28a113.65,113.65,0,0,1-31.47,21.66c-11.52,5.42-33.63,13.39-40.52,12.19-17-3,55.33-23.18,60.93-32.77s11.83-9.22,20.72-21.82c9.86-14,18.41-40.26,20.22-50.16C426,290.49,429.05,291,428.66,305.17Z"/><ellipse class="cls-22" cx="479.9" cy="156.71" rx="11.75" ry="14.17" transform="translate(266.43 614.2) rotate(-83.07)"/><circle class="cls-20" cx="140.25" cy="184.24" r="42.5"/><rect class="cls-23" x="298.05" y="203.8" width="29.61" height="99.91" transform="translate(-87.8 295.54) rotate(-45)"/><rect class="cls-24" x="301.66" y="195.29" width="28.18" height="111.16" transform="translate(348.02 -151.11) rotate(56.12)"/><ellipse class="cls-17" cx="133.34" cy="175.03" rx="19.93" ry="17.85" transform="translate(-37.79 36.72) rotate(-13.75)"/><ellipse class="cls-19" cx="431.67" cy="303.36" rx="8.22" ry="38.3" transform="translate(-25.51 40.01) rotate(-5.15)"/><ellipse class="cls-19" cx="426.36" cy="364.61" rx="32.22" ry="6.3" transform="translate(-59.7 644.74) rotate(-70.49)"/><ellipse class="cls-19" cx="416.3" cy="407.73" rx="5.74" ry="17.19" transform="translate(-34.95 39.05) rotate(-5.15)"/><ellipse class="cls-19" cx="408.82" cy="406.79" rx="17.19" ry="4.42" transform="matrix(0.38, -0.93, 0.93, 0.38, -121.74, 632.87)"/><ellipse class="cls-19" cx="408.48" cy="396.48" rx="8.36" ry="3.49" transform="translate(-160.77 399.67) rotate(-44.47)"/><ellipse class="cls-19" cx="186.61" cy="303.36" rx="38.3" ry="8.22" transform="translate(-132.29 461.95) rotate(-84.85)"/><ellipse class="cls-19" cx="191.91" cy="364.61" rx="6.3" ry="32.22" transform="translate(-110.74 85.01) rotate(-19.51)"/><ellipse class="cls-19" cx="201.97" cy="407.73" rx="17.19" ry="5.74" transform="translate(-222.25 572.25) rotate(-84.85)"/><ellipse class="cls-19" cx="209.45" cy="406.79" rx="4.42" ry="17.19" transform="translate(-137.47 108.47) rotate(-22.06)"/><ellipse class="cls-19" cx="209.79" cy="396.48" rx="3.49" ry="8.36" transform="translate(-220.12 268.46) rotate(-45.53)"/><path class="cls-25" d="M293.16,345.15c0-.43-.12-.86-.13-1.29,0-3.59-.6-9.65.4-13.07.33-1.14,44.7-17.41,46.63-15.94,1.16.87,2.05,2.62,2.65,5.67l1.4,16.49C343.11,374.49,297,385.2,293.16,345.15Z"/><path class="cls-26" d="M293.22,343.6a11.5,11.5,0,0,1-.12-1.18c0-3.26-.57-8.78.37-11.89.32-1,42-15.85,43.83-14.52,1.09.8,1.92,2.39,2.49,5.17l1.32,15C340.17,370.32,296.86,380.07,293.22,343.6Z"/><path class="cls-24" d="M318.5,322.19l-2.58,1.05,2.87,11.5.39,11.3c0,.59.25,2.53.84,2.57h0a1.32,1.32,0,0,0,1.42-1.35l-.25-11.08-.35-4Z"/><polygon class="cls-24" points="261.76 351.75 278.28 335.88 298.03 325.47 312.6 319.01 332.43 314 351.27 313.01 361.77 314.56 349.21 315.67 328.3 317.96 303.31 328.27 278.36 341.28 261.76 351.75"/><rect class="cls-27" x="183.38" y="169.83" width="27.93" height="84.06" rx="13.96" transform="translate(-87.42 264.19) rotate(-57.45)"/></g></g></svg>