<svg xmlns="http://www.w3.org/2000/svg" viewBox="0 0 622.38 566.4"><defs><style>.cls-1,.cls-12{fill:#f7d2d2;}.cls-1{opacity:0.8;}.cls-2{fill:#f5ffff;}.cls-3{fill:#f7f7f7;}.cls-4{fill:#b5b5ea;}.cls-5{fill:#f9ee9d;}.cls-5,.cls-8{opacity:0.6;}.cls-6{fill:#c3d7e2;}.cls-7{fill:#b6f2b6;opacity:0.9;}.cls-9{fill:#fff171;}.cls-10{fill:#fcc695;}.cls-11{fill:#fcee21;}.cls-13{fill:#c788d3;}.cls-14{fill:#6969a3;}.cls-15{fill:#a67bad;}.cls-16{fill:#6bf2f9;}.cls-17{fill:#46d6fa;}.cls-18{fill:#00a6d5;}.cls-19{fill:#00a7d5;opacity:0.2;}.cls-20{fill:#61d8e5;}.cls-21{fill:#fff;}</style></defs><g id="Layer_2" data-name="Layer 2"><g id="no_page_results" data-name="no page results"><path class="cls-1" d="M546,355.61c6.75,0,1,98.33-86.77,103.79-125.63,7.81-94.26,78.11-148.35,73.47-18.57-1.6-43.4-21.88-43.4-21.88-67.27-4.33-8-35.33-96.3-35.51-47.09-.09-103.76-43.7-78.7-72.82,13.46-15.63,62.28-19.11,75.62-16,54,12.65,66.58-66.65,224.51-35.9C417.28,355.56,438,355.22,546,355.61Z"/><polygon class="cls-2" points="564.49 367.35 381.36 377.92 301.99 283.82 513.75 240.99 564.49 367.35"/><polygon class="cls-3" points="538.05 347.86 476.83 289.83 412.29 264.81 504.87 260.55 538.05 347.86"/><polygon class="cls-4" points="286.64 370.25 132.97 403.36 35.54 298.25 203.67 222.91 286.64 370.25"/><path class="cls-5" d="M354.86,480.84c-52.65-27.43-16.13-67.7,47.26-79.61,15-2.83.05,52.53,57.54,33.33,20.92-7,75.47-32.05,88.4-21.41,8.38,6.9-1,34.64-12.69,39.83-19.72,8.73-38.27,8.41-49.24,22.08-18.22,22.71,12,43-26.61,52.59-24.41,6.06-38.57-10.72-58.08-16.23-13.65-3.86-44.22,14.92-52.44,6.46C343.12,511.81,363.08,485.13,354.86,480.84Z"/><polygon class="cls-6" points="179.72 239.8 104.1 283.47 80.52 317.45 52.45 282.39 179.72 239.8"/><path class="cls-7" d="M257.4,336.84c0,37.62-35.22,31.88-77.66,31.88-27.67,0-66.64,12.4-80.17-7-7.22-10.39,17.22-30.59,17.22-43.69,0-14.11-44.25-37-36-47.83,13.81-18.12,57.68,5.08,84.2,5.08,19.62,0,37.51-10.88,51.09-.16C231.91,287.55,257.4,316.6,257.4,336.84Z"/><g id="DNA" class="cls-8"><path class="cls-9" d="M195.15,434.66h0a3.92,3.92,0,0,0,4.52,3.72l27-2.36a4.79,4.79,0,0,0,4.49-4.5h0a3.93,3.93,0,0,0-4.53-3.72l-27,2.36A4.76,4.76,0,0,0,195.15,434.66Z"/><path class="cls-10" d="M95.28,78.42c47.63,7.09,91.65,22,119.46,56.84a34.75,34.75,0,0,0,3.25,3.52c36.34,34.52,41.22,99.54,1.35,139.36a48.36,48.36,0,0,0-3.79,4.35C204,297.26,191.09,299.8,179,326.94c-22.39,50.37,6.12,89.19,44.13,120.75,28.33,23.53,65.38,47.63,78.65,90.62,6.95,22.51-10.63,12.07-14.63,5.39-53.43-89.14-86.35-87.39-107.65-116C141.85,377.16,142.72,320,197.31,274.66a50.12,50.12,0,0,0,5.85-5.7c53.62-61.65,24.3-121.17-35.34-155a43.87,43.87,0,0,0-5.88-2.74C133.28,100.14,93.67,88.79,61.78,89.64c-22.55.6-26.75-10.37-5.74-13a56,56,0,0,1,10.66-.27l24,1.58Q93,78.09,95.28,78.42Z"/><path class="cls-9" d="M70.59,83.45h0a6.4,6.4,0,0,0,7.25-1.94l40-51.92a3.56,3.56,0,0,0-1.35-5.73h0a6.4,6.4,0,0,0-7.26,1.94l-40,51.91A3.57,3.57,0,0,0,70.59,83.45Z"/><path class="cls-9" d="M97.19,83.62h0a6,6,0,0,0,6.92-1.37l32.18-40.38c1.47-1.84.74-4.2-1.61-5.28h0A6,6,0,0,0,127.76,38L95.58,78.33C94.11,80.17,94.83,82.54,97.19,83.62Z"/><path class="cls-9" d="M117.86,88.23h0a5.9,5.9,0,0,0,6.87-.81l23-24.65c1.58-1.69,1.06-4.06-1.17-5.3h0a5.9,5.9,0,0,0-6.87.81l-23,24.65C115.11,84.62,115.64,87,117.86,88.23Z"/><path class="cls-9" d="M135.76,93.89h0c2,1.43,4.78,1.66,6.15.5l14.76-12.5c1.37-1.16.84-3.27-1.19-4.71h0c-2-1.44-4.78-1.66-6.16-.5l-14.75,12.5C133.19,90.34,133.73,92.45,135.76,93.89Z"/><path class="cls-9" d="M156.84,134.31h0c.46,2.21,4.45,3.21,8.92,2.24l16.16-3.5c4.47-1,7.71-3.54,7.25-5.74h0c-.46-2.21-4.45-3.21-8.91-2.24l-16.17,3.5C159.63,129.54,156.38,132.11,156.84,134.31Z"/><path class="cls-9" d="M150.81,149.34h0c.34,2.22,3.61,3.49,7.3,2.82L197.82,145c3.69-.67,6.41-3,6.07-5.24h0c-.34-2.23-3.61-3.49-7.3-2.82l-39.72,7.19C153.18,144.77,150.47,147.11,150.81,149.34Z"/><path class="cls-9" d="M171.79,249h0c.34,2.22,3.61,3.48,7.3,2.82l39.72-7.2c3.69-.66,6.4-3,6.06-5.24h0c-.34-2.22-3.61-3.48-7.3-2.82l-39.71,7.2C174.17,244.41,171.45,246.76,171.79,249Z"/><path class="cls-9" d="M140.61,170.34h0c.39,2.22,3.33,3.4,6.57,2.62l64.13-15.41c3.24-.77,5.54-3.21,5.15-5.43h0c-.39-2.23-3.34-3.4-6.57-2.63L145.75,164.9C142.52,165.68,140.21,168.11,140.61,170.34Z"/><path class="cls-9" d="M146.28,186.3h0c.41,2.22,3,3.47,5.77,2.8l71.15-17.24c2.78-.68,4.71-3,4.31-5.25h0c-.41-2.22-3-3.48-5.77-2.81l-71.15,17.25C147.81,181.72,145.88,184.07,146.28,186.3Z"/><path class="cls-9" d="M146.08,197.53h0c.15,2.25,2.58,3.79,5.42,3.43L230.26,191c2.84-.36,5-2.48,4.86-4.74h0c-.15-2.25-2.58-3.79-5.42-3.43l-78.76,9.94C148.1,193.16,145.93,195.27,146.08,197.53Z"/><path class="cls-9" d="M150.11,215.75h0c.16,2.26,2.58,3.8,5.42,3.44l78.76-9.94c2.84-.36,5-2.48,4.87-4.73h0c-.16-2.26-2.58-3.79-5.42-3.43L155,211C152.14,211.38,150,213.5,150.11,215.75Z"/><path class="cls-9" d="M167.19,232.41h0c.15,2.26,2.58,3.79,5.41,3.44L226.81,229c2.84-.35,5-2.47,4.86-4.73h0c-.15-2.25-2.57-3.79-5.41-3.43l-54.21,6.84C169.21,228,167,230.16,167.19,232.41Z"/><path class="cls-9" d="M208.87,483.29h0c0,2,2.11,3.41,4.61,3.11l27.23-3.31c2.51-.31,4.5-2.19,4.46-4.21h0c0-2-2.11-3.41-4.61-3.11l-27.23,3.31C210.82,479.38,208.83,481.27,208.87,483.29Z"/><path class="cls-9" d="M181.29,520.08h0c0,2.28,2.42,3.89,5.42,3.6l83.45-8.12c3-.29,5.44-2.38,5.45-4.66h0c0-2.28-2.42-3.89-5.42-3.6l-83.45,8.12C183.74,515.71,181.3,517.8,181.29,520.08Z"/><path class="cls-9" d="M199.55,499.7h0c0,2.28,2.13,3.92,4.78,3.66L259.28,498c2.64-.25,4.79-2.31,4.8-4.59h0c0-2.28-2.14-3.92-4.78-3.66l-55,5.32C201.7,495.36,199.55,497.42,199.55,499.7Z"/><path class="cls-9" d="M162.59,540.32h0c0,2.28,2.17,3.9,4.81,3.62l116.84-12.39c2.64-.28,4.77-2.35,4.76-4.63h0c0-2.28-2.17-3.9-4.82-3.62L167.34,535.69C164.7,536,162.58,538,162.59,540.32Z"/><path class="cls-10" d="M118,16.71C160.35,38.23,178.21,81.14,164.11,122c-10.78,31.25-22.86,43.86-17.4,76.84,8.32,50.3,69.35,37.72,111.6,116.81C281,358.13,245,464.91,190,520.09c-13.5,13.54-29.72,31.52-44.81,44.35a8.36,8.36,0,0,1-7.74,1.6l-.18-.06c-3.94-1.29-4.84-5.42-1.81-8.32l30-28.74c42.86-44.69,56.68-81.33,77.14-138.42,6.92-19.31,4.31-71.69-10.67-85.47-73.51-67.63-96.58-74-100.15-100.32-9.6-70.93,48-87.56,4.3-152.17a4.7,4.7,0,0,0-.61-.74L118.3,34.93a5.34,5.34,0,0,0-1-.74C89.16,17,97.62,6.28,118,16.71Z"/><path class="cls-11" d="M197.08,296.45h0c0,2.27,2.3,3.92,5.15,3.69l10.3-.85c2.85-.24,5.15-2.27,5.16-4.54h0c0-2.27-2.3-3.92-5.15-3.68l-10.3.84C199.4,292.15,197.09,294.18,197.08,296.45Z"/><path class="cls-9" d="M163.22,331.83h0c0,2.27,2.3,3.92,5.15,3.69l73.19-6c2.84-.24,5.15-2.27,5.15-4.54h0c0-2.27-2.3-3.92-5.14-3.68l-73.19,6C165.53,327.53,163.22,329.56,163.22,331.83Z"/><path class="cls-11" d="M153.22,366.39h0c-.1,2.27,2.12,4,5,3.84l88.95-4.81c2.84-.16,5.23-2.13,5.33-4.41h0c.11-2.27-2.12-4-5-3.84L158.56,362C155.72,362.14,153.33,364.11,153.22,366.39Z"/><path class="cls-11" d="M154.45,350.2h0c0,2.27,2.54,3.91,5.7,3.66l80.17-6.33c3.16-.25,5.74-2.3,5.75-4.57h0c0-2.27-2.53-3.91-5.69-3.66l-80.17,6.33C157,345.88,154.47,347.93,154.45,350.2Z"/><path class="cls-11" d="M151.87,384.78h0c0,2.27,2.3,3.92,5.15,3.68l87.43-7.2c2.85-.24,5.16-2.27,5.16-4.54h0c0-2.27-2.3-3.92-5.14-3.68L157,380.24C154.18,380.47,151.87,382.5,151.87,384.78Z"/><path class="cls-11" d="M168.51,397h0c-.1,2.28,2.12,4,5,3.85l70-3.79c2.84-.16,5.23-2.13,5.34-4.4h0c.1-2.28-2.12-4-5-3.85l-70,3.79C171,392.75,168.61,394.72,168.51,397Z"/><path class="cls-11" d="M179.94,414.12h0c0,2.27,2.3,3.92,5.15,3.69l50.49-4.16c2.85-.24,5.16-2.27,5.16-4.54h0c0-2.27-2.3-3.92-5.15-3.69l-50.49,4.16C182.25,409.82,180,411.85,179.94,414.12Z"/><path class="cls-9" d="M170.91,313.79h0c-.11,2.27,2.11,4,5,3.84l56.34-3.05c2.84-.15,5.23-2.13,5.34-4.4h0c.1-2.28-2.12-4-5-3.85l-56.35,3.05C173.4,309.54,171,311.51,170.91,313.79Z"/></g><ellipse class="cls-12" cx="466.05" cy="197.58" rx="8.7" ry="8.91" transform="translate(-37.74 246.97) rotate(-28.57)"/><ellipse class="cls-12" cx="484.38" cy="181.51" rx="11.6" ry="11.89" transform="translate(-27.82 253.78) rotate(-28.57)"/><ellipse class="cls-12" cx="508.38" cy="198.89" rx="8.7" ry="8.91" transform="translate(-33.21 267.37) rotate(-28.57)"/><ellipse class="cls-12" cx="520.38" cy="222.13" rx="8.7" ry="8.91" transform="matrix(0.88, -0.48, 0.48, 0.88, -42.86, 275.94)"/><ellipse class="cls-12" cx="456.41" cy="221.11" rx="8.7" ry="8.91" transform="translate(-50.16 245.22) rotate(-28.57)"/><ellipse class="cls-12" cx="454.53" cy="249.2" rx="8.7" ry="8.91" transform="translate(-63.83 247.74) rotate(-28.57)"/><ellipse class="cls-12" cx="468.02" cy="282.45" rx="8.7" ry="8.91" transform="translate(-78.09 258.25) rotate(-28.57)"/><ellipse class="cls-12" cx="520.64" cy="245.67" rx="8.7" ry="8.91" transform="translate(-54.09 278.94) rotate(-28.57)"/><ellipse class="cls-12" cx="517.8" cy="269.55" rx="8.7" ry="8.91" transform="translate(-65.86 280.48) rotate(-28.57)"/><ellipse class="cls-12" cx="501.68" cy="288.48" rx="8.7" ry="8.91" transform="translate(-76.87 275.08) rotate(-28.57)"/><ellipse class="cls-12" cx="463.95" cy="162.19" rx="8.7" ry="8.91" transform="translate(-21.07 241.65) rotate(-28.57)"/><ellipse class="cls-12" cx="505.42" cy="161.93" rx="8.7" ry="8.91" transform="translate(-15.89 261.46) rotate(-28.57)"/><ellipse class="cls-12" cx="510.6" cy="143.55" rx="5.8" ry="5.94" transform="translate(-6.47 261.7) rotate(-28.57)"/><ellipse class="cls-12" cx="454.11" cy="140.48" rx="5.8" ry="5.94" transform="translate(-11.88 234.3) rotate(-28.57)"/><ellipse class="cls-12" cx="451.7" cy="121.5" rx="5.8" ry="5.94" transform="translate(-3.1 230.84) rotate(-28.57)"/><ellipse class="cls-12" cx="512.67" cy="125.51" rx="5.8" ry="5.94" transform="translate(2.41 260.49) rotate(-28.57)"/><ellipse class="cls-12" cx="450.99" cy="105.64" rx="5.8" ry="5.94" transform="translate(4.4 228.57) rotate(-28.57)"/><ellipse class="cls-12" cx="516.77" cy="106.36" rx="5.8" ry="5.94" transform="translate(12.07 260.12) rotate(-28.57)"/><ellipse class="cls-12" cx="514.07" cy="86.85" rx="2.9" ry="2.97" transform="translate(21.07 256.45) rotate(-28.57)"/><ellipse class="cls-12" cx="452.99" cy="86.28" rx="2.9" ry="2.97" transform="translate(13.91 227.17) rotate(-28.57)"/><ellipse class="cls-10" cx="503.49" cy="395.98" rx="8.32" ry="8.74" transform="translate(-124.72 270.83) rotate(-26.92)"/><ellipse class="cls-10" cx="485.59" cy="410.95" rx="11.09" ry="11.65" transform="translate(-133.43 264.35) rotate(-26.92)"/><ellipse class="cls-10" cx="462.84" cy="393.09" rx="8.32" ry="8.74" transform="translate(-127.81 252.12) rotate(-26.92)"/><ellipse class="cls-10" cx="451.73" cy="369.98" rx="8.32" ry="8.74" transform="translate(-118.55 244.58) rotate(-26.92)"/><ellipse class="cls-10" cx="513.17" cy="373.42" rx="8.32" ry="8.74" transform="translate(-113.45 272.77) rotate(-26.92)"/><ellipse class="cls-10" cx="515.48" cy="346.11" rx="8.32" ry="8.74" transform="translate(-100.84 270.86) rotate(-26.92)"/><ellipse class="cls-10" cx="503.11" cy="313.17" rx="8.32" ry="8.74" transform="translate(-87.27 261.69) rotate(-26.92)"/><ellipse class="cls-10" cx="451.89" cy="347.02" rx="8.32" ry="8.74" transform="translate(-108.14 242.17) rotate(-26.92)"/><ellipse class="cls-10" cx="455.05" cy="323.85" rx="8.32" ry="8.74" transform="translate(-97.31 241.09) rotate(-26.92)"/><ellipse class="cls-10" cx="470.87" cy="306.02" rx="8.32" ry="8.74" transform="translate(-87.52 246.32) rotate(-26.92)"/><ellipse class="cls-10" cx="504.88" cy="430.57" rx="8.32" ry="8.74" transform="translate(-140.22 275.21) rotate(-26.92)"/><ellipse class="cls-10" cx="465.02" cy="429.23" rx="8.32" ry="8.74" transform="translate(-143.94 257.02) rotate(-26.92)"/><ellipse class="cls-10" cx="459.72" cy="446.96" rx="5.55" ry="5.83" transform="translate(-152.53 256.54) rotate(-26.92)"/><ellipse class="cls-10" cx="513.95" cy="452.1" rx="5.55" ry="5.83" transform="translate(-148.99 281.65) rotate(-26.92)"/><ellipse class="cls-10" cx="515.93" cy="470.7" rx="5.55" ry="5.83" transform="translate(-157.19 284.56) rotate(-26.92)"/><ellipse class="cls-10" cx="457.41" cy="464.47" rx="5.55" ry="5.83" transform="translate(-160.71 257.39) rotate(-26.92)"/><ellipse class="cls-10" cx="516.33" cy="486.19" rx="5.55" ry="5.83" transform="translate(-164.16 286.42) rotate(-26.92)"/><ellipse class="cls-10" cx="453.13" cy="482.98" rx="5.55" ry="5.83" transform="translate(-169.56 257.46) rotate(-26.92)"/><ellipse class="cls-10" cx="455.38" cy="502.1" rx="2.77" ry="2.91" transform="translate(-177.97 260.55) rotate(-26.92)"/><ellipse class="cls-10" cx="514.05" cy="504.98" rx="2.77" ry="2.91" transform="translate(-172.92 287.43) rotate(-26.92)"/><polygon class="cls-13" points="479.65 425.24 126.4 425.24 166.14 351.27 519.4 351.27 479.65 425.24"/><rect class="cls-14" x="126.4" y="425.39" width="353" height="17.7"/><rect class="cls-14" x="483.9" y="0.08" width="10" height="383.33" rx="5"/><rect class="cls-14" x="160.4" width="10" height="383.33" rx="5"/><path class="cls-15" d="M246.09,369.54c80.43-3.44,118.42-1.37,174.88-3.63,30.12-1.2-8.66,57.29-113.44,54C277.85,418.93,170.81,372.76,246.09,369.54Z"/><circle class="cls-16" cx="610.84" cy="156.96" r="11.54"/><rect class="cls-6" x="591.54" y="156.71" width="9.16" height="27.57" rx="4.58" transform="translate(837.73 741.52) rotate(-128.9)"/><circle class="cls-17" cx="565.93" cy="186.41" r="27"/><rect class="cls-6" x="525.76" y="155.05" width="15.87" height="47.77" rx="7.94" transform="translate(205.81 636.47) rotate(-72.91)"/><circle class="cls-16" cx="14.9" cy="143.53" r="14.9"/><rect class="cls-6" x="27.88" y="141.39" width="12.33" height="37.12" rx="6.17" transform="translate(-106.24 75.91) rotate(-47.06)"/><circle class="cls-17" cx="63.64" cy="184.33" r="27"/><circle class="cls-18" cx="485.88" cy="167.84" r="37.5"/><circle class="cls-16" cx="323.76" cy="270.99" r="114"/><path class="cls-19" d="M433.09,293.08c0,6.38-3.88,24.25-9.61,33.93-4.87,8.22-8.21,14.45-19.13,25.78a102.51,102.51,0,0,1-27.56,20.34c-10.16,5.19-29.73,13-35.94,12.1-15.34-2.17,48.88-22.39,53.61-31.14s10.33-8.61,17.92-20.16c8.42-12.81,15.31-36.61,16.64-45.53C430.27,280,433,280.35,433.09,293.08Z"/><ellipse class="cls-20" cx="487.36" cy="147.19" rx="15.12" ry="10.28" transform="translate(-8.82 33.23) rotate(-3.87)"/><rect class="cls-6" x="422.88" y="150.49" width="24.26" height="74.67" rx="12.13" transform="translate(464.46 660.73) rotate(-116.92)"/><ellipse class="cls-17" cx="446.94" cy="273.04" rx="8.25" ry="38.44" transform="translate(-65.25 163.64) rotate(-19.36)"/><ellipse class="cls-17" cx="469.08" cy="278.7" rx="32.34" ry="6.32" transform="translate(64.82 645.15) rotate(-72.91)"/><ellipse class="cls-17" cx="482.61" cy="237.87" rx="17.26" ry="5.76" transform="translate(44.24 549.83) rotate(-61.68)"/><ellipse class="cls-17" cx="488.35" cy="242.79" rx="17.26" ry="4.44" transform="translate(-51.69 318.9) rotate(-34.46)"/><ellipse class="cls-17" cx="482.93" cy="251.61" rx="8.39" ry="3.5" transform="translate(-39.1 96.66) rotate(-10.99)"/><ellipse class="cls-17" cx="204.71" cy="273.48" rx="38.44" ry="8.25" transform="translate(-124.51 364.66) rotate(-68.66)"/><ellipse class="cls-17" cx="185.01" cy="278.16" rx="6.32" ry="32.34" transform="translate(-50.78 41.51) rotate(-11.27)"/><ellipse class="cls-17" cx="175.69" cy="236.16" rx="5.76" ry="17.26" transform="translate(-77 85.21) rotate(-22.5)"/><ellipse class="cls-17" cx="169.48" cy="240.17" rx="4.54" ry="17.65" transform="translate(-123.32 214.18) rotate(-49.72)"/><ellipse class="cls-17" cx="174.08" cy="249.71" rx="3.58" ry="8.58" transform="translate(-115.3 344.12) rotate(-73.19)"/><path class="cls-14" d="M286,338.18c11.67-25.05,57.26-32.78,87.49-20.3C346.2,324.93,314.19,333,286,338.18Z"/><ellipse class="cls-17" cx="322.49" cy="247.78" rx="59.57" ry="40.7"/><ellipse class="cls-18" cx="322.49" cy="258.99" rx="57.22" ry="30.67"/><ellipse class="cls-21" cx="321.9" cy="267.24" rx="53.09" ry="22.41"/><circle class="cls-14" cx="295.3" cy="264.89" r="21.23"/><circle class="cls-21" cx="295.3" cy="259.74" r="10.94"/><rect class="cls-6" x="94.76" y="152.05" width="15.87" height="47.77" rx="7.94" transform="translate(236.14 22.01) rotate(71.2)"/><circle class="cls-18" cx="152.67" cy="162.01" r="37.5"/><rect class="cls-6" x="199.88" y="149.49" width="24.26" height="74.67" rx="12.13" transform="translate(474.56 82.36) rotate(116.92)"/><ellipse class="cls-16" cx="152.7" cy="142.31" rx="9.94" ry="11.8" transform="translate(6.14 290.93) rotate(-88.38)"/></g></g></svg>