<svg xmlns="http://www.w3.org/2000/svg" viewBox="0 0 697.24 653.94"><defs><style>.cls-1{opacity:0.5;}.cls-2{fill:#61d8e5;}.cls-3{fill:#d9e021;}.cls-4{fill:#45cebd;}.cls-5{opacity:0.6;}.cls-6{fill:#fcc695;}.cls-12,.cls-7,.cls-9{fill:#fcee21;}.cls-8{fill:#fced65;}.cls-9{opacity:0.7;}.cls-10{fill:#fced60;}.cls-11{fill:blue;opacity:0.2;}.cls-12{opacity:0.25;}.cls-13{fill:#f9eb6e;}.cls-13,.cls-16,.cls-23{opacity:0.9;}.cls-14{fill:#fcf09a;}.cls-15{fill:#dcdcf9;}.cls-16,.cls-17{fill:#fcf2a7;}.cls-18{fill:#f9ee9d;}.cls-19{fill:#f7d2d2;}.cls-20{opacity:0.3;}.cls-21{fill:#7474ce;}.cls-22{fill:#f59188;}.cls-23{fill:#b6f2b6;}.cls-24{fill:#d7d7f4;}.cls-25{fill:#b5b5ea;}.cls-26{fill:#c788d3;}.cls-27{fill:#e8caea;}.cls-28{fill:#6bf2f9;}.cls-29{fill:#46d6fa;}.cls-30{fill:#6969a3;}.cls-31{fill:#00a7d5;opacity:0.28;}.cls-32{fill:#c3d7e2;}.cls-33{fill:#00a6d5;}</style></defs><g id="Layer_2" data-name="Layer 2"><g id="dna" class="cls-1"><path class="cls-2" d="M644.89,99.24c-47.56,2.74-93.66,14.65-129.39,50.92a43,43,0,0,1-4,3.61c-43.83,34.93-65.36,107.73-37.4,157a47.1,47.1,0,0,1,2.51,5.33c7.31,17.94,19,22.22,23.54,54.17,8.43,59.29-29,99.92-73.64,131.33-33.29,23.4-75.09,46.5-99,93.52-12.5,24.62,7.08,14.79,12.65,7.7,74.38-94.64,105.52-89,133.37-118.93,49.26-52.87,63.24-117.45,22.58-174.6a46.39,46.39,0,0,1-4.13-7.08c-35.5-75.46,8.06-139.36,74.06-170.92a44.86,44.86,0,0,1,6.36-2.44c30.37-9.34,71.33-17.78,101.73-13.3,21.48,3.17,28.36-8.73,8.88-14a45.32,45.32,0,0,0-10.16-1.48l-23.5-.87C647.87,99.15,646.38,99.16,644.89,99.24Z"/><rect class="cls-3" x="620.74" y="33.9" width="9.46" height="73.54" rx="4.73" transform="translate(15.79 227.2) rotate(-20.85)"/><rect class="cls-3" x="601.72" y="44.07" width="9.46" height="66.8" rx="4.73" transform="translate(12.13 220.88) rotate(-20.85)"/><rect class="cls-3" x="586.17" y="65.88" width="9.46" height="47.68" rx="4.73" transform="translate(18.11 260.36) rotate(-25.22)"/><rect class="cls-3" x="570.92" y="81.53" width="9.46" height="37.57" rx="4.73" transform="translate(26.73 300.62) rotate(-29.93)"/><rect class="cls-3" x="539.24" y="140.42" width="9.46" height="18.92" rx="4.73" transform="translate(199.57 596.83) rotate(-67.79)"/><rect class="cls-3" x="534.13" y="146.81" width="9.46" height="37.57" rx="4.73" transform="translate(199.92 616.05) rotate(-70.12)"/><rect class="cls-3" x="528.19" y="153.99" width="9.46" height="61.25" rx="4.73" transform="translate(209.81 646.88) rotate(-74.15)"/><rect class="cls-3" x="519.98" y="163.82" width="9.46" height="76.27" rx="4.73" transform="translate(187.17 651.58) rotate(-74.15)"/><rect class="cls-3" x="512.28" y="184.44" width="9.46" height="81.9" rx="4.73" transform="translate(159.02 661.22) rotate(-74.15)"/><rect class="cls-3" x="503.86" y="205.58" width="9.46" height="81.9" rx="4.73" transform="translate(132.57 668.49) rotate(-74.15)"/><rect class="cls-3" x="495.91" y="234.39" width="9.46" height="59.38" rx="4.73" transform="translate(109.9 673.59) rotate(-74.15)"/><rect class="cls-3" x="411.04" y="518.54" width="9.46" height="37.85" rx="4.73" transform="translate(-189.43 846.44) rotate(-79.32)"/><rect class="cls-3" x="401.8" y="536.42" width="9.46" height="82.1" rx="4.73" transform="translate(-236.27 869.94) rotate(-79.32)"/><rect class="cls-3" x="403.95" y="529.58" width="9.46" height="63.75" rx="4.73" transform="translate(-218.79 859.02) rotate(-79.32)"/><rect class="cls-3" x="397.98" y="532.98" width="9.46" height="125.04" rx="4.73" transform="translate(-257.1 880.89) rotate(-79.32)"/><path class="cls-4" d="M614.64,29.52c-43.65,21.66-69,68.92-64.4,115.86,3.55,35.88,12.14,50.83.29,87.67-18.08,56.17-72,38.25-127.48,124.79-29.76,46.45-18.42,169,21.18,234.55,9.72,16.09,21,37.35,32.39,52.73a6.21,6.21,0,0,0,6.84,2.27l.18,0a6.21,6.21,0,0,0,3.4-9.27l-21.88-34.23c-30.5-53-35.76-95.13-43-160.72-2.44-22.18,10.77-81.05,27.49-95.66C531.75,275.75,554.44,270,563.18,240.55c23.51-79.35-26.41-101.63,27.36-171.76a6.83,6.83,0,0,1,.73-.79l19.37-18a6.09,6.09,0,0,1,1-.77C641.34,31.6,635.7,19,614.64,29.52Z"/><rect class="cls-3" x="470.98" y="323.73" width="9.46" height="18.92" rx="4.73" transform="translate(46.05 723.97) rotate(-77.29)"/><rect class="cls-3" x="464.86" y="331.91" width="9.46" height="76.69" rx="4.73" transform="translate(5.12 746.92) rotate(-77.29)"/><rect class="cls-3" x="457.83" y="364.51" width="9.46" height="91.21" rx="4.73" transform="translate(-26.17 788.67) rotate(-79.32)"/><rect class="cls-3" x="460.38" y="352.58" width="9.46" height="75.7" rx="4.73" transform="translate(-18.05 758.28) rotate(-77.29)"/><rect class="cls-3" x="455.42" y="384.6" width="9.46" height="89.77" rx="4.73" transform="translate(-60.02 783.9) rotate(-77.29)"/><rect class="cls-3" x="444.59" y="407.53" width="9.46" height="73.77" rx="4.73" transform="translate(-70.66 803.61) rotate(-79.32)"/><rect class="cls-3" x="438.77" y="435.15" width="9.46" height="55.84" rx="4.73" transform="translate(-105.77 793.86) rotate(-77.29)"/><rect class="cls-3" x="431.61" y="461.59" width="9.46" height="37.85" rx="4.73" transform="translate(-128.37 800.49) rotate(-77.29)"/><rect class="cls-3" x="469.71" y="321.3" width="9.46" height="61.25" rx="4.73" transform="translate(40.7 752.93) rotate(-79.32)"/></g><g id="dna2" class="cls-5"><path class="cls-6" d="M181.75,599.84c38.8-27.18,71.57-61.37,82.84-110.73A44.16,44.16,0,0,1,266.1,484c18.82-52.46-1-125.31-50.47-152.41a46.2,46.2,0,0,1-4.9-3.19C195.16,317,183,319.48,162.48,294.83c-38.13-45.75-27.72-99.69-6.36-149.6C172,108,195.33,66.62,190.94,14.36c-2.29-27.37-13.72-8.81-14.72.1-13.44,119-42.72,130.49-50.65,170.35-14,70.47,7.91,132.42,72.19,159.52a45.5,45.5,0,0,1,7.2,3.82c69.49,45.28,66,122.11,26.71,183.32a45.65,45.65,0,0,1-4.11,5.39c-20.81,23.78-51.05,52.34-79.1,64.44-19.83,8.55-19.43,22.22-.18,16.52a44.57,44.57,0,0,0,9.38-4.06L178,602.21C179.28,601.47,180.54,600.69,181.75,599.84Z"/><rect class="cls-7" x="208.41" y="577.29" width="9.41" height="73.13" rx="4.71" transform="translate(830.08 817.79) rotate(127.44)"/><rect class="cls-7" x="220.95" y="564.93" width="9.41" height="66.44" rx="4.71" transform="translate(837.77 782.59) rotate(127.44)"/><rect class="cls-7" x="227.7" y="555.95" width="9.41" height="47.42" rx="4.71" transform="translate(845 701.09) rotate(123.06)"/><rect class="cls-8" x="235.06" y="544.05" width="9.41" height="37.36" rx="4.71" transform="translate(848.86 618.94) rotate(118.35)"/><rect class="cls-8" x="235.94" y="494.82" width="9.41" height="18.82" rx="4.71" transform="translate(698.21 183.62) rotate(80.49)"/><rect class="cls-8" x="232.05" y="469.58" width="9.41" height="37.36" rx="4.71" transform="translate(666.05 156.36) rotate(78.16)"/><rect class="cls-8" x="227.13" y="438.62" width="9.41" height="60.91" rx="4.71" transform="translate(619.62 117.78) rotate(74.13)"/><rect class="cls-8" x="225.01" y="412.19" width="9.41" height="75.85" rx="4.71" transform="translate(599.84 106.05) rotate(74.13)"/><rect class="cls-8" x="219.27" y="385.53" width="9.41" height="81.45" rx="4.71" transform="translate(572.72 94.24) rotate(74.13)"/><rect class="cls-8" x="215.34" y="363.25" width="9.41" height="81.45" rx="4.71" transform="translate(548.43 81.84) rotate(74.13)"/><rect class="cls-8" x="212.89" y="355.44" width="9.41" height="59.05" rx="4.71" transform="translate(528.37 70.38) rotate(74.13)"/><rect class="cls-7" x="141.75" y="90.49" width="9.41" height="37.64" rx="4.71" transform="translate(195.9 -66.62) rotate(68.96)"/><rect class="cls-7" x="128.65" y="29.81" width="9.41" height="81.65" rx="4.71" transform="translate(151.41 -79.19) rotate(68.96)"/><rect class="cls-7" x="135.2" y="53.6" width="9.41" height="63.4" rx="4.71" transform="translate(169.3 -75.9) rotate(68.96)"/><rect class="cls-7" x="122.45" y="-8.79" width="9.41" height="124.35" rx="4.71" transform="translate(131.33 -84.46) rotate(68.96)"/><path class="cls-6" d="M244.13,642.93c25.56-41.18,22.28-94.43-6.24-131.69-21.79-28.47-36.89-36.61-46.16-74-14.14-57,40.86-70.06,42.41-172.27C235,210.15,161.2,112.5,93.38,77.81,76.74,69.3,56,57.26,38.38,50.2a6.19,6.19,0,0,0-7,1.66l-.11.14a6.16,6.16,0,0,0,2,9.61L69.69,79.1c53.54,28.81,80.06,61.69,120.5,113.37,13.67,17.48,33.34,74.17,26.86,95.28-31.81,103.6-48,120.32-39.94,149.82,21.68,79.39,75.55,72.08,66.82,159.54a6.44,6.44,0,0,1-.19,1c-.92,3.32-6,21.72-7,25.33a5.65,5.65,0,0,1-.47,1.2C220.47,655.15,231.83,662.84,244.13,642.93Z"/><rect class="cls-9" x="197.84" y="304.06" width="9.41" height="18.82" rx="4.71" transform="translate(432.93 19.85) rotate(70.99)"/><rect class="cls-10" x="183.64" y="240.78" width="9.41" height="76.27" rx="4.71" transform="translate(390.68 9.98) rotate(70.99)"/><rect class="cls-10" x="168.75" y="196.16" width="9.41" height="90.71" rx="4.71" transform="translate(336.6 -7.08) rotate(68.96)"/><rect class="cls-10" x="176.88" y="221.86" width="9.41" height="75.28" rx="4.71" transform="translate(367.78 3.28) rotate(70.99)"/><rect class="cls-10" x="160.66" y="179.23" width="9.41" height="89.28" rx="4.71" transform="translate(323.15 -5.41) rotate(70.99)"/><rect class="cls-10" x="162.01" y="168.89" width="9.41" height="73.37" rx="4.71" transform="translate(298.74 -23.83) rotate(68.96)"/><rect class="cls-10" x="157.19" y="158.98" width="9.41" height="55.53" rx="4.71" transform="translate(285.71 -27.15) rotate(70.99)"/><rect class="cls-10" x="154.12" y="149.43" width="9.41" height="37.64" rx="4.71" transform="translate(266.16 -36.72) rotate(70.99)"/><rect class="cls-10" x="189.13" y="266.5" width="9.41" height="60.91" rx="4.71" transform="translate(401.41 9.44) rotate(68.96)"/></g><g id="bacground"><rect class="cls-11" x="175.77" y="509.3" width="11.89" height="35.79" rx="5.95" transform="translate(357.9 -1.87) rotate(37.44)"/><rect class="cls-11" x="309.08" y="462.6" width="9.77" height="42.55" rx="4.89" transform="translate(383.79 1056.43) rotate(-153.98)"/><rect class="cls-11" x="388.08" y="419.6" width="9.77" height="42.55" rx="4.89" transform="translate(-191.57 525.16) rotate(-56.49)"/><rect class="cls-11" x="434.08" y="76.6" width="9.77" height="42.55" rx="4.89" transform="translate(647.8 -300.44) rotate(105.1)"/><rect class="cls-11" x="486.08" y="57.6" width="9.77" height="42.55" rx="4.89" transform="translate(766.77 492.62) rotate(-132.81)"/><rect class="cls-11" x="466.08" y="98.6" width="9.77" height="42.55" rx="4.89" transform="translate(956.77 132.81) rotate(167.25)"/><rect class="cls-11" x="396.08" y="49.6" width="9.77" height="42.55" rx="4.89" transform="translate(774.49 -91.23) rotate(146.52)"/><rect class="cls-11" x="343.08" y="163.6" width="9.77" height="42.55" rx="4.89" transform="translate(-44.56 150.52) rotate(-22.98)"/><circle class="cls-12" cx="306.99" cy="305.83" r="196.55"/><rect class="cls-11" x="358.08" y="114.6" width="9.77" height="42.55" rx="4.89" transform="translate(215.96 -222.73) rotate(47.19)"/><rect class="cls-11" x="267.08" y="124.6" width="9.77" height="42.55" rx="4.89" transform="translate(194.14 -152.77) rotate(47.19)"/><circle class="cls-13" cx="140.99" cy="444.85" r="17.68"/><circle class="cls-14" cx="38.38" cy="387.29" r="12.03"/><circle class="cls-13" cx="196.44" cy="505.13" r="17.68"/><circle class="cls-14" cx="112.29" cy="404.12" r="16.76"/><rect class="cls-15" x="100.63" y="449.98" width="35.79" height="11.89" rx="5.95" transform="translate(-206.75 115.18) rotate(-29.1)"/><rect class="cls-15" x="76.9" y="408.02" width="30.16" height="10.02" rx="4.65" transform="translate(-153.92 68.67) rotate(-22.97)"/><rect class="cls-15" x="45.52" y="388.04" width="10.02" height="30.16" rx="4.65" transform="translate(-248.12 127.68) rotate(-40.17)"/><rect class="cls-15" x="127.73" y="525.01" width="11.89" height="35.79" rx="5.95" transform="translate(-423.96 502.16) rotate(-71.99)"/><rect class="cls-15" x="66.11" y="547.72" width="35.79" height="11.89" rx="5.95" transform="translate(-378.9 238.51) rotate(-47.13)"/><rect class="cls-15" x="91.57" y="479.98" width="11.89" height="35.79" rx="5.95" transform="translate(-100.09 30.6) rotate(-11.84)"/><circle class="cls-16" cx="301.45" cy="526.02" r="20.57"/><circle class="cls-14" cx="162.46" cy="551.65" r="17.68"/><circle class="cls-17" cx="411.43" cy="452.97" r="12.27"/><rect class="cls-11" x="412.66" y="104.47" width="11.68" height="46.3" rx="5.42" transform="translate(62.33 381.72) rotate(-52.46)"/><rect class="cls-11" x="267.08" y="76.6" width="9.77" height="42.55" rx="4.89" transform="translate(-16.63 113.94) rotate(-22.98)"/><circle class="cls-14" cx="103.82" cy="530.87" r="19.89"/><circle class="cls-14" cx="92.28" cy="466.18" r="19.89"/><circle class="cls-13" cx="356.61" cy="211.78" r="14.58"/><circle class="cls-18" cx="387.13" cy="48.86" r="12.16"/><circle class="cls-18" cx="248.53" cy="167.85" r="16.66"/><rect class="cls-11" x="460.06" y="150.46" width="9.46" height="28.47" rx="4.39" transform="matrix(0.83, 0.56, -0.56, 0.83, 174.17, -233.67)"/><circle class="cls-18" cx="466.37" cy="98.62" r="15.63"/><circle class="cls-18" cx="413.18" cy="90.56" r="12.16"/><circle class="cls-18" cx="436.09" cy="146.37" r="16.66"/><circle class="cls-18" cx="512.52" cy="55.99" r="15.63"/><circle class="cls-18" cx="475.31" cy="149.45" r="15.63"/><circle class="cls-14" cx="67.15" cy="419.79" r="16.76"/><circle class="cls-18" cx="339.17" cy="158.62" r="18.74"/><circle class="cls-18" cx="286.74" cy="124.34" r="16.66"/><g id="circles"><circle class="cls-19" cx="540.6" cy="137.7" r="17.48"/><circle class="cls-19" cx="611.91" cy="175.02" r="14.58"/><circle class="cls-19" cx="554.95" cy="331.43" r="4.43"/><circle class="cls-19" cx="619.89" cy="390.15" r="14.58"/><circle class="cls-19" cx="620.28" cy="98.43" r="5.85"/><circle class="cls-19" cx="684.92" cy="138.9" r="10.53"/><circle class="cls-19" cx="681.91" cy="384.5" r="6.49"/><circle class="cls-19" cx="601.62" cy="288.83" r="10.53"/><circle class="cls-19" cx="538.1" cy="270.47" r="5.46"/><circle class="cls-19" cx="603.53" cy="216.12" r="4.11"/></g><g id="circles-2" data-name="circles" class="cls-20"><circle class="cls-21" cx="56.75" cy="271.47" r="17.48"/><circle class="cls-21" cx="151.35" cy="385.33" r="13.33"/><circle class="cls-22" cx="53.97" cy="491.95" r="14.58"/><circle class="cls-21" cx="181.47" cy="622.45" r="5.44"/><circle class="cls-21" cx="145.07" cy="298.72" r="5.85"/><circle class="cls-22" cx="166.41" cy="328.39" r="10.53"/><circle class="cls-22" cx="283.05" cy="587.79" r="10.53"/><circle class="cls-21" cx="27.3" cy="442.28" r="8.85"/><circle class="cls-22" cx="22.26" cy="359.21" r="6.65"/><circle class="cls-21" cx="64.57" cy="392.15" r="6.37"/></g><g id="spirale_1" data-name="spirale 1"><path class="cls-19" d="M674.92,315.58c5.24-1.2,4.93-8.73-.37-9.61-28.74-4.77-68.6,5.65-87.62,21.84-14.45,12.31-38.31,70.91-42.2,91.06-12.61,65.35-36,112.75-107.5,92-7.63-2.21-18.38-18.93-24.1-13a6.09,6.09,0,0,0,.62,8.78c5.48,4.68,19.5,11.85,19.7,11.92,31.07,11.15,64.73,10.13,88.27-13.15,20.57-20.33,26.08-52,30.66-75.57a4.21,4.21,0,0,1,.12-.48c9.23-30.26,17.37-71.2,41.26-92.49C624.34,309.67,660.42,318.92,674.92,315.58Z"/><rect class="cls-23" x="411.32" y="508.22" width="12.29" height="25.12" rx="6.15" transform="translate(393.85 -146.25) rotate(36.69)"/><rect class="cls-23" x="556.47" y="413.95" width="12.29" height="25.12" rx="6.15" transform="translate(33.05 893.43) rotate(-78.57)"/><rect class="cls-23" x="580.6" y="346.6" width="12.29" height="25.12" rx="6.15" transform="translate(12.09 737.37) rotate(-64.82)"/><rect class="cls-23" x="601.19" y="323.69" width="12.29" height="25.12" rx="6.15" transform="matrix(0.81, -0.59, 0.59, 0.81, -81.65, 421.21)"/><rect class="cls-23" x="625.33" y="314.12" width="12.29" height="25.12" rx="6.15" transform="translate(-50.27 124.92) rotate(-10.87)"/><rect class="cls-23" x="657.1" y="310.3" width="12.29" height="25.12" rx="6.15" transform="matrix(1, 0.02, -0.02, 1, 6.73, -13.48)"/><rect class="cls-23" x="439.96" y="519.52" width="12.29" height="25.12" rx="6.15" transform="translate(78.19 -56.78) rotate(7.98)"/><rect class="cls-23" x="470.15" y="522.42" width="12.29" height="25.12" rx="6.15" transform="translate(-48.16 47.12) rotate(-5.39)"/><rect class="cls-23" x="500.17" y="514.44" width="12.29" height="25.12" rx="6.15" transform="translate(-113.51 139.84) rotate(-14.16)"/><rect class="cls-23" x="525.86" y="495.64" width="12.29" height="25.12" rx="6.15" transform="translate(-200.57 440.17) rotate(-38.38)"/><rect class="cls-23" x="543.85" y="466.9" width="12.29" height="25.12" rx="6.15" transform="translate(-136.65 726.23) rotate(-60.85)"/><rect class="cls-23" x="551.82" y="439.15" width="12.29" height="25.12" rx="6.15" transform="translate(-30.19 863.33) rotate(-73.98)"/></g><g id="spirale2"><path class="cls-24" d="M23.17,230.94C-2,256.53-12,294.26,20.71,336.08c23.44,30,177.28,92.92,100.92,197-16.7,22.76-41.19,44.85-63.68,61a3.68,3.68,0,0,0-.71,4.88l1.67,2.7a3.13,3.13,0,0,0,4.56,1.14L89.39,583.1C203.44,482.7,155,406.32,36.23,336.37c-.32-.19-7.4-8-7.63-8.31-22-27.83-18.1-56.44-4.57-81.65,7-13,12.54-11.33,1.58-16.27A2.26,2.26,0,0,0,23.17,230.94Z"/><rect class="cls-23" x="29.06" y="229.76" width="10.06" height="21.46" rx="5.03" transform="translate(-195.87 162.27) rotate(-63.15)"/><rect class="cls-23" x="16.56" y="251.82" width="10.06" height="21.46" rx="5.03" transform="translate(-237.96 217.44) rotate(-75.44)"/><rect class="cls-23" x="14.36" y="272.42" width="10.06" height="21.46" rx="5.03" transform="translate(-263.87 300.78) rotate(-89.64)"/><rect class="cls-23" x="23.19" y="308.61" width="10.06" height="21.46" rx="5.03" transform="translate(-254.77 469.98) rotate(-112.97)"/><rect class="cls-23" x="48.05" y="329.53" width="10.06" height="21.46" rx="5.03" transform="translate(-109.44 643.89) rotate(-142.97)"/><rect class="cls-23" x="71.41" y="345.13" width="10.06" height="21.46" rx="5.03" transform="translate(-76.81 686) rotate(-142.97)"/><rect class="cls-23" x="93.81" y="361.86" width="10.06" height="21.46" rx="5.03" transform="translate(-46.61 729.58) rotate(-142.97)"/><rect class="cls-23" x="152.2" y="475.53" width="10.06" height="21.46" rx="5.03" transform="translate(-344.61 582.84) rotate(-82.97)"/><rect class="cls-23" x="148.51" y="496.03" width="10.06" height="21.46" rx="5.03" transform="matrix(0.25, -0.97, 0.97, 0.25, -375.55, 527.97)"/><rect class="cls-23" x="139.04" y="513.53" width="10.06" height="21.46" rx="5.03" transform="translate(-399.57 531.9) rotate(-75.44)"/><rect class="cls-23" x="99.56" y="561.88" width="10.06" height="21.46" rx="5.03" transform="translate(-415.55 311.3) rotate(-52.97)"/><rect class="cls-23" x="126.87" y="534.35" width="10.06" height="21.46" rx="5.03" transform="translate(-412.91 412.07) rotate(-62.68)"/><rect class="cls-23" x="82.88" y="580.79" width="10.06" height="21.46" rx="5.03" transform="translate(-411.85 263.08) rotate(-48.23)"/><rect class="cls-23" x="61.11" y="591.68" width="10.44" height="21.46" rx="5.22" transform="translate(-427.17 250.62) rotate(-48.23)"/></g><g id="magnifying_glass" data-name="magnifying glass"><rect class="cls-25" x="549.86" y="326.8" width="79.35" height="230.75" rx="39.67" transform="translate(-66.47 777.92) rotate(-63.98)"/><path class="cls-26" d="M308,87.43C186.36,87.43,87.77,186,87.77,307.64S186.36,527.85,308,527.85A220,220,0,0,0,528.19,307.64C528.19,186,429.6,87.43,308,87.43ZM308,499c-105.15,0-190.39-85.24-190.39-190.39S202.81,118.25,308,118.25s190.38,85.24,190.38,190.39S413.1,499,308,499Z"/><path class="cls-27" d="M308,128.25A180.37,180.37,0,1,1,180.4,181.08,179.18,179.18,0,0,1,308,128.25m0-10c-105.15,0-190.39,85.24-190.39,190.39S202.81,499,308,499s190.38-85.24,190.38-190.39S413.1,118.25,308,118.25Z"/></g><rect class="cls-11" x="273.08" y="22.6" width="9.77" height="42.55" rx="4.89" transform="translate(121.24 -189.85) rotate(47.19)"/><rect class="cls-15" x="346.08" y="566.6" width="9.77" height="42.55" rx="4.89"/><rect class="cls-15" x="321.08" y="521.6" width="9.77" height="42.55" rx="4.89" transform="translate(-307.16 553.73) rotate(-60)"/><rect class="cls-11" x="345.08" y="419.6" width="9.77" height="42.55" rx="4.89" transform="translate(172.13 974.92) rotate(-123.14)"/><circle class="cls-18" cx="257.8" cy="66.77" r="17.48"/><circle class="cls-18" cx="300.3" cy="23.48" r="15.62"/><circle class="cls-16" cx="351.32" cy="618.46" r="14.13"/><ellipse class="cls-17" cx="350.94" cy="558.2" rx="17.7" ry="18.06" transform="translate(-72.83 53.06) rotate(-7.84)"/><circle class="cls-17" cx="325.28" cy="457.9" r="18.84"/><circle class="cls-14" cx="372.17" cy="428.2" r="15.54"/><circle class="cls-14" cx="66.65" cy="572.53" r="13.26"/></g><g id="proteins_3" data-name="proteins 3"><circle class="cls-28" cx="309.46" cy="327.14" r="125.48"/><ellipse class="cls-29" cx="455.8" cy="333.23" rx="7.86" ry="36.65" transform="translate(-107.45 372.62) rotate(-40.17)"/><ellipse class="cls-29" cx="499.77" cy="342.15" rx="30.83" ry="6.03" transform="translate(-104.99 375.33) rotate(-37.54)"/><ellipse class="cls-29" cx="538.57" cy="319.03" rx="16.45" ry="5.49" transform="translate(-47.29 98.57) rotate(-10.02)"/><ellipse class="cls-29" cx="545.48" cy="326" rx="22.46" ry="5.14"/><ellipse class="cls-29" cx="525.86" cy="315.58" rx="8.94" ry="4" transform="translate(45.01 696.25) rotate(-69.34)"/><ellipse class="cls-29" cx="165.85" cy="333.23" rx="36.65" ry="7.86" transform="translate(-195.77 245.01) rotate(-49.83)"/><ellipse class="cls-29" cx="121.88" cy="342.15" rx="6.03" ry="30.83" transform="translate(-223.69 230.33) rotate(-52.46)"/><ellipse class="cls-29" cx="83.08" cy="319.03" rx="5.49" ry="16.45" transform="translate(-245.54 345.33) rotate(-79.98)"/><ellipse class="cls-29" cx="76.17" cy="326" rx="22.46" ry="5.14"/><ellipse class="cls-29" cx="95.79" cy="315.58" rx="4" ry="8.94" transform="translate(-105.2 54.11) rotate(-20.66)"/><path class="cls-30" d="M254.83,337.39c28-56.54,67.5-85.4,102.2-18.69C302.62,274.12,298.93,290.65,254.83,337.39Z"/><path class="cls-30" d="M364.76,353.31c3.61,22.62-29,13.84-39.18,17.88l-52.81,16.17C294.14,377.22,342.43,356.65,364.76,353.31Z"/><path class="cls-31" d="M430.16,351.75c0,6.82-4.14,25.9-10.25,36.22-5.21,8.79-8.77,15.43-20.43,27.53a109.26,109.26,0,0,1-29.42,21.71c-10.85,5.54-31.74,13.86-38.37,12.92-16.38-2.31,52.18-23.9,57.24-33.24s11-9.2,19.13-21.53c9-13.67,16.33-39.07,17.75-48.6C427.15,337.8,430.09,338.17,430.16,351.75Z"/><circle class="cls-28" cx="596.64" cy="252.8" r="12.28"/><rect class="cls-32" x="577.84" y="222.62" width="9.74" height="29.33" rx="4.87" transform="translate(1162.55 -6.97) rotate(135)"/><circle class="cls-29" cx="559.74" cy="218.1" r="22.5"/><rect class="cls-32" x="523.87" y="179.56" width="16.88" height="50.81" rx="8.44" transform="translate(950.05 -183.44) rotate(116.02)"/><circle class="cls-33" cx="482.95" cy="195.98" r="40"/><rect class="cls-32" x="416.71" y="186.03" width="27.93" height="84.06" rx="13.96" transform="translate(383.29 -256.96) rotate(56.52)"/><ellipse class="cls-2" cx="490.26" cy="172.79" rx="10.48" ry="15.12" transform="matrix(0.19, -0.98, 0.98, 0.19, 226.57, 620.76)"/><circle class="cls-28" cx="48.04" cy="114.37" r="11.96"/><rect class="cls-32" x="47.93" y="120.63" width="9.74" height="29.33" rx="4.87" transform="translate(132.93 256.42) rotate(167.84)"/><circle class="cls-29" cx="63.41" cy="158.39" r="22.5"/><rect class="cls-32" x="84.09" y="148.39" width="16.88" height="50.81" rx="8.44" transform="translate(288.92 159.74) rotate(113.94)"/><circle class="cls-33" cx="139.56" cy="194.98" r="40"/><rect class="cls-32" x="179.87" y="189.03" width="27.93" height="84.06" rx="13.96" transform="translate(493.49 196.86) rotate(123.48)"/><ellipse class="cls-28" cx="130.89" cy="182.28" rx="19.32" ry="15.99" transform="translate(-32.56 28.52) rotate(-11.07)"/></g></g></svg>