<?xml version="1.0" encoding="UTF-8"?>
<svg width="640px" height="293px" viewBox="0 0 640 293" version="1.1" xmlns="http://www.w3.org/2000/svg" xmlns:xlink="http://www.w3.org/1999/xlink">
    <!-- Generator: Sketch 50.2 (55047) - http://www.bohemiancoding.com/sketch -->
    <title>Artboard</title>
    <desc>Created with Sketch.</desc>
    <defs></defs>
    <g id="Artboard" stroke="none" stroke-width="1" fill="none" fill-rule="evenodd">
        <g id="uniprot-rgb" fill-rule="nonzero">
            <g id="g35" transform="translate(0.000000, 94.000000)">
                <g id="g37" fill="#73C3C3">
                    <path d="M165.805,65.658 L165.805,100.21 C165.805,106.316 160.856,111.265 154.751,111.265 C148.647,111.265 143.697,106.317 143.697,100.21 L143.697,65.658 L143.681,67.014 C143.681,57.871 136.269,50.458 127.125,50.458 C117.981,50.458 110.569,57.871 110.569,67.014 L110.536,71.184 L110.536,100.209 C110.536,106.315 105.587,111.264 99.482,111.264 C93.377,111.264 88.428,106.316 88.428,100.209 L88.428,71.184 L88.46,67.014 C88.46,45.66 105.77,28.35 127.124,28.35 C148.478,28.35 165.788,45.661 165.788,67.014 L165.805,65.658 Z" id="path39"></path>
                    <path d="M0,73.957 L0,13.399 C0,7.295 4.949,2.345 11.054,2.345 C17.159,2.345 22.108,7.294 22.108,13.399 L22.108,73.957 L22.123,72.601 C22.123,81.744 29.536,89.157 38.679,89.157 C47.822,89.157 55.235,81.744 55.235,72.601 L55.268,68.431 L55.268,13.4 C55.268,7.296 60.217,2.346 66.322,2.346 C72.427,2.346 77.376,7.295 77.376,13.4 L77.376,68.431 L77.344,72.602 C77.344,93.956 60.034,111.265 38.68,111.265 C17.326,111.265 0.016,93.955 0.016,72.602 L0,73.957 Z" id="path41"></path>
                    <g id="g43" transform="translate(176.000000, 0.000000)">
                        <path d="M23.314,100.21 C23.314,106.316 18.365,111.265 12.26,111.265 C6.156,111.265 1.206,106.317 1.206,100.21 L1.206,39.478 C1.206,33.373 6.155,28.423 12.26,28.423 C18.365,28.423 23.314,33.372 23.314,39.478 L23.314,100.21 Z" id="path45"></path>
                        <path d="M23.659,12.103 C23.659,18.398 18.556,23.501 12.26,23.501 C5.964,23.501 0.861,18.397 0.861,12.103 C0.861,5.807 5.965,0.704 12.26,0.704 C18.555,0.704 23.659,5.807 23.659,12.103 Z" id="path47"></path>
                    </g>
                </g>
                <g id="g49" transform="translate(211.000000, 2.000000)" fill="#006F9D">
                    <path d="M123.383,48.459 C114.242,48.459 106.829,55.872 106.829,65.015 L106.797,69.185 L106.797,98.21 C106.797,104.316 101.848,109.265 95.742,109.265 C89.638,109.265 84.689,104.317 84.689,98.21 L84.689,69.185 L84.72,65.015 C84.72,43.661 102.03,26.351 123.383,26.351 L130.285,26.351 C136.39,26.351 141.34,31.3 141.34,37.405 C141.34,43.509 136.391,48.459 130.285,48.459 L123.383,48.459 Z" id="path51"></path>
                    <path d="M222.861,67.813 C222.861,91.417 203.724,110.555 180.119,110.555 C156.514,110.555 137.375,91.417 137.375,67.813 C137.375,44.206 156.514,25.07 180.119,25.07 C203.724,25.07 222.861,44.206 222.861,67.813 Z M180.029,45.694 C167.818,45.694 157.92,55.592 157.92,67.801 C157.92,80.011 167.818,89.909 180.029,89.909 C192.238,89.909 202.136,80.011 202.136,67.801 C202.137,55.593 192.238,45.694 180.029,45.694 Z" id="path53"></path>
                    <path d="M272.703,87.156 L268.467,87.155 C259.322,87.155 251.91,79.743 251.91,70.598 L251.877,66.43 L251.877,48.457 L271.221,48.458 C277.326,48.458 282.276,43.51 282.276,37.404 C282.276,31.298 277.327,26.349 271.221,26.349 L251.877,26.349 L251.877,20.824 C251.877,14.719 246.93,9.769 240.824,9.769 C234.718,9.769 229.769,14.718 229.769,20.824 L229.769,66.429 L229.8,70.599 C229.8,91.952 247.113,109.262 268.466,109.262 L272.702,109.263 C278.807,109.263 283.757,104.315 283.757,98.208 C283.758,92.105 278.809,87.156 272.703,87.156 Z" id="path55"></path>
                    <path d="M81.981,39.042 C81.981,17.688 64.67,0.378 43.317,0.378 L39.147,0.346 L11.458,0.346 C5.353,0.346 0.404,5.295 0.404,11.4 L0.404,98.2 C0.404,104.306 5.353,109.256 11.458,109.256 C17.562,109.256 22.512,104.307 22.512,98.2 L22.512,22.455 L39.148,22.455 L43.317,22.487 C52.461,22.487 59.874,29.899 59.874,39.043 C59.874,48.187 52.461,55.6 43.317,55.6 L44.674,55.616 L40.52,55.616 C34.416,55.616 29.466,60.563 29.466,66.67 C29.466,72.774 34.415,77.724 40.52,77.724 L44.674,77.724 L43.318,77.708 C64.671,77.706 81.981,60.396 81.981,39.042 Z" id="path57"></path>
                </g>
            </g>
            <g id="g59" transform="translate(401.000000, 0.000000)">
                <path d="M61.607,26.319 C61.607,31.494 57.41,35.689 52.236,35.689 C47.06,35.689 42.865,31.494 42.865,26.319 C42.865,21.144 47.06,16.948 52.236,16.948 C57.41,16.948 61.607,21.145 61.607,26.319 Z" id="path61" fill="#0078A3"></path>
                <path d="M29.514,54.688 C29.514,58.828 26.157,62.185 22.016,62.185 C17.877,62.185 14.52,58.828 14.52,54.688 C14.52,50.548 17.877,47.191 22.016,47.191 C26.156,47.19 29.514,50.548 29.514,54.688 Z" id="path63" fill="#006F9D"></path>
                <path d="M104.557,11.713 C104.557,18.183 99.311,23.426 92.842,23.426 C86.373,23.426 81.129,18.183 81.129,11.713 C81.129,5.243 86.373,0 92.842,0 C99.311,0 104.557,5.243 104.557,11.713 Z" id="path65" fill="#0080A8"></path>
                <path d="M154.119,16.318 C154.119,24.404 147.564,30.96 139.476,30.96 C131.392,30.96 124.835,24.404 124.835,16.318 C124.835,8.231 131.392,1.676 139.476,1.676 C147.564,1.677 154.119,8.231 154.119,16.318 Z" id="path67" fill="#0088AD"></path>
                <path d="M201.102,42.046 C201.102,52.153 192.909,60.347 182.801,60.347 C172.692,60.347 164.498,52.154 164.498,42.046 C164.498,31.937 172.691,23.744 182.801,23.744 C192.908,23.744 201.102,31.937 201.102,42.046 Z" id="path69" fill="#0092B2"></path>
                <path d="M234.436,90.282 C234.436,101.907 225.012,111.329 213.389,111.329 C201.766,111.329 192.342,101.907 192.342,90.282 C192.342,78.657 201.766,69.235 213.389,69.235 C225.012,69.235 234.436,78.657 234.436,90.282 Z" id="path71" fill="#009BB5"></path>
                <path d="M238.387,153.595 C238.387,166.96 227.551,177.796 214.184,177.796 C200.815,177.796 189.979,166.96 189.979,153.595 C189.979,140.23 200.815,129.395 214.184,129.395 C227.551,129.395 238.387,140.229 238.387,153.595 Z" id="path73" fill="#25A5B8"></path>
                <path d="M211.766,215.886 C211.766,231.326 199.25,243.841 183.811,243.841 C168.372,243.841 155.856,231.326 155.856,215.886 C155.856,200.445 168.372,187.931 183.811,187.931 C199.25,187.931 211.766,200.444 211.766,215.886 Z" id="path75" fill="#46AFBC"></path>
                <path d="M150.773,259.194 C150.773,276.502 136.744,290.531 119.437,290.531 C102.13,290.531 88.101,276.502 88.101,259.194 C88.101,241.886 102.13,227.858 119.437,227.858 C136.744,227.858 150.773,241.887 150.773,259.194 Z" id="path77" fill="#60BAC0"></path>
                <path d="M71.107,257.38 C71.107,276.774 55.384,292.495 35.992,292.495 C16.6,292.495 0.877,276.773 0.877,257.38 C0.877,237.984 16.6,222.267 35.992,222.267 C55.384,222.267 71.107,237.984 71.107,257.38 Z" id="path79" fill="#73C3C3"></path>
            </g>
        </g>
    </g>
</svg>